<?xml version="1.0" standalone="yes"?>
<svg xmlns="http://www.w3.org/2000/svg" width="313" height="175">
<path style="fill:#fffefe; stroke:none;" d="M0 0L0 175L313 175L313 0L0 0z"/>
<path style="fill:#fdc198; stroke:none;" d="M26 7L27 8L26 7z"/>
<path style="fill:#fb9e5e; stroke:none;" d="M27.6667 7.33333L28.3333 7.66667L27.6667 7.33333z"/>
<path style="fill:#fdc198; stroke:none;" d="M29 7L30 8L29 7z"/>
<path style="fill:#f97316; stroke:none;" d="M43 47C34.9861 40.1807 30.588 27.9181 25.135 19.0046C23.5761 16.4564 18.9378 10.537 16.0718 15.3225C14.0522 18.6947 17.7656 23.2399 19.3966 26C23.9492 33.7042 32.4936 43.9688 33 53C26.8051 43.6379 21.6124 33.6328 15.8465 24.0046C14.3286 21.4701 9.98098 15.4983 7.07099 20.3225C3.4927 26.2547 17.5254 43.7444 20.5756 49C23.8366 54.6187 26.7565 62.0048 31.3897 66.6096C35.1822 70.3789 40.8868 70.9014 44.3904 75.108C56.48 89.6232 64.932 109.592 74.2809 126C80.6173 137.121 87.2519 155.643 103 149C91.2219 120.859 70.7948 96.3468 57.2832 69C54.6341 63.6385 57.2512 58.5105 56.1921 53C55.3141 48.4317 51.8783 43.9676 49.5756 40C44.5419 31.3267 39.5136 22.643 34.4205 14.0046C32.8853 11.4008 29.5078 5.93674 25.7569 9.03241C22.7621 11.5041 26.0497 16.5663 27.4282 19C32.6077 28.1441 39.3976 37.1037 43 47z"/>
<path style="fill:#dad3ce; stroke:none;" d="M31 8L32 9L31 8z"/>
<path style="fill:#fb9e5e; stroke:none;" d="M24 9L25 10L24 9M27.6667 10.3333L28.3333 10.6667L27.6667 10.3333z"/>
<path style="fill:#fdc198; stroke:none;" d="M32 10L33 11L32 10M98.6667 10.3333L99.3333 10.6667L98.6667 10.3333z"/>
<path style="fill:#fb9e5e; stroke:none;" d="M100 10L100 11L104 11L100 10z"/>
<path style="fill:#fdc198; stroke:none;" d="M104 10L105 11L104 10z"/>
<path style="fill:#dad3ce; stroke:none;" d="M105 10L106 11L105 10M23 11L24 12L23 11z"/>
<path style="fill:#fffefe; stroke:none;" d="M27 11L41.8495 37L46.3225 47.2145L40 52C34.8124 40.8889 27.3542 23.9598 18 16C22.8385 27.2288 30.6836 36.9695 35.9367 47.9961C37.5034 51.2847 36.139 57.1984 31.2091 54.9776C20.1535 49.9973 19.5794 28.4705 9 22C15.9842 35.26 23.2781 51.2796 32.7886 62.8673C36.7138 67.6498 43.4931 68.1027 47.3657 73.0548C56.794 85.1112 63.7083 100.688 71.2809 114C77.396 124.75 84.5674 145.976 98 148C89.5002 119.104 63.4413 96.1865 52.9946 68C51.1463 63.0131 53.8528 58.0247 52.5 53C49.7243 42.6901 40.9865 32.2594 35.7191 23C33.2888 18.7278 31.2759 13.6152 27 11z"/>
<path style="fill:#dad3ce; stroke:none;" d="M95 11L96 12L95 11z"/>
<path style="fill:#fb9e5e; stroke:none;" d="M96 11L97 12L96 11z"/>
<path style="fill:#f97316; stroke:none;" d="M65 75C73.5568 70.3061 70.0971 62.839 70.0039 55C69.9053 46.7126 71.4434 39.0146 76.1049 32C80.6903 25.1 93.5043 12.0372 102.999 13.838C115.059 16.1252 112.423 33.7396 109.958 42C103.044 65.1622 76.3694 64.9325 70 87C75.9097 84.9828 76.6619 77.4709 81.3287 73.7022C86.7785 69.3012 94.3805 68.2017 99.9853 63.5324C110.814 54.5109 120.838 29.4851 111.991 16.1049C99.7814 -2.36073 73.0149 27.2522 69.2168 39C65.3891 50.8396 67.7163 63.0882 65 75z"/>
<path style="fill:#fb9e5e; stroke:none;" d="M106 11L107 12L106 11z"/>
<path style="fill:#fdc198; stroke:none;" d="M107 11L108 12L107 11z"/>
<path style="fill:#dad3ce; stroke:none;" d="M17 12L18 13L17 12z"/>
<path style="fill:#fdc198; stroke:none;" d="M18.6667 12.3333L19.3333 12.6667L18.6667 12.3333z"/>
<path style="fill:#dad3ce; stroke:none;" d="M20 12L21 13L20 12z"/>
<path style="fill:#fb9e5e; stroke:none;" d="M27 12L28 13L27 12z"/>
<path style="fill:#fdc198; stroke:none;" d="M29 12L30 13L29 12z"/>
<path style="fill:#fb9e5e; stroke:none;" d="M33 12L34 13L33 12z"/>
<path style="fill:#dad3ce; stroke:none;" d="M93 12L94 13L93 12z"/>
<path style="fill:#fb9e5e; stroke:none;" d="M94 12L95 13L94 12M108 12L109 13L108 12M16 13L17 14L16 13M21 13L22 14L21 13M24 13L25 14L24 13z"/>
<path style="fill:#dad3ce; stroke:none;" d="M28 13L29 14L28 13z"/>
<path style="fill:#fb9e5e; stroke:none;" d="M30 13L31 14L30 13z"/>
<path style="fill:#dad3ce; stroke:none;" d="M34 13L35 14L34 13M91 13L92 14L91 13z"/>
<path style="fill:#fb9e5e; stroke:none;" d="M92 13L93 14L92 13M100 13L100 14L104 14L100 13z"/>
<path style="fill:#fdc198; stroke:none;" d="M110 13L111 14L110 13z"/>
<path style="fill:#fb9e5e; stroke:none;" d="M15 14L16 15L15 14M22 14L23 15L22 14z"/>
<path style="fill:#dad3ce; stroke:none;" d="M24 14L23 16L24 14z"/>
<path style="fill:#fb9e5e; stroke:none;" d="M28 14L29 15L28 14M34 14L35 15L34 14M90 14L91 15L90 14M97 14L98 15L97 14z"/>
<path style="fill:#dad3ce; stroke:none;" d="M98 14L99 15L98 14z"/>
<path style="fill:#fdc198; stroke:none;" d="M105 14L106 15L105 14M111 14L112 15L111 14z"/>
<path style="fill:#dad3ce; stroke:none;" d="M14 15L15 16L14 15z"/>
<path style="fill:#fffefe; stroke:none;" d="M24 15L41 46L42 46C39.1521 36.3183 31.1848 22.087 24 15z"/>
<path style="fill:#fb9e5e; stroke:none;" d="M25 15L26 16L25 15z"/>
<path style="fill:#fdc198; stroke:none;" d="M29 15L30 16L29 15z"/>
<path style="fill:#fb9e5e; stroke:none;" d="M31 15L32 16L31 15z"/>
<path style="fill:#fdc198; stroke:none;" d="M35 15L36 16L35 15M88 15L89 16L88 15M95 15L96 16L95 15z"/>
<path style="fill:#fb9e5e; stroke:none;" d="M107 15L108 16L107 15z"/>
<path style="fill:#dad3ce; stroke:none;" d="M112 15L113 16L112 15z"/>
<path style="fill:#fdc198; stroke:none;" d="M14.3333 16.6667L14.6667 17.3333L14.3333 16.6667z"/>
<path style="fill:#dad3ce; stroke:none;" d="M19 16L20 17L19 16z"/>
<path style="fill:#fb9e5e; stroke:none;" d="M23 16L24 17L23 16M87 16L88 17L87 16M93 16L94 17L93 16z"/>
<path style="fill:#fdc198; stroke:none;" d="M108 16L109 17L108 16z"/>
<path style="fill:#fb9e5e; stroke:none;" d="M112 16L113 17L112 16z"/>
<path style="fill:#fdc198; stroke:none;" d="M9 17L10 18L9 17z"/>
<path style="fill:#dad3ce; stroke:none;" d="M10 17L11 18L10 17z"/>
<path style="fill:#fdc198; stroke:none;" d="M18 17L19 18L18 17z"/>
<path style="fill:#fb9e5e; stroke:none;" d="M20 17L21 18L20 17z"/>
<path style="fill:#fdc198; stroke:none;" d="M24 17L25 18L24 17M26 17L27 18L26 17M30 17L31 18L30 17M32 17L33 18L32 17z"/>
<path style="fill:#fb9e5e; stroke:none;" d="M36 17L37 18L36 17z"/>
<path style="fill:#fdc198; stroke:none;" d="M85 17L86 18L85 17z"/>
<path style="fill:#fb9e5e; stroke:none;" d="M91 17L92 18L91 17M109 17L110 18L109 17z"/>
<path style="fill:#fdc198; stroke:none;" d="M113 17L114 18L113 17z"/>
<path style="fill:#fb9e5e; stroke:none;" d="M7 18L8 19L7 18z"/>
<path style="fill:#fdc198; stroke:none;" d="M12 18L13 19L12 18z"/>
<path style="fill:#fb9e5e; stroke:none;" d="M33 18L34 19L33 18M84 18L85 19L84 18z"/>
<path style="fill:#fdc198; stroke:none;" d="M90 18L91 19L90 18M96 18L97 19L96 18z"/>
<path style="fill:#fb9e5e; stroke:none;" d="M97.6667 18.3333L98.3333 18.6667L97.6667 18.3333z"/>
<path style="fill:#f97316; stroke:none;" d="M83 32L101 19C93.7055 18.3696 83.3502 24.1302 83 32z"/>
<path style="fill:#fdc198; stroke:none;" d="M100 18L101 19L100 18z"/>
<path style="fill:#fb9e5e; stroke:none;" d="M113 18L114 19L113 18M6 19L7 20L6 19z"/>
<path style="fill:#fdc198; stroke:none;" d="M13 19L14 20L13 19M15 19L16 20L15 19M19 19L20 20L19 19M21 19L22 20L21 19M25 19L26 20L25 19M27 19L28 20L27 19z"/>
<path style="fill:#fb9e5e; stroke:none;" d="M31 19L32 20L31 19z"/>
<path style="fill:#dad3ce; stroke:none;" d="M33 19L34 20L33 19z"/>
<path style="fill:#fb9e5e; stroke:none;" d="M37 19L38 20L37 19z"/>
<path style="fill:#dad3ce; stroke:none;" d="M82 19L83 20L82 19z"/>
<path style="fill:#fb9e5e; stroke:none;" d="M88 19L89 20L88 19z"/>
<path style="fill:#fdc198; stroke:none;" d="M94 19L95 20L94 19M110 19L111 20L110 19z"/>
<path style="fill:#dad3ce; stroke:none;" d="M5 20L6 21L5 20z"/>
<path style="fill:#fb9e5e; stroke:none;" d="M22 20L23 21L22 20M28 20L29 21L28 20z"/>
<path style="fill:#dad3ce; stroke:none;" d="M32 20L33 21L32 20z"/>
<path style="fill:#fb9e5e; stroke:none;" d="M34 20L35 21L34 20z"/>
<path style="fill:#fdc198; stroke:none;" d="M38 20L39 21L38 20M81 20L82 21L81 20M87 20L88 21L87 20M92 20L93 21L92 20z"/>
<path style="fill:#fb9e5e; stroke:none;" d="M100 20L101 21L100 20z"/>
<path style="fill:#dad3ce; stroke:none;" d="M110 20L111 21L110 20M114 20L115 21L114 20z"/>
<path style="fill:#fdc198; stroke:none;" d="M5.33333 21.6667L5.66667 22.3333L5.33333 21.6667z"/>
<path style="fill:#dad3ce; stroke:none;" d="M9 21L10 22L9 21z"/>
<path style="fill:#fdc198; stroke:none;" d="M10 21L11 22L10 21M14 21L15 22L14 21M16 21L17 22L16 21z"/>
<path style="fill:#fb9e5e; stroke:none;" d="M20 21L21 22L20 21z"/>
<path style="fill:#dad3ce; stroke:none;" d="M22 21L23 22L22 21z"/>
<path style="fill:#fb9e5e; stroke:none;" d="M26 21L27 22L26 21z"/>
<path style="fill:#dad3ce; stroke:none;" d="M28 21L29 22L28 21z"/>
<path style="fill:#fb9e5e; stroke:none;" d="M32 21L33 22L32 21M38 21L39 22L38 21z"/>
<path style="fill:#fdc198; stroke:none;" d="M80 21L81 22L80 21z"/>
<path style="fill:#fb9e5e; stroke:none;" d="M85 21L86 22L85 21z"/>
<path style="fill:#fdc198; stroke:none;" d="M90 21L91 22L90 21z"/>
<path style="fill:#fb9e5e; stroke:none;" d="M98 21L99 22L98 21z"/>
<path style="fill:#fdc198; stroke:none;" d="M99 21L100 22L99 21M114 21L115 22L114 21z"/>
<path style="fill:#fb9e5e; stroke:none;" d="M11 22L12 23L11 22M17 22L18 23L17 22z"/>
<path style="fill:#dad3ce; stroke:none;" d="M21 22L22 23L21 22z"/>
<path style="fill:#fb9e5e; stroke:none;" d="M23 22L24 23L23 22z"/>
<path style="fill:#fdc198; stroke:none;" d="M27 22L28 23L27 22z"/>
<path style="fill:#fb9e5e; stroke:none;" d="M29 22L30 23L29 22z"/>
<path style="fill:#fdc198; stroke:none;" d="M33 22L34 23L33 22M35 22L36 23L35 22M39 22L40 23L39 22M79 22L80 23L79 22M84 22L85 23L84 22z"/>
<path style="fill:#fb9e5e; stroke:none;" d="M89 22L90 23L89 22M95 22L96 23L95 22z"/>
<path style="fill:#dad3ce; stroke:none;" d="M96 22L97 23L96 22z"/>
<path style="fill:#fb9e5e; stroke:none;" d="M111 22L111 25L112 25L111 22M114 22L114 35L115 35L114 22z"/>
<path style="fill:#dad3ce; stroke:none;" d="M5 23L6 24L5 23z"/>
<path style="fill:#fb9e5e; stroke:none;" d="M9 23L10 24L9 23z"/>
<path style="fill:#fdc198; stroke:none;" d="M11 23L12 24L11 23z"/>
<path style="fill:#fb9e5e; stroke:none;" d="M15 23L16 24L15 23z"/>
<path style="fill:#dad3ce; stroke:none;" d="M17 23L18 24L17 23z"/>
<path style="fill:#fb9e5e; stroke:none;" d="M21 23L22 24L21 23M27 23L28 24L27 23z"/>
<path style="fill:#fdc198; stroke:none;" d="M78 23L79 24L78 23M83 23L84 24L83 23z"/>
<path style="fill:#fb9e5e; stroke:none;" d="M88 23L89 24L88 23M93 23L94 24L93 23z"/>
<path style="fill:#dad3ce; stroke:none;" d="M94 23L95 24L94 23z"/>
<path style="fill:#fb9e5e; stroke:none;" d="M6 24L7 25L6 24z"/>
<path style="fill:#dad3ce; stroke:none;" d="M10 24L11 25L10 24z"/>
<path style="fill:#fb9e5e; stroke:none;" d="M12 24L13 25L12 24z"/>
<path style="fill:#fdc198; stroke:none;" d="M16 24L17 25L16 24z"/>
<path style="fill:#fffefe; stroke:none;" d="M17 24L32 52L33 52C30.9908 43.2399 23.4513 30.2553 17 24z"/>
<path style="fill:#fb9e5e; stroke:none;" d="M18 24L19 25L18 24z"/>
<path style="fill:#fdc198; stroke:none;" d="M22 24L23 25L22 24M24 24L25 25L24 24M28 24L29 25L28 24M30 24L31 25L30 24M34 24L35 25L34 24M36 24L37 25L36 24z"/>
<path style="fill:#fb9e5e; stroke:none;" d="M40 24L41 25L40 24z"/>
<path style="fill:#fdc198; stroke:none;" d="M77 24L78 25L77 24M82 24L83 25L82 24z"/>
<path style="fill:#dad3ce; stroke:none;" d="M86 24L87 25L86 24z"/>
<path style="fill:#fdc198; stroke:none;" d="M92 24L93 25L92 24z"/>
<path style="fill:#dad3ce; stroke:none;" d="M6 25L7 26L6 25z"/>
<path style="fill:#fb9e5e; stroke:none;" d="M10 25L11 26L10 25M16 25L17 26L16 25M31 25L32 26L31 25M37 25L38 26L37 25z"/>
<path style="fill:#dad3ce; stroke:none;" d="M41 25L42 26L41 25z"/>
<path style="fill:#fdc198; stroke:none;" d="M76 25L77 26L76 25z"/>
<path style="fill:#dad3ce; stroke:none;" d="M81 25L82 26L81 25M85 25L86 26L85 25z"/>
<path style="fill:#fb9e5e; stroke:none;" d="M90 25L91 26L90 25z"/>
<path style="fill:#fdc198; stroke:none;" d="M111 25L111 31L112 31L111 25z"/>
<path style="fill:#fb9e5e; stroke:none;" d="M7 26L8 27L7 26z"/>
<path style="fill:#fdc198; stroke:none;" d="M11 26L12 27L11 26M13 26L14 27L13 26M17 26L18 27L17 26M19 26L20 27L19 26M23 26L24 27L23 26M25 26L26 27L25 26z"/>
<path style="fill:#fb9e5e; stroke:none;" d="M29 26L30 27L29 26z"/>
<path style="fill:#fdc198; stroke:none;" d="M31 26L32 27L31 26z"/>
<path style="fill:#fb9e5e; stroke:none;" d="M35 26L36 27L35 26z"/>
<path style="fill:#dad3ce; stroke:none;" d="M37 26L38 27L37 26z"/>
<path style="fill:#fb9e5e; stroke:none;" d="M41 26L42 27L41 26z"/>
<path style="fill:#dad3ce; stroke:none;" d="M75 26L76 27L75 26z"/>
<path style="fill:#fdc198; stroke:none;" d="M80 26L81 27L80 26z"/>
<path style="fill:#dad3ce; stroke:none;" d="M84 26L85 27L84 26z"/>
<path style="fill:#fb9e5e; stroke:none;" d="M89 26L90 27L89 26M20 27L21 28L20 27M26 27L27 28L26 27z"/>
<path style="fill:#dad3ce; stroke:none;" d="M30 27L31 28L30 27z"/>
<path style="fill:#fb9e5e; stroke:none;" d="M32 27L33 28L32 27z"/>
<path style="fill:#fdc198; stroke:none;" d="M36 27L37 28L36 27z"/>
<path style="fill:#fb9e5e; stroke:none;" d="M38 27L39 28L38 27z"/>
<path style="fill:#fdc198; stroke:none;" d="M42 27L43 28L42 27M79 27L80 28L79 27z"/>
<path style="fill:#dad3ce; stroke:none;" d="M83 27L84 28L83 27z"/>
<path style="fill:#fb9e5e; stroke:none;" d="M88 27L89 28L88 27z"/>
<path style="fill:#fdc198; stroke:none;" d="M8 28L9 29L8 28M12 28L13 29L12 28M14 28L15 29L14 28z"/>
<path style="fill:#fb9e5e; stroke:none;" d="M18 28L19 29L18 28z"/>
<path style="fill:#fdc198; stroke:none;" d="M20 28L21 29L20 28z"/>
<path style="fill:#fb9e5e; stroke:none;" d="M24 28L25 29L24 28z"/>
<path style="fill:#dad3ce; stroke:none;" d="M26 28L27 29L26 28z"/>
<path style="fill:#fb9e5e; stroke:none;" d="M30 28L31 29L30 28M36 28L37 29L36 28M74 28L75 29L74 28M78 28L79 29L78 28M87 28L88 29L87 28M9 29L10 30L9 29M15 29L16 30L15 29z"/>
<path style="fill:#dad3ce; stroke:none;" d="M19 29L20 30L19 29z"/>
<path style="fill:#fb9e5e; stroke:none;" d="M21 29L22 30L21 29z"/>
<path style="fill:#dad3ce; stroke:none;" d="M25 29L26 30L25 29z"/>
<path style="fill:#fb9e5e; stroke:none;" d="M27 29L28 30L27 29z"/>
<path style="fill:#fdc198; stroke:none;" d="M31 29L32 30L31 29M33 29L34 30L33 29M37 29L38 30L37 29M39 29L40 30L39 29M43 29L44 30L43 29M73 29L74 30L73 29z"/>
<path style="fill:#fb9e5e; stroke:none;" d="M77 29L78 30L77 29M82 29L83 30L82 29M86 29L87 30L86 29z"/>
<path style="fill:#fdc198; stroke:none;" d="M9 30L10 31L9 30z"/>
<path style="fill:#fb9e5e; stroke:none;" d="M13 30L14 31L13 30z"/>
<path style="fill:#dad3ce; stroke:none;" d="M15 30L16 31L15 30z"/>
<path style="fill:#fb9e5e; stroke:none;" d="M19 30L20 31L19 30M25 30L26 31L25 30M40 30L41 31L40 30M85 30L86 31L85 30M10 31L11 32L10 31z"/>
<path style="fill:#dad3ce; stroke:none;" d="M14 31L15 32L14 31z"/>
<path style="fill:#fb9e5e; stroke:none;" d="M16 31L17 32L16 31z"/>
<path style="fill:#fdc198; stroke:none;" d="M20 31L21 32L20 31M22 31L23 32L22 31M26 31L27 32L26 31M28 31L29 32L28 31M32 31L33 32L32 31M34 31L35 32L34 31z"/>
<path style="fill:#fb9e5e; stroke:none;" d="M38 31L39 32L38 31z"/>
<path style="fill:#fdc198; stroke:none;" d="M40 31L41 32L40 31z"/>
<path style="fill:#fb9e5e; stroke:none;" d="M44 31L45 32L44 31M72 31L73 32L72 31z"/>
<path style="fill:#fdc198; stroke:none;" d="M76 31L77 32L76 31M82 31L83 32L82 31z"/>
<path style="fill:#fb9e5e; stroke:none;" d="M84 31L85 32L84 31M111 31L111 35L112 35L111 31M14 32L15 33L14 32M29 32L30 33L29 32M35 32L36 33L35 32z"/>
<path style="fill:#dad3ce; stroke:none;" d="M39 32L40 33L39 32z"/>
<path style="fill:#fb9e5e; stroke:none;" d="M41 32L42 33L41 32z"/>
<path style="fill:#dad3ce; stroke:none;" d="M45 32L46 33L45 32M71 32L72 33L71 32z"/>
<path style="fill:#fb9e5e; stroke:none;" d="M75 32L76 33L75 32z"/>
<path style="fill:#fdc198; stroke:none;" d="M11 33L12 34L11 33M15 33L16 34L15 33M17 33L18 34L17 33M21 33L22 34L21 33M23 33L24 34L23 33z"/>
<path style="fill:#fb9e5e; stroke:none;" d="M27 33L28 34L27 33z"/>
<path style="fill:#fdc198; stroke:none;" d="M29 33L30 34L29 33z"/>
<path style="fill:#fb9e5e; stroke:none;" d="M33 33L34 34L33 33z"/>
<path style="fill:#dad3ce; stroke:none;" d="M35 33L36 34L35 33z"/>
<path style="fill:#fb9e5e; stroke:none;" d="M39 33L40 34L39 33M45 33L46 34L45 33M71 33L72 34L71 33z"/>
<path style="fill:#dad3ce; stroke:none;" d="M75 33L76 34L75 33z"/>
<path style="fill:#fb9e5e; stroke:none;" d="M18 34L19 35L18 34M24 34L25 35L24 34z"/>
<path style="fill:#dad3ce; stroke:none;" d="M28 34L29 35L28 34z"/>
<path style="fill:#fb9e5e; stroke:none;" d="M30 34L31 35L30 34z"/>
<path style="fill:#dad3ce; stroke:none;" d="M34 34L35 35L34 34z"/>
<path style="fill:#fb9e5e; stroke:none;" d="M36 34L37 35L36 34z"/>
<path style="fill:#fdc198; stroke:none;" d="M40 34L41 35L40 34M42 34L43 35L42 34M46 34L47 35L46 34z"/>
<path style="fill:#dad3ce; stroke:none;" d="M70 34L71 35L70 34z"/>
<path style="fill:#fb9e5e; stroke:none;" d="M74 34L75 35L74 34z"/>
<path style="fill:#fdc198; stroke:none;" d="M12 35L13 36L12 35z"/>
<path style="fill:#fb9e5e; stroke:none;" d="M16 35L17 36L16 35z"/>
<path style="fill:#fdc198; stroke:none;" d="M18 35L19 36L18 35z"/>
<path style="fill:#fb9e5e; stroke:none;" d="M22 35L23 36L22 35z"/>
<path style="fill:#dad3ce; stroke:none;" d="M24 35L25 36L24 35z"/>
<path style="fill:#fb9e5e; stroke:none;" d="M28 35L29 36L28 35M34 35L35 36L34 35M70 35L71 36L70 35z"/>
<path style="fill:#fdc198; stroke:none;" d="M114 35L114 38L115 38L114 35z"/>
<path style="fill:#fb9e5e; stroke:none;" d="M13 36L14 37L13 36M19 36L20 37L19 36z"/>
<path style="fill:#dad3ce; stroke:none;" d="M23 36L24 37L23 36z"/>
<path style="fill:#fb9e5e; stroke:none;" d="M25 36L26 37L25 36z"/>
<path style="fill:#fdc198; stroke:none;" d="M29 36L30 37L29 36z"/>
<path style="fill:#fb9e5e; stroke:none;" d="M31 36L32 37L31 36z"/>
<path style="fill:#fdc198; stroke:none;" d="M35 36L36 37L35 36M37 36L38 37L37 36M41 36L42 37L41 36M43 36L44 37L43 36z"/>
<path style="fill:#fb9e5e; stroke:none;" d="M47 36L48 37L47 36M73 36L74 37L73 36z"/>
<path style="fill:#dad3ce; stroke:none;" d="M13 37L14 38L13 37z"/>
<path style="fill:#fb9e5e; stroke:none;" d="M17 37L18 38L17 37M23 37L24 38L23 37M38 37L39 38L38 37M44 37L45 38L44 37z"/>
<path style="fill:#dad3ce; stroke:none;" d="M48 37L49 38L48 37z"/>
<path style="fill:#fdc198; stroke:none;" d="M69 37L70 38L69 37z"/>
<path style="fill:#dad3ce; stroke:none;" d="M73 37L74 38L73 37M110 37L111 38L110 37z"/>
<path style="fill:#fb9e5e; stroke:none;" d="M14 38L15 39L14 38z"/>
<path style="fill:#fdc198; stroke:none;" d="M18 38L19 39L18 38z"/>
<path style="fill:#fb9e5e; stroke:none;" d="M20 38L21 39L20 38z"/>
<path style="fill:#fdc198; stroke:none;" d="M24 38L25 39L24 38M26 38L27 39L26 38M30 38L31 39L30 38M32 38L33 39L32 38z"/>
<path style="fill:#fb9e5e; stroke:none;" d="M36 38L37 39L36 38z"/>
<path style="fill:#fdc198; stroke:none;" d="M38 38L39 39L38 38z"/>
<path style="fill:#fb9e5e; stroke:none;" d="M42 38L43 39L42 38z"/>
<path style="fill:#dad3ce; stroke:none;" d="M44 38L45 39L44 38z"/>
<path style="fill:#fb9e5e; stroke:none;" d="M48 38L49 39L48 38M72 38L73 39L72 38z"/>
<path style="fill:#fdc198; stroke:none;" d="M110.333 38.6667L110.667 39.3333L110.333 38.6667z"/>
<path style="fill:#fb9e5e; stroke:none;" d="M18 39L19 40L18 39M33 39L34 40L33 39M39 39L40 40L39 39z"/>
<path style="fill:#dad3ce; stroke:none;" d="M43 39L44 40L43 39z"/>
<path style="fill:#fb9e5e; stroke:none;" d="M45 39L46 40L45 39z"/>
<path style="fill:#fdc198; stroke:none;" d="M49 39L50 40L49 39z"/>
<path style="fill:#dad3ce; stroke:none;" d="M68 39L69 40L68 39z"/>
<path style="fill:#fdc198; stroke:none;" d="M72 39L73 40L72 39M205.667 39.3333L206.333 39.6667L205.667 39.3333z"/>
<path style="fill:#fb9e5e; stroke:none;" d="M207 39L207 40L210 40L207 39z"/>
<path style="fill:#f97316; stroke:none;" d="M185 105L186 105L188 102C187.601 114.804 199.375 119.713 211 117.671C222.949 115.572 234.353 101.231 232 89C235.046 86.3241 234.948 78.9559 234.996 75C235.147 62.6594 233.357 46.2859 220 41.1435C184.622 27.523 177.995 83.0942 185 105z"/>
<path style="fill:#fb9e5e; stroke:none;" d="M212 39L212 40L215 40L212 39z"/>
<path style="fill:#fdc198; stroke:none;" d="M215.667 39.3333L216.333 39.6667L215.667 39.3333M15 40L16 41L15 40M19 40L20 41L19 40M21 40L22 41L21 40M25 40L26 41L25 40M27 40L28 41L27 40z"/>
<path style="fill:#fb9e5e; stroke:none;" d="M31 40L32 41L31 40z"/>
<path style="fill:#dad3ce; stroke:none;" d="M33 40L34 41L33 40z"/>
<path style="fill:#fb9e5e; stroke:none;" d="M37 40L38 41L37 40M43 40L44 41L43 40M68.3333 40.6667L68.6667 41.3333L68.3333 40.6667M110 40L111 41L110 40M113 40L114 41L113 40z"/>
<path style="fill:#dad3ce; stroke:none;" d="M149 40L149 41L154 41L149 40z"/>
<path style="fill:#fdc198; stroke:none;" d="M202 40L203 41L202 40z"/>
<path style="fill:#fb9e5e; stroke:none;" d="M203 40L204 41L203 40M218 40L219 41L218 40z"/>
<path style="fill:#fdc198; stroke:none;" d="M219 40L220 41L219 40z"/>
<path style="fill:#fb9e5e; stroke:none;" d="M22 41L23 42L22 41M28 41L29 42L28 41z"/>
<path style="fill:#dad3ce; stroke:none;" d="M32 41L33 42L32 41z"/>
<path style="fill:#fb9e5e; stroke:none;" d="M34 41L35 42L34 41z"/>
<path style="fill:#fdc198; stroke:none;" d="M38 41L39 42L38 41z"/>
<path style="fill:#fb9e5e; stroke:none;" d="M40 41L41 42L40 41z"/>
<path style="fill:#fdc198; stroke:none;" d="M44 41L45 42L44 41M46 41L47 42L46 41M50 41L51 42L50 41z"/>
<path style="fill:#fb9e5e; stroke:none;" d="M71 41L72 42L71 41z"/>
<path style="fill:#fdc198; stroke:none;" d="M113 41L114 42L113 41z"/>
<path style="fill:#dad3ce; stroke:none;" d="M143 41L144 42L143 41z"/>
<path style="fill:#fdc198; stroke:none;" d="M144.667 41.3333L145.333 41.6667L144.667 41.3333z"/>
<path style="fill:#fb9e5e; stroke:none;" d="M146 41L147 42L146 41z"/>
<path style="fill:#f97316; stroke:none;" d="M114 116C118.48 117.678 130.255 120.589 134.062 116.397C136.752 113.436 135.603 108.591 139.279 106.164C143.274 103.527 150.335 103.201 155 103L156 118L177 117C173.52 99.0577 171.091 80.8391 167.116 63C165.69 56.6005 164.672 47.0347 158.812 43.0093C152.924 38.9647 141.334 40.6087 137.905 47.044C126.813 67.8636 119.255 93.0785 114 116z"/>
<path style="fill:#fb9e5e; stroke:none;" d="M156 41L157 42L156 41z"/>
<path style="fill:#fdc198; stroke:none;" d="M157 41L158 42L157 41M200 41L201 42L200 41M221 41L222 42L221 41M245 41L244 43L245 41z"/>
<path style="fill:#fb9e5e; stroke:none;" d="M246 41L246 42L250 42L246 41z"/>
<path style="fill:#f97316; stroke:none;" d="M245 42L240 118C244.363 118 253.839 119.79 257.397 116.972C259.749 115.109 258.999 110.617 259 108C259.002 101.732 262.397 81.8472 258 78L258 77C270.435 84.1841 265.465 108.969 276.649 116.972C280.792 119.937 289.363 117.586 294 117C294 110.68 296.874 94.2588 292 90L292 89L292 88L294.83 76L297 43C292.974 41.637 284.411 39.012 280.603 42.0278C276.12 45.5784 278 66.3141 278 72C270.86 64.0658 271.982 46.2085 260.985 41.8935C255.94 39.9137 250.169 41.5921 245 42z"/>
<path style="fill:#fb9e5e; stroke:none;" d="M260 41L261 42L260 41z"/>
<path style="fill:#fdc198; stroke:none;" d="M261 41L262 42L261 41M279 41L280 42L279 41z"/>
<path style="fill:#fb9e5e; stroke:none;" d="M291 41L291 42L296 42L291 41z"/>
<path style="fill:#fdc198; stroke:none;" d="M16 42L17 43L16 42z"/>
<path style="fill:#fb9e5e; stroke:none;" d="M20 42L21 43L20 42z"/>
<path style="fill:#dad3ce; stroke:none;" d="M22 42L23 43L22 42z"/>
<path style="fill:#fb9e5e; stroke:none;" d="M26 42L27 43L26 42z"/>
<path style="fill:#dad3ce; stroke:none;" d="M28 42L29 43L28 42z"/>
<path style="fill:#fb9e5e; stroke:none;" d="M32 42L33 43L32 42z"/>
<path style="fill:#fdc198; stroke:none;" d="M71 42L72 43L71 42M109 42L110 43L109 42z"/>
<path style="fill:#dad3ce; stroke:none;" d="M113 42L114 43L113 42z"/>
<path style="fill:#fdc198; stroke:none;" d="M140 42L141 43L140 42z"/>
<path style="fill:#fb9e5e; stroke:none;" d="M141 42L142 43L141 42M158 42L159 43L158 42z"/>
<path style="fill:#fdc198; stroke:none;" d="M198 42L199 43L198 42M223 42L224 43L223 42M263 42L264 43L263 42z"/>
<path style="fill:#fb9e5e; stroke:none;" d="M296 42L297 43L296 42M17 43L18 44L17 43z"/>
<path style="fill:#dad3ce; stroke:none;" d="M21 43L22 44L21 43z"/>
<path style="fill:#fb9e5e; stroke:none;" d="M23 43L24 44L23 43z"/>
<path style="fill:#fdc198; stroke:none;" d="M27 43L28 44L27 43z"/>
<path style="fill:#fb9e5e; stroke:none;" d="M29 43L30 44L29 43z"/>
<path style="fill:#fdc198; stroke:none;" d="M33 43L34 44L33 43M35 43L36 44L35 43M39 43L40 44L39 43M41 43L42 44L41 43M45 43L46 44L45 43M47 43L48 44L47 43z"/>
<path style="fill:#fb9e5e; stroke:none;" d="M51 43L52 44L51 43z"/>
<path style="fill:#fdc198; stroke:none;" d="M67 43L68 44L67 43z"/>
<path style="fill:#fb9e5e; stroke:none;" d="M109 43L110 44L109 43M139 43L140 44L139 43z"/>
<path style="fill:#dad3ce; stroke:none;" d="M160 43L161 44L160 43z"/>
<path style="fill:#fb9e5e; stroke:none;" d="M197 43L198 44L197 43M215 43L216 46L220 44L220 43L215 43z"/>
<path style="fill:#dad3ce; stroke:none;" d="M216 43L217 44L216 43z"/>
<path style="fill:#fb9e5e; stroke:none;" d="M224 43L225 44L224 43M244 43L244 47L245 47L244 43z"/>
<path style="fill:#fdc198; stroke:none;" d="M264 43L265 44L264 43z"/>
<path style="fill:#dad3ce; stroke:none;" d="M17 44L18 45L17 44z"/>
<path style="fill:#fb9e5e; stroke:none;" d="M21 44L22 45L21 44M27 44L28 45L27 44M42 44L43 45L42 44M48 44L49 45L48 44z"/>
<path style="fill:#dad3ce; stroke:none;" d="M52 44L53 45L52 44z"/>
<path style="fill:#fb9e5e; stroke:none;" d="M67.3333 44.6667L67.6667 45.3333L67.3333 44.6667M112 44L113 45L112 44z"/>
<path style="fill:#dad3ce; stroke:none;" d="M138 44L139 45L138 44z"/>
<path style="fill:#fb9e5e; stroke:none;" d="M196 44L197 45L196 44M203 44L204 45L203 44M205 44L208 46L205 44z"/>
<path style="fill:#fdc198; stroke:none;" d="M215 44L216 45L215 44z"/>
<path style="fill:#fb9e5e; stroke:none;" d="M225 44L226 45L225 44z"/>
<path style="fill:#fdc198; stroke:none;" d="M265 44L266 45L265 44z"/>
<path style="fill:#fb9e5e; stroke:none;" d="M18 45L19 46L18 45z"/>
<path style="fill:#fdc198; stroke:none;" d="M22 45L23 46L22 45M24 45L25 46L24 45M28 45L29 46L28 45M30 45L31 46L30 45M34 45L35 46L34 45M36 45L37 46L36 45z"/>
<path style="fill:#fb9e5e; stroke:none;" d="M40 45L41 46L40 45z"/>
<path style="fill:#dad3ce; stroke:none;" d="M42 45L41 47L43 47L42 45z"/>
<path style="fill:#fb9e5e; stroke:none;" d="M46 45L47 46L46 45z"/>
<path style="fill:#dad3ce; stroke:none;" d="M48 45L49 46L48 45z"/>
<path style="fill:#fb9e5e; stroke:none;" d="M52 45L53 46L52 45M70 45L71 46L70 45z"/>
<path style="fill:#fdc198; stroke:none;" d="M108 45L109 46L108 45M112 45L113 46L112 45z"/>
<path style="fill:#fb9e5e; stroke:none;" d="M138 45L139 46L138 45M141 45L142 46L141 45M161 45L162 46L161 45z"/>
<path style="fill:#dad3ce; stroke:none;" d="M215 45L216 46L215 45M266 45L267 46L266 45z"/>
<path style="fill:#fb9e5e; stroke:none;" d="M296 45L296 48L297 48L296 45M31 46L32 47L31 46M37 46L38 47L37 46z"/>
<path style="fill:#dad3ce; stroke:none;" d="M47 46L48 47L47 46z"/>
<path style="fill:#fb9e5e; stroke:none;" d="M49 46L50 47L49 46z"/>
<path style="fill:#fdc198; stroke:none;" d="M53 46L54 47L53 46M70.3333 46.6667L70.6667 47.3333L70.3333 46.6667z"/>
<path style="fill:#fb9e5e; stroke:none;" d="M108 46L109 47L108 46z"/>
<path style="fill:#fdc198; stroke:none;" d="M162 46L163 47L162 46z"/>
<path style="fill:#fb9e5e; stroke:none;" d="M266 46L267 47L266 46z"/>
<path style="fill:#dad3ce; stroke:none;" d="M278.333 46.6667L278.667 47.3333L278.333 46.6667z"/>
<path style="fill:#fdc198; stroke:none;" d="M19 47L20 48L19 47M23 47L24 48L23 47M25 47L26 48L25 47z"/>
<path style="fill:#fb9e5e; stroke:none;" d="M29 47L30 48L29 47z"/>
<path style="fill:#fdc198; stroke:none;" d="M31 47L32 48L31 47z"/>
<path style="fill:#fb9e5e; stroke:none;" d="M35 47L36 48L35 47z"/>
<path style="fill:#dad3ce; stroke:none;" d="M37 47L38 48L37 47M107 47L108 48L107 47z"/>
<path style="fill:#fdc198; stroke:none;" d="M111 47L112 48L111 47M137 47L138 48L137 47z"/>
<path style="fill:#fb9e5e; stroke:none;" d="M193 47L194 48L193 47M228 47L229 48L228 47z"/>
<path style="fill:#fdc198; stroke:none;" d="M267 47L268 48L267 47z"/>
<path style="fill:#fb9e5e; stroke:none;" d="M20 48L21 49L20 48M26 48L27 49L26 48z"/>
<path style="fill:#dad3ce; stroke:none;" d="M30 48L31 49L30 48z"/>
<path style="fill:#fb9e5e; stroke:none;" d="M32 48L33 49L32 48z"/>
<path style="fill:#fdc198; stroke:none;" d="M36 48L37 49L36 48z"/>
<path style="fill:#fb9e5e; stroke:none;" d="M38 48L39 49L38 48z"/>
<path style="fill:#fdc198; stroke:none;" d="M46 48L47 49L46 48M50 48L51 49L50 48M54 48L55 49L54 48z"/>
<path style="fill:#dad3ce; stroke:none;" d="M66 48L67 49L66 48M70 48L71 49L70 48z"/>
<path style="fill:#fb9e5e; stroke:none;" d="M107 48L108 49L107 48M155 48C154.425 50.3962 154.525 50.487 157 51L157 50L155 48z"/>
<path style="fill:#fdc198; stroke:none;" d="M163 48L164 49L163 48z"/>
<path style="fill:#fb9e5e; stroke:none;" d="M192 48L193 49L192 48M229 48L230 49L229 48z"/>
<path style="fill:#fdc198; stroke:none;" d="M278 48L278 53L279 53L278 48M296 48L296 52L297 52L296 48z"/>
<path style="fill:#dad3ce; stroke:none;" d="M20 49L21 50L20 49z"/>
<path style="fill:#fb9e5e; stroke:none;" d="M24 49L25 50L24 49z"/>
<path style="fill:#dad3ce; stroke:none;" d="M26 49L27 50L26 49z"/>
<path style="fill:#fb9e5e; stroke:none;" d="M30 49L31 50L30 49M36 49L37 50L36 49z"/>
<path style="fill:#fdc198; stroke:none;" d="M44 49L45 50L44 49z"/>
<path style="fill:#fb9e5e; stroke:none;" d="M51 49L52 50L51 49z"/>
<path style="fill:#fdc198; stroke:none;" d="M66 49L66 57L67 57L66 49z"/>
<path style="fill:#dad3ce; stroke:none;" d="M106 49L107 50L106 49z"/>
<path style="fill:#fb9e5e; stroke:none;" d="M110 49L111 50L110 49z"/>
<path style="fill:#fdc198; stroke:none;" d="M136 49L137 50L136 49z"/>
<path style="fill:#fb9e5e; stroke:none;" d="M163 49L164 50L163 49z"/>
<path style="fill:#fdc198; stroke:none;" d="M191 49L192 50L191 49z"/>
<path style="fill:#dad3ce; stroke:none;" d="M230 49L231 50L230 49z"/>
<path style="fill:#fdc198; stroke:none;" d="M268 49L269 50L268 49z"/>
<path style="fill:#fb9e5e; stroke:none;" d="M21 50L22 51L21 50z"/>
<path style="fill:#dad3ce; stroke:none;" d="M25 50L26 51L25 50z"/>
<path style="fill:#fb9e5e; stroke:none;" d="M27 50L28 51L27 50z"/>
<path style="fill:#fdc198; stroke:none;" d="M31 50L32 51L31 50M33 50L34 51L33 50M37 50L38 51L37 50M39 50L40 51L39 50z"/>
<path style="fill:#fb9e5e; stroke:none;" d="M42 50L43 51L42 50z"/>
<path style="fill:#dad3ce; stroke:none;" d="M51 50L52 51L51 50z"/>
<path style="fill:#fb9e5e; stroke:none;" d="M55 50L56 51L55 50M106 50L107 51L106 50z"/>
<path style="fill:#dad3ce; stroke:none;" d="M110 50L111 51L110 50z"/>
<path style="fill:#fb9e5e; stroke:none;" d="M136 50L137 51L136 50M141 50L142 51L141 50z"/>
<path style="fill:#dad3ce; stroke:none;" d="M164 50L165 51L164 50M190 50L191 51L190 50z"/>
<path style="fill:#fb9e5e; stroke:none;" d="M230 50L231 51L230 50z"/>
<path style="fill:#dad3ce; stroke:none;" d="M243.333 50.6667L243.667 51.3333L243.333 50.6667z"/>
<path style="fill:#fb9e5e; stroke:none;" d="M268 50L269 51L268 50M25 51L26 52L25 51z"/>
<path style="fill:#dad3ce; stroke:none;" d="M33 51L34 52L33 51M40.6667 51.3333L41.3333 51.6667L40.6667 51.3333z"/>
<path style="fill:#fb9e5e; stroke:none;" d="M52 51L53 52L52 51z"/>
<path style="fill:#fdc198; stroke:none;" d="M56 51L57 52L56 51M105 51L106 52L105 51z"/>
<path style="fill:#fb9e5e; stroke:none;" d="M109 51L110 52L109 51z"/>
<path style="fill:#dad3ce; stroke:none;" d="M135 51L136 52L135 51z"/>
<path style="fill:#fdc198; stroke:none;" d="M157.333 51.6667L157.667 52.3333L157.333 51.6667z"/>
<path style="fill:#fb9e5e; stroke:none;" d="M158.333 51.6667L158.667 52.3333L158.333 51.6667z"/>
<path style="fill:#fdc198; stroke:none;" d="M164 51L165 52L164 51z"/>
<path style="fill:#fb9e5e; stroke:none;" d="M190 51L191 52L190 51z"/>
<path style="fill:#fdc198; stroke:none;" d="M231 51L232 52L231 51M22 52L23 53L22 52M26 52L27 53L26 52M28 52L29 53L28 52z"/>
<path style="fill:#fb9e5e; stroke:none;" d="M32 52L33 53L32 52M56 52L57 53L56 52M135 52L136 53L135 52M164 52L165 53L164 52z"/>
<path style="fill:#fdc198; stroke:none;" d="M189 52L190 53L189 52z"/>
<path style="fill:#fb9e5e; stroke:none;" d="M231 52L232 53L231 52z"/>
<path style="fill:#fdc198; stroke:none;" d="M243 52L243 55L244 55L243 52M269 52L270 53L269 52z"/>
<path style="fill:#dad3ce; stroke:none;" d="M296.333 52.6667L296.667 53.3333L296.333 52.6667z"/>
<path style="fill:#fb9e5e; stroke:none;" d="M29 53L30 54L29 53z"/>
<path style="fill:#fdc198; stroke:none;" d="M37 53L38 54L37 53M53.3333 53.6667L53.6667 54.3333L53.3333 53.6667M104 53L105 54L104 53M108 53L109 54L108 53z"/>
<path style="fill:#dad3ce; stroke:none;" d="M232 53L233 54L232 53z"/>
<path style="fill:#fb9e5e; stroke:none;" d="M269 53L270 54L269 53M278 53L278 59L279 59L278 53z"/>
<path style="fill:#fdc198; stroke:none;" d="M23 54L24 55L23 54z"/>
<path style="fill:#fb9e5e; stroke:none;" d="M27 54L28 55L27 54z"/>
<path style="fill:#fdc198; stroke:none;" d="M29 54L30 55L29 54z"/>
<path style="fill:#fb9e5e; stroke:none;" d="M35 54L36 55L35 54z"/>
<path style="fill:#fdc198; stroke:none;" d="M103 54L104 55L103 54z"/>
<path style="fill:#fb9e5e; stroke:none;" d="M107 54L108 55L107 54z"/>
<path style="fill:#fdc198; stroke:none;" d="M134 54L135 55L134 54M157 54L158 55L157 54M165 54L166 55L165 54z"/>
<path style="fill:#fb9e5e; stroke:none;" d="M188 54L189 55L188 54M210 54L211 55L210 54z"/>
<path style="fill:#fdc198; stroke:none;" d="M211 54L212 55L211 54z"/>
<path style="fill:#fb9e5e; stroke:none;" d="M212 54L213 55L212 54z"/>
<path style="fill:#fdc198; stroke:none;" d="M232 54L233 55L232 54z"/>
<path style="fill:#dad3ce; stroke:none;" d="M270 54L271 55L270 54z"/>
<path style="fill:#fb9e5e; stroke:none;" d="M24 55L25 56L24 55z"/>
<path style="fill:#dad3ce; stroke:none;" d="M28 55L29 56L28 55z"/>
<path style="fill:#fb9e5e; stroke:none;" d="M30 55L31 56L30 55M33 55L34 56L33 55z"/>
<path style="fill:#dad3ce; stroke:none;" d="M34 55L35 56L34 55z"/>
<path style="fill:#fb9e5e; stroke:none;" d="M53 55L53 58L54 58L53 55M56 55L56 58L57 58L56 55z"/>
<path style="fill:#dad3ce; stroke:none;" d="M107 55L108 56L107 55z"/>
<path style="fill:#fb9e5e; stroke:none;" d="M134 55L135 56L134 55M157 55L158 56L157 55M165 55L166 56L165 55M208 55L207 57L208 55z"/>
<path style="fill:#fffefe; stroke:none;" d="M209.209 56.0864C200.196 60.5883 201.958 81.855 202.001 90C202.022 93.9441 202.594 101.807 208.79 99.3773C218.036 95.7519 216.354 71.7756 215.96 64C215.788 60.616 214.186 53.6003 209.209 56.0864z"/>
<path style="fill:#dad3ce; stroke:none;" d="M213 55L214 56L213 55z"/>
<path style="fill:#fb9e5e; stroke:none;" d="M243 55L243 59L244 59L243 55M270 55L271 56L270 55z"/>
<path style="fill:#dad3ce; stroke:none;" d="M24 56L25 57L24 56z"/>
<path style="fill:#fb9e5e; stroke:none;" d="M28 56L29 57L28 56z"/>
<path style="fill:#fdc198; stroke:none;" d="M31.6667 56.3333L32.3333 56.6667L31.6667 56.3333z"/>
<path style="fill:#fb9e5e; stroke:none;" d="M102 56L103 57L102 56z"/>
<path style="fill:#fdc198; stroke:none;" d="M106 56L107 57L106 56z"/>
<path style="fill:#dad3ce; stroke:none;" d="M133 56L134 57L133 56z"/>
<path style="fill:#fb9e5e; stroke:none;" d="M149.667 56.3333L150.333 56.6667L149.667 56.3333M187 56L188 57L187 56z"/>
<path style="fill:#fdc198; stroke:none;" d="M214 56L215 57L214 56z"/>
<path style="fill:#dad3ce; stroke:none;" d="M233 56L234 57L233 56z"/>
<path style="fill:#fb9e5e; stroke:none;" d="M25 57L26 58L25 57z"/>
<path style="fill:#fdc198; stroke:none;" d="M29 57L30 58L29 57z"/>
<path style="fill:#dad3ce; stroke:none;" d="M66 57L67 58L66 57M70 57L71 58L70 57z"/>
<path style="fill:#fb9e5e; stroke:none;" d="M101 57L102 58L101 57M105 57L106 58L105 57M133 57L134 58L133 57z"/>
<path style="fill:#fdc198; stroke:none;" d="M233 57L234 58L233 57z"/>
<path style="fill:#fb9e5e; stroke:none;" d="M253 57L254 58L253 57z"/>
<path style="fill:#fdc198; stroke:none;" d="M271 57L272 58L271 57z"/>
<path style="fill:#fb9e5e; stroke:none;" d="M295 57L295 62L296 62L295 57M29 58L30 59L29 58z"/>
<path style="fill:#fdc198; stroke:none;" d="M56.3333 58.6667L56.6667 59.3333L56.3333 58.6667M70.3333 58.6667L70.6667 59.3333L70.3333 58.6667z"/>
<path style="fill:#fb9e5e; stroke:none;" d="M100 58L101 59L100 58M158 58L159 59L158 58z"/>
<path style="fill:#fdc198; stroke:none;" d="M159 58L160 59L159 58M166 58L167 59L166 58M186 58L187 59L186 58M206 58L207 59L206 58z"/>
<path style="fill:#fb9e5e; stroke:none;" d="M215 58L217 60L215 58M233 58L234 59L233 58M271 58L272 59L271 58z"/>
<path style="fill:#fdc198; stroke:none;" d="M26 59L27 60L26 59M30 59L31 60L30 59z"/>
<path style="fill:#fb9e5e; stroke:none;" d="M99 59L100 60L99 59z"/>
<path style="fill:#fdc198; stroke:none;" d="M132 59L133 60L132 59z"/>
<path style="fill:#fb9e5e; stroke:none;" d="M166.333 59.6667L166.667 60.3333L166.333 59.6667M186 59L187 60L186 59M203 59L204 60L203 59z"/>
<path style="fill:#dad3ce; stroke:none;" d="M215 59L216 60L215 59M272 59L273 60L272 59z"/>
<path style="fill:#fb9e5e; stroke:none;" d="M27 60L28 61L27 60z"/>
<path style="fill:#dad3ce; stroke:none;" d="M52 60L53 61L52 60M56 60L57 61L56 60z"/>
<path style="fill:#fb9e5e; stroke:none;" d="M67.3333 60.6667L67.6667 61.3333L67.3333 60.6667M70.3333 60.6667L70.6667 61.3333L70.3333 60.6667M98 60L99 61L98 60z"/>
<path style="fill:#dad3ce; stroke:none;" d="M103 60L104 61L103 60M185 60L186 61L185 60z"/>
<path style="fill:#fdc198; stroke:none;" d="M205 60L206 61L205 60z"/>
<path style="fill:#dad3ce; stroke:none;" d="M234 60L235 61L234 60z"/>
<path style="fill:#fdc198; stroke:none;" d="M272 60L273 61L272 60M27 61L28 62L27 61z"/>
<path style="fill:#fb9e5e; stroke:none;" d="M31 61L32 62L31 61z"/>
<path style="fill:#fdc198; stroke:none;" d="M52 61L52 64L53 64L52 61z"/>
<path style="fill:#fb9e5e; stroke:none;" d="M97 61L98 62L97 61z"/>
<path style="fill:#dad3ce; stroke:none;" d="M102 61L103 62L102 61z"/>
<path style="fill:#fdc198; stroke:none;" d="M131 61L132 62L131 61z"/>
<path style="fill:#fb9e5e; stroke:none;" d="M185 61L186 62L185 61z"/>
<path style="fill:#fdc198; stroke:none;" d="M234 61L235 62L234 61z"/>
<path style="fill:#fb9e5e; stroke:none;" d="M28 62L29 63L28 62z"/>
<path style="fill:#dad3ce; stroke:none;" d="M32 62L33 63L32 62z"/>
<path style="fill:#fdc198; stroke:none;" d="M67 62L68 63L67 62z"/>
<path style="fill:#dad3ce; stroke:none;" d="M95 62L96 63L95 62M101 62L102 63L101 62z"/>
<path style="fill:#fb9e5e; stroke:none;" d="M131 62L132 63L131 62M134 62L133 64L134 62z"/>
<path style="fill:#fdc198; stroke:none;" d="M167.333 62.6667L167.667 63.3333L167.333 62.6667z"/>
<path style="fill:#fb9e5e; stroke:none;" d="M204 62L205 63L204 62M216 62L217 67L218 67L216 62M234.333 62.6667L234.667 63.3333L234.333 62.6667z"/>
<path style="fill:#dad3ce; stroke:none;" d="M242 62L243 63L242 62z"/>
<path style="fill:#fb9e5e; stroke:none;" d="M254 62L260 64L260 63L254 62z"/>
<path style="fill:#fdc198; stroke:none;" d="M273 62L274 63L273 62M295 62L295 68L296 68L295 62z"/>
<path style="fill:#dad3ce; stroke:none;" d="M28 63L29 64L28 63z"/>
<path style="fill:#fb9e5e; stroke:none;" d="M32 63L33 64L32 63z"/>
<path style="fill:#dad3ce; stroke:none;" d="M67 63L68 64L67 63z"/>
<path style="fill:#fdc198; stroke:none;" d="M71 63L72 64L71 63M94 63L95 64L94 63z"/>
<path style="fill:#dad3ce; stroke:none;" d="M100 63L101 64L100 63z"/>
<path style="fill:#fdc198; stroke:none;" d="M134 63L135 64L134 63z"/>
<path style="fill:#dad3ce; stroke:none;" d="M184 63L185 64L184 63z"/>
<path style="fill:#fdc198; stroke:none;" d="M204 63L205 64L204 63M242 63L242 67L243 67L242 63z"/>
<path style="fill:#fb9e5e; stroke:none;" d="M273 63L274 64L273 63z"/>
<path style="fill:#dad3ce; stroke:none;" d="M277.333 63.6667L277.667 64.3333L277.333 63.6667z"/>
<path style="fill:#fb9e5e; stroke:none;" d="M29 64L30 65L29 64z"/>
<path style="fill:#fdc198; stroke:none;" d="M33 64L34 65L33 64z"/>
<path style="fill:#fb9e5e; stroke:none;" d="M52 64L52 67L53 67L52 64M55 64L55 67L56 67L55 64M71 64L72 65L71 64M93 64L94 65L93 64M98 64L99 65L98 64z"/>
<path style="fill:#fdc198; stroke:none;" d="M130 64L131 65L130 64z"/>
<path style="fill:#fb9e5e; stroke:none;" d="M167 64L168 65L167 64z"/>
<path style="fill:#fdc198; stroke:none;" d="M184 64L185 65L184 64M34 65L35 66L34 65z"/>
<path style="fill:#fb9e5e; stroke:none;" d="M68.3333 65.6667L68.6667 66.3333L68.3333 65.6667M91 65L92 66L91 65z"/>
<path style="fill:#fdc198; stroke:none;" d="M97 65L98 66L97 65z"/>
<path style="fill:#fb9e5e; stroke:none;" d="M184 65L185 66L184 65M203 65L204 66L203 65z"/>
<path style="fill:#fffefe; stroke:none;" d="M218 65L219 66L218 65z"/>
<path style="fill:#fdc198; stroke:none;" d="M219 65L218 67L219 65M274 65L275 66L274 65M277 65L276 71L277 65M30 66L31 67L30 66z"/>
<path style="fill:#fb9e5e; stroke:none;" d="M36 66L37 67L36 66z"/>
<path style="fill:#dad3ce; stroke:none;" d="M37 66L38 67L37 66z"/>
<path style="fill:#fdc198; stroke:none;" d="M89 66L90 67L89 66M96 66L97 67L96 66M129 66L130 67L129 66z"/>
<path style="fill:#fb9e5e; stroke:none;" d="M134 66L135 67L134 66M146 66L147 67L146 66z"/>
<path style="fill:#fdc198; stroke:none;" d="M147 66L146 68L147 66M203.333 66.6667L203.667 67.3333L203.333 66.6667M216 66L216 74L217 74L216 66z"/>
<path style="fill:#fb9e5e; stroke:none;" d="M219 66L220 67L219 66z"/>
<path style="fill:#dad3ce; stroke:none;" d="M235.333 66.6667L235.667 67.3333L235.333 66.6667z"/>
<path style="fill:#fb9e5e; stroke:none;" d="M274 66L275 67L274 66M31 67L32 68L31 67M38 67L39 68L38 67z"/>
<path style="fill:#fdc198; stroke:none;" d="M39 67L40 68L39 67M52 67L53 68L52 67M56 67L57 68L56 67z"/>
<path style="fill:#dad3ce; stroke:none;" d="M67 67L68 68L67 67z"/>
<path style="fill:#fb9e5e; stroke:none;" d="M71 67L72 68L71 67M87 67L88 68L87 67M94 67L95 68L94 67M129 67L130 68L129 67z"/>
<path style="fill:#dad3ce; stroke:none;" d="M147 67L148 68L147 67z"/>
<path style="fill:#fdc198; stroke:none;" d="M168.333 67.6667L168.667 68.3333L168.333 67.6667M183.333 67.6667L183.667 68.3333L183.333 67.6667z"/>
<path style="fill:#fb9e5e; stroke:none;" d="M242 67L242 71L243 71L242 67z"/>
<path style="fill:#dad3ce; stroke:none;" d="M275 67L276 68L275 67z"/>
<path style="fill:#fdc198; stroke:none;" d="M32 68L33 69L32 68z"/>
<path style="fill:#fb9e5e; stroke:none;" d="M33 68L34 69L33 68z"/>
<path style="fill:#fdc198; stroke:none;" d="M41 68L42 69L41 68z"/>
<path style="fill:#fb9e5e; stroke:none;" d="M67 68L68 69L67 68z"/>
<path style="fill:#dad3ce; stroke:none;" d="M71 68L72 69L71 68z"/>
<path style="fill:#fdc198; stroke:none;" d="M84 68L85 69L84 68z"/>
<path style="fill:#fb9e5e; stroke:none;" d="M85 68L86 69L85 68M92 68L93 69L92 68z"/>
<path style="fill:#dad3ce; stroke:none;" d="M93 68L94 69L93 68z"/>
<path style="fill:#fb9e5e; stroke:none;" d="M160 68L161 69L160 68z"/>
<path style="fill:#fdc198; stroke:none;" d="M235 68L235 78L236 78L235 68z"/>
<path style="fill:#fb9e5e; stroke:none;" d="M275 68L276 69L275 68z"/>
<path style="fill:#dad3ce; stroke:none;" d="M295.333 68.6667L295.667 69.3333L295.333 68.6667M34 69L35 70L34 69z"/>
<path style="fill:#fb9e5e; stroke:none;" d="M35 69L36 70L35 69M43 69L44 70L43 69z"/>
<path style="fill:#dad3ce; stroke:none;" d="M44 69L45 70L44 69z"/>
<path style="fill:#fdc198; stroke:none;" d="M53 69L54 70L53 69z"/>
<path style="fill:#fb9e5e; stroke:none;" d="M57 69L58 70L57 69z"/>
<path style="fill:#fdc198; stroke:none;" d="M66 69L67 70L66 69z"/>
<path style="fill:#fb9e5e; stroke:none;" d="M70 69L71 70L70 69z"/>
<path style="fill:#fdc198; stroke:none;" d="M80.6667 69.3333L81.3333 69.6667L80.6667 69.3333z"/>
<path style="fill:#fb9e5e; stroke:none;" d="M82 69L83 70L82 69M90 69L91 70L90 69z"/>
<path style="fill:#fdc198; stroke:none;" d="M91 69L92 70L91 69M128 69L129 70L128 69z"/>
<path style="fill:#fb9e5e; stroke:none;" d="M146 69L147 70L146 69z"/>
<path style="fill:#fdc198; stroke:none;" d="M148 69L149 70L148 69z"/>
<path style="fill:#fb9e5e; stroke:none;" d="M149.333 69.6667L149.667 70.3333L149.333 69.6667M168.333 69.6667L168.667 70.3333L168.333 69.6667M183 69L184 70L183 69z"/>
<path style="fill:#fdc198; stroke:none;" d="M37 70L38 71L37 70z"/>
<path style="fill:#fb9e5e; stroke:none;" d="M45 70L46 71L45 70M54 70L55 71L54 70z"/>
<path style="fill:#dad3ce; stroke:none;" d="M58 70L59 71L58 70z"/>
<path style="fill:#fb9e5e; stroke:none;" d="M66 70L67 71L66 70z"/>
<path style="fill:#fdc198; stroke:none;" d="M78 70L79 71L78 70z"/>
<path style="fill:#fb9e5e; stroke:none;" d="M88 70L89 71L88 70z"/>
<path style="fill:#fdc198; stroke:none;" d="M89 70L90 71L89 70z"/>
<path style="fill:#fffefe; stroke:none;" d="M148 70L144 86L151 86L148 70z"/>
<path style="fill:#fb9e5e; stroke:none;" d="M202 70L203 71L202 70M254 70L255 71L254 70z"/>
<path style="fill:#fdc198; stroke:none;" d="M39 71L40 72L39 71z"/>
<path style="fill:#fb9e5e; stroke:none;" d="M40 71L41 72L40 71M46 71L47 72L46 71z"/>
<path style="fill:#dad3ce; stroke:none;" d="M54 71L55 72L54 71z"/>
<path style="fill:#fb9e5e; stroke:none;" d="M58 71L59 72L58 71z"/>
<path style="fill:#fdc198; stroke:none;" d="M65 71L66 72L65 71M69 71L70 72L69 71M77 71L78 72L77 71z"/>
<path style="fill:#fb9e5e; stroke:none;" d="M85 71L86 72L85 71z"/>
<path style="fill:#fdc198; stroke:none;" d="M86 71L87 72L86 71M127 71L128 72L127 71z"/>
<path style="fill:#fb9e5e; stroke:none;" d="M144 71L146 73L146 71L144 71M147 71L148 72L147 71z"/>
<path style="fill:#fdc198; stroke:none;" d="M149.333 71.6667L149.667 72.3333L149.333 71.6667z"/>
<path style="fill:#dad3ce; stroke:none;" d="M182 71L183 72L182 71z"/>
<path style="fill:#fdc198; stroke:none;" d="M202.333 71.6667L202.667 72.3333L202.333 71.6667z"/>
<path style="fill:#fb9e5e; stroke:none;" d="M259 71L260 72L259 71M276.667 71.3333L277.333 71.6667L276.667 71.3333z"/>
<path style="fill:#dad3ce; stroke:none;" d="M41 72L42 73L41 72z"/>
<path style="fill:#fb9e5e; stroke:none;" d="M42 72L43 73L42 72z"/>
<path style="fill:#dad3ce; stroke:none;" d="M47 72L48 73L47 72z"/>
<path style="fill:#fb9e5e; stroke:none;" d="M55 72L56 73L55 72z"/>
<path style="fill:#fdc198; stroke:none;" d="M59 72L60 73L59 72z"/>
<path style="fill:#fb9e5e; stroke:none;" d="M68 72L69 73L68 72M77 72L78 73L77 72M82 72L83 73L82 72z"/>
<path style="fill:#fdc198; stroke:none;" d="M83 72L84 73L83 72z"/>
<path style="fill:#dad3ce; stroke:none;" d="M84 72L85 73L84 72z"/>
<path style="fill:#fb9e5e; stroke:none;" d="M127 72L128 73L127 72z"/>
<path style="fill:#fffefe; stroke:none;" d="M144 72L145 73L144 72z"/>
<path style="fill:#fdc198; stroke:none;" d="M147 72L148 73L147 72z"/>
<path style="fill:#dad3ce; stroke:none;" d="M169 72L170 73L169 72z"/>
<path style="fill:#fdc198; stroke:none;" d="M182.333 72.6667L182.667 73.3333L182.333 72.6667z"/>
<path style="fill:#dad3ce; stroke:none;" d="M43 73L44 74L43 73z"/>
<path style="fill:#fb9e5e; stroke:none;" d="M47 73L48 74L47 73M64 73L65 74L64 73z"/>
<path style="fill:#fdc198; stroke:none;" d="M68 73L69 74L68 73M76 73L77 74L76 73M80 73L81 74L80 73z"/>
<path style="fill:#fb9e5e; stroke:none;" d="M143 73L144 74L143 73z"/>
<path style="fill:#dad3ce; stroke:none;" d="M144 73L143 75L144 73M147 73L148 74L147 73z"/>
<path style="fill:#fb9e5e; stroke:none;" d="M158 73L159 74L158 73z"/>
<path style="fill:#fdc198; stroke:none;" d="M169 73L170 74L169 73z"/>
<path style="fill:#fb9e5e; stroke:none;" d="M183 73L184 74L183 73z"/>
<path style="fill:#dad3ce; stroke:none;" d="M202 73L203 74L202 73z"/>
<path style="fill:#fb9e5e; stroke:none;" d="M217 73L216 80L217 80L217 75L220 77L219 73L217 73M44 74L45 75L44 74z"/>
<path style="fill:#fdc198; stroke:none;" d="M48 74L49 75L48 74M56 74L57 75L56 74M60 74L61 75L60 74M64 74L65 75L64 74z"/>
<path style="fill:#fb9e5e; stroke:none;" d="M67 74L68 75L67 74z"/>
<path style="fill:#fdc198; stroke:none;" d="M126 74L127 75L126 74M144 74L145 75L144 74z"/>
<path style="fill:#fb9e5e; stroke:none;" d="M146.333 74.6667L146.667 75.3333L146.333 74.6667M169.333 74.6667L169.667 75.3333L169.333 74.6667M182.333 74.6667L182.667 75.3333L182.333 74.6667M221 74L223 76L221 74M258 74L258 76L260 74L258 74M48 75L49 76L48 75M57 75L58 76L57 75z"/>
<path style="fill:#fdc198; stroke:none;" d="M65 75L66 76L65 75z"/>
<path style="fill:#fb9e5e; stroke:none;" d="M66 75L67 76L66 75M75 75L76 76L75 75z"/>
<path style="fill:#fdc198; stroke:none;" d="M79 75L80 76L79 75z"/>
<path style="fill:#fb9e5e; stroke:none;" d="M126 75L127 76L126 75M142 75L144 77L142 75z"/>
<path style="fill:#fffefe; stroke:none;" d="M143 75L144 76L143 75z"/>
<path style="fill:#fb9e5e; stroke:none;" d="M150 75L151 76L150 75z"/>
<path style="fill:#fdc198; stroke:none;" d="M217 75L218 76L217 75z"/>
<path style="fill:#dad3ce; stroke:none;" d="M241.333 75.6667L241.667 76.3333L241.333 75.6667z"/>
<path style="fill:#fb9e5e; stroke:none;" d="M266.333 75.6667L266.667 76.3333L266.333 75.6667z"/>
<path style="fill:#fdc198; stroke:none;" d="M45 76L46 77L45 76M49 76L50 77L49 76M57 76L58 77L57 76z"/>
<path style="fill:#fb9e5e; stroke:none;" d="M61 76L62 77L61 76z"/>
<path style="fill:#dad3ce; stroke:none;" d="M74 76L75 77L74 76z"/>
<path style="fill:#fb9e5e; stroke:none;" d="M78 76L79 77L78 76z"/>
<path style="fill:#dad3ce; stroke:none;" d="M125 76L126 77L125 76M142 76L143 77L142 76z"/>
<path style="fill:#fdc198; stroke:none;" d="M146 76L147 77L146 76M150.333 76.6667L150.667 77.3333L150.333 76.6667z"/>
<path style="fill:#fb9e5e; stroke:none;" d="M201 76L201 80L202 80L201 76z"/>
<path style="fill:#f97316; stroke:none;" d="M217 76L217 79L219 79L219 76L217 76z"/>
<path style="fill:#fb9e5e; stroke:none;" d="M227 76L226 77L227 80L228 80L227 76M256 76L257 77L256 76M58 77L59 78L58 77z"/>
<path style="fill:#dad3ce; stroke:none;" d="M62 77L63 78L62 77z"/>
<path style="fill:#fb9e5e; stroke:none;" d="M74 77L75 78L74 77z"/>
<path style="fill:#dad3ce; stroke:none;" d="M78 77L79 78L78 77z"/>
<path style="fill:#fb9e5e; stroke:none;" d="M125 77L126 78L125 77M141 77L142 78L141 77z"/>
<path style="fill:#fffefe; stroke:none;" d="M142 77L143 78L142 77M219 77L220 78L219 77z"/>
<path style="fill:#fb9e5e; stroke:none;" d="M233 77L232 83L231 83L231 81L230 81L229 86L233 86L233 77z"/>
<path style="fill:#fdc198; stroke:none;" d="M241 77L241 82L242 82L241 77z"/>
<path style="fill:#fb9e5e; stroke:none;" d="M253 77L256 81L253 77M258 77L258 78L261 78L258 77z"/>
<path style="fill:#fdc198; stroke:none;" d="M46 78L47 79L46 78z"/>
<path style="fill:#fb9e5e; stroke:none;" d="M50 78L51 79L50 78M62 78L63 79L62 78z"/>
<path style="fill:#fdc198; stroke:none;" d="M73 78L74 79L73 78z"/>
<path style="fill:#fb9e5e; stroke:none;" d="M77 78L78 79L77 78z"/>
<path style="fill:#fdc198; stroke:none;" d="M141 78L143 80L141 78z"/>
<path style="fill:#dad3ce; stroke:none;" d="M142 78L143 79L142 78z"/>
<path style="fill:#fb9e5e; stroke:none;" d="M145 78L146 79L145 78z"/>
<path style="fill:#dad3ce; stroke:none;" d="M150 78L151 79L150 78z"/>
<path style="fill:#fdc198; stroke:none;" d="M170.333 78.6667L170.667 79.3333L170.333 78.6667z"/>
<path style="fill:#fb9e5e; stroke:none;" d="M182 78L182 86L183 86L182 78M219.667 78.3333L220.333 78.6667L219.667 78.3333z"/>
<path style="fill:#dad3ce; stroke:none;" d="M227 78L228 79L227 78M235 78L236 79L235 78M260 78L261 79L260 78z"/>
<path style="fill:#fb9e5e; stroke:none;" d="M294 78L292 88L292 89L292 90L294 101L295 101L294 78M47 79L48 80L47 79z"/>
<path style="fill:#dad3ce; stroke:none;" d="M51 79L52 80L51 79z"/>
<path style="fill:#fb9e5e; stroke:none;" d="M59 79L60 80L59 79z"/>
<path style="fill:#fdc198; stroke:none;" d="M63 79L64 80L63 79M124 79L125 80L124 79z"/>
<path style="fill:#dad3ce; stroke:none;" d="M141 79L142 80L141 79z"/>
<path style="fill:#fdc198; stroke:none;" d="M145 79L146 80L145 79z"/>
<path style="fill:#fb9e5e; stroke:none;" d="M153 79L154 80L153 79M156 79L156 81L158 79L156 79z"/>
<path style="fill:#fdc198; stroke:none;" d="M217 79L217 80L218 82L219 82L220 82L217 79M229 79L229 80L232 81L232 80L232 79L229 79z"/>
<path style="fill:#fb9e5e; stroke:none;" d="M230 79L231 80L230 79M261 79L262 80L261 79M267 79L269 82L267 79z"/>
<path style="fill:#dad3ce; stroke:none;" d="M47 80L48 81L47 80z"/>
<path style="fill:#fb9e5e; stroke:none;" d="M51 80L52 81L51 80z"/>
<path style="fill:#fdc198; stroke:none;" d="M72 80L73 81L72 80M76 80L77 81L76 80z"/>
<path style="fill:#fb9e5e; stroke:none;" d="M124 80L125 81L124 80z"/>
<path style="fill:#fffefe; stroke:none;" d="M141 80L142 81L141 80M157 80L158 81L157 80z"/>
<path style="fill:#fb9e5e; stroke:none;" d="M161 80L160 84L156 84L156 85L164 83L161 80M170.333 80.6667L170.667 81.3333L170.333 80.6667z"/>
<path style="fill:#fdc198; stroke:none;" d="M201 80L201 88L202 88L201 80z"/>
<path style="fill:#f97316; stroke:none;" d="M216 80L217 81L216 80z"/>
<path style="fill:#dad3ce; stroke:none;" d="M217 80L218 81L217 80z"/>
<path style="fill:#fffefe; stroke:none;" d="M218 80L219 81L218 80z"/>
<path style="fill:#dad3ce; stroke:none;" d="M229 80L230 81L229 80z"/>
<path style="fill:#fdc198; stroke:none;" d="M261 80L262 81L261 80M268 80L269 81L268 80z"/>
<path style="fill:#fb9e5e; stroke:none;" d="M48 81L49 82L48 81z"/>
<path style="fill:#fdc198; stroke:none;" d="M52 81L53 82L52 81M60 81L61 82L60 81M64 81L65 82L64 81z"/>
<path style="fill:#fb9e5e; stroke:none;" d="M75 81L76 82L75 81z"/>
<path style="fill:#fdc198; stroke:none;" d="M140 81L141 82L140 81z"/>
<path style="fill:#dad3ce; stroke:none;" d="M141 81L142 82L141 81z"/>
<path style="fill:#fb9e5e; stroke:none;" d="M144 81L145 82L144 81M151 81L151 84L152 84L151 81M216 81L217 82L216 81M227 81L229 84L227 81z"/>
<path style="fill:#fffefe; stroke:none;" d="M228 81L230 83L230 81L228 81z"/>
<path style="fill:#f97316; stroke:none;" d="M231.333 81.6667L231.667 82.3333L231.333 81.6667z"/>
<path style="fill:#fb9e5e; stroke:none;" d="M234 81L233 85L234 85L234 81M263.667 81.3333L264.333 81.6667L263.667 81.3333M61 82L62 83L61 82M71 82L72 83L71 82z"/>
<path style="fill:#fdc198; stroke:none;" d="M75 82L76 83L75 82M123 82L124 83L123 82z"/>
<path style="fill:#fb9e5e; stroke:none;" d="M136 82L135 84L137 84L136 82M139 82L140 83L139 82z"/>
<path style="fill:#fffefe; stroke:none;" d="M140 82L139 85L140 82z"/>
<path style="fill:#fb9e5e; stroke:none;" d="M141 82L142 83L141 82z"/>
<path style="fill:#fdc198; stroke:none;" d="M144 82L145 83L144 82M158 82L159 83L158 82M162 82L161 85L162 82z"/>
<path style="fill:#dad3ce; stroke:none;" d="M215 82L216 83L215 82z"/>
<path style="fill:#fb9e5e; stroke:none;" d="M217 84L220 82L217 84M222 82L225 85L222 90L225 90C225.072 86.2959 225.342 84.0178 222 82z"/>
<path style="fill:#dad3ce; stroke:none;" d="M228 82L229 83L228 82z"/>
<path style="fill:#fb9e5e; stroke:none;" d="M241 82L241 87L242 87L241 82M253.667 82.3333L254.333 82.6667L253.667 82.3333M262 82L263 83L262 82z"/>
<path style="fill:#fdc198; stroke:none;" d="M49 83L50 84L49 83M53 83L54 84L53 83z"/>
<path style="fill:#dad3ce; stroke:none;" d="M61 83L62 84L61 83z"/>
<path style="fill:#fb9e5e; stroke:none;" d="M65 83L66 84L65 83z"/>
<path style="fill:#dad3ce; stroke:none;" d="M70 83L71 84L70 83z"/>
<path style="fill:#fb9e5e; stroke:none;" d="M74 83L75 84L74 83M123 83L124 84L123 83z"/>
<path style="fill:#dad3ce; stroke:none;" d="M144 83L145 84L144 83z"/>
<path style="fill:#fffefe; stroke:none;" d="M161 83L162 84L161 83z"/>
<path style="fill:#dad3ce; stroke:none;" d="M171 83L172 84L171 83z"/>
<path style="fill:#fdc198; stroke:none;" d="M215.333 83.6667L215.667 84.3333L215.333 83.6667M228 86L231 83L228 86z"/>
<path style="fill:#fb9e5e; stroke:none;" d="M251 83L252 84L251 83z"/>
<path style="fill:#fdc198; stroke:none;" d="M252 83L253 84L252 83M257 83L258 84L257 83z"/>
<path style="fill:#dad3ce; stroke:none;" d="M262 83L263 84L262 83z"/>
<path style="fill:#fb9e5e; stroke:none;" d="M50 84L51 85L50 84M62 84L63 85L62 84z"/>
<path style="fill:#fdc198; stroke:none;" d="M66 84L67 85L66 84z"/>
<path style="fill:#fb9e5e; stroke:none;" d="M70 84L71 85L70 84M140 84L141 85L140 84M143 84L144 85L143 84z"/>
<path style="fill:#fdc198; stroke:none;" d="M151.333 84.6667L151.667 85.3333L151.333 84.6667M157 84L158 85L157 84z"/>
<path style="fill:#fb9e5e; stroke:none;" d="M163 84L162 86L164 86L163 84z"/>
<path style="fill:#fdc198; stroke:none;" d="M171 84L172 85L171 84z"/>
<path style="fill:#fffefe; stroke:none;" d="M228 84L229 85L228 84z"/>
<path style="fill:#fdc198; stroke:none;" d="M234 84L234 87L235 87L234 84z"/>
<path style="fill:#fb9e5e; stroke:none;" d="M263 84L264 85L263 84M269 84L266 87L266 88L269 84z"/>
<path style="fill:#dad3ce; stroke:none;" d="M50 85L51 86L50 85z"/>
<path style="fill:#fb9e5e; stroke:none;" d="M54 85L55 86L54 85M66 85L67 86L66 85z"/>
<path style="fill:#dad3ce; stroke:none;" d="M69 85L70 86L69 85z"/>
<path style="fill:#fdc198; stroke:none;" d="M73 85L74 86L73 85M122 85L123 86L122 85z"/>
<path style="fill:#fb9e5e; stroke:none;" d="M138 85L140 87L138 85z"/>
<path style="fill:#dad3ce; stroke:none;" d="M139 85L140 86L139 85z"/>
<path style="fill:#fdc198; stroke:none;" d="M143 85L144 86L143 85z"/>
<path style="fill:#fb9e5e; stroke:none;" d="M171.333 85.6667L171.667 86.3333L171.333 85.6667M215.333 85.6667L215.667 86.3333L215.333 85.6667M217 85L218 86L217 85M220 85L221 86L220 85z"/>
<path style="fill:#fdc198; stroke:none;" d="M231 85L232 86L231 85z"/>
<path style="fill:#fb9e5e; stroke:none;" d="M259 85L259 101L260 101L259 85z"/>
<path style="fill:#fdc198; stroke:none;" d="M263 85L264 86L263 85z"/>
<path style="fill:#fb9e5e; stroke:none;" d="M271 85L273 88L271 85M51 86L52 87L51 86z"/>
<path style="fill:#dad3ce; stroke:none;" d="M55 86L56 87L55 86z"/>
<path style="fill:#fdc198; stroke:none;" d="M63 86L64 87L63 86M67 86L68 87L67 86z"/>
<path style="fill:#fb9e5e; stroke:none;" d="M122 86L123 87L122 86z"/>
<path style="fill:#dad3ce; stroke:none;" d="M138 86L139 87L138 86z"/>
<path style="fill:#fb9e5e; stroke:none;" d="M143 86L143 87L151 87L143 86z"/>
<path style="fill:#fdc198; stroke:none;" d="M217 86L218 87L217 86z"/>
<path style="fill:#dad3ce; stroke:none;" d="M218 86L219 87L218 86z"/>
<path style="fill:#fb9e5e; stroke:none;" d="M280 86L281 87L280 86M55 87L56 88L55 87z"/>
<path style="fill:#dad3ce; stroke:none;" d="M70 87L71 88L70 87z"/>
<path style="fill:#fdc198; stroke:none;" d="M71 87L72 88L71 87z"/>
<path style="fill:#fb9e5e; stroke:none;" d="M137.333 87.6667L137.667 88.3333L137.333 87.6667z"/>
<path style="fill:#fffefe; stroke:none;" d="M138 87L139 88L138 87z"/>
<path style="fill:#fb9e5e; stroke:none;" d="M156 87L157 88L156 87z"/>
<path style="fill:#dad3ce; stroke:none;" d="M181 87L182 88L181 87z"/>
<path style="fill:#fb9e5e; stroke:none;" d="M183.333 87.6667L183.667 88.3333L183.333 87.6667M226 87L227 88L226 87z"/>
<path style="fill:#fdc198; stroke:none;" d="M227.667 87.3333L228.333 87.6667L227.667 87.3333z"/>
<path style="fill:#fb9e5e; stroke:none;" d="M231 87L232 88L231 87M250 87L254 93L255 93L254 87L253 87L252 89L250 87z"/>
<path style="fill:#fdc198; stroke:none;" d="M264 87L265 88L264 87M52 88L53 89L52 88M56 88L57 89L56 88M64 88L65 89L64 88z"/>
<path style="fill:#fb9e5e; stroke:none;" d="M68 88L69 89L68 88z"/>
<path style="fill:#fdc198; stroke:none;" d="M121 88L122 89L121 88M138 88L139 89L138 88M159 88L161 90L159 88z"/>
<path style="fill:#fb9e5e; stroke:none;" d="M160 88L161 89L160 88z"/>
<path style="fill:#fdc198; stroke:none;" d="M181 88L182 89L181 88z"/>
<path style="fill:#dad3ce; stroke:none;" d="M201.333 88.6667L201.667 89.3333L201.333 88.6667M214 88L215 89L214 88z"/>
<path style="fill:#fb9e5e; stroke:none;" d="M217 88L217 89L221 90L217 88z"/>
<path style="fill:#fdc198; stroke:none;" d="M252 88L253 89L252 88z"/>
<path style="fill:#dad3ce; stroke:none;" d="M264 88L265 89L264 88z"/>
<path style="fill:#fdc198; stroke:none;" d="M294 88L295 89L294 88z"/>
<path style="fill:#fb9e5e; stroke:none;" d="M65 89L66 90L65 89z"/>
<path style="fill:#dad3ce; stroke:none;" d="M69 89L70 90L69 89z"/>
<path style="fill:#fb9e5e; stroke:none;" d="M121 89L122 90L121 89M159 89L160 90L159 89z"/>
<path style="fill:#fdc198; stroke:none;" d="M172.333 89.6667L172.667 90.3333L172.333 89.6667z"/>
<path style="fill:#fb9e5e; stroke:none;" d="M181 89L183 91L181 89z"/>
<path style="fill:#fdc198; stroke:none;" d="M214 89L215 90L214 89M216 89L216 90L220 90L216 89z"/>
<path style="fill:#dad3ce; stroke:none;" d="M223 89L224 90L223 89z"/>
<path style="fill:#fb9e5e; stroke:none;" d="M226 89L227 95L228 95C227.113 92.4767 225.963 91.3919 229 91L226 89z"/>
<path style="fill:#fdc198; stroke:none;" d="M227 89L228 90L227 89M229 89L229 92C231.006 90.8734 231.006 90.1266 229 89z"/>
<path style="fill:#fb9e5e; stroke:none;" d="M232 89L232 91L234 89L232 89z"/>
<path style="fill:#dad3ce; stroke:none;" d="M294 89L295 90L294 89z"/>
<path style="fill:#fdc198; stroke:none;" d="M53 90L54 91L53 90z"/>
<path style="fill:#fb9e5e; stroke:none;" d="M57 90L58 91L57 90z"/>
<path style="fill:#dad3ce; stroke:none;" d="M65 90L66 91L65 90z"/>
<path style="fill:#fb9e5e; stroke:none;" d="M69 90L70 91L69 90M157 90L158 91L157 90z"/>
<path style="fill:#fdc198; stroke:none;" d="M181 90L181 93L182 93L181 90z"/>
<path style="fill:#fb9e5e; stroke:none;" d="M186 90L186 98L186 90z"/>
<path style="fill:#dad3ce; stroke:none;" d="M187 90L188 91L187 90z"/>
<path style="fill:#fdc198; stroke:none;" d="M201 90L201 94L202 94L201 90z"/>
<path style="fill:#fb9e5e; stroke:none;" d="M214 90L215 91L214 90z"/>
<path style="fill:#dad3ce; stroke:none;" d="M229 90L230 91L229 90z"/>
<path style="fill:#fdc198; stroke:none;" d="M233.333 90.6667L233.667 91.3333L233.333 90.6667z"/>
<path style="fill:#fb9e5e; stroke:none;" d="M265 90L266 91L265 90M269 90L270 91L269 90M280 90L281 91L280 90M54 91L55 92L54 91z"/>
<path style="fill:#dad3ce; stroke:none;" d="M58 91L59 92L58 91z"/>
<path style="fill:#fb9e5e; stroke:none;" d="M66 91L67 92L66 91z"/>
<path style="fill:#fdc198; stroke:none;" d="M70 91L71 92L70 91z"/>
<path style="fill:#dad3ce; stroke:none;" d="M120 91L121 92L120 91z"/>
<path style="fill:#fb9e5e; stroke:none;" d="M172.333 91.6667L172.667 92.3333L172.333 91.6667z"/>
<path style="fill:#fffefe; stroke:none;" d="M187 91L188 92L187 91z"/>
<path style="fill:#fb9e5e; stroke:none;" d="M222.667 91.3333L223.333 91.6667L222.667 91.3333z"/>
<path style="fill:#fffefe; stroke:none;" d="M224 91L225 94L224 91z"/>
<path style="fill:#dad3ce; stroke:none;" d="M228 91L229 92L228 91M240.333 91.6667L240.667 92.3333L240.333 91.6667M265 91L266 92L265 91z"/>
<path style="fill:#fb9e5e; stroke:none;" d="M273 91L274 92L273 91z"/>
<path style="fill:#dad3ce; stroke:none;" d="M54 92L55 93L54 92z"/>
<path style="fill:#fb9e5e; stroke:none;" d="M58 92L59 93L58 92z"/>
<path style="fill:#fdc198; stroke:none;" d="M120 92L121 93L120 92M213 92L214 93L213 92z"/>
<path style="fill:#fb9e5e; stroke:none;" d="M219 92L220 93L219 92z"/>
<path style="fill:#dad3ce; stroke:none;" d="M222 92L223 93L222 92z"/>
<path style="fill:#fb9e5e; stroke:none;" d="M228 92L231 94L228 92z"/>
<path style="fill:#dad3ce; stroke:none;" d="M230 92L231 93L230 92M233 92L234 93L233 92z"/>
<path style="fill:#fb9e5e; stroke:none;" d="M266 92L267 93L266 92M270 92L271 93L270 92M55 93L56 94L55 93z"/>
<path style="fill:#fdc198; stroke:none;" d="M59 93L60 94L59 93M67 93L68 94L67 93M71 93L72 94L71 93z"/>
<path style="fill:#fb9e5e; stroke:none;" d="M120 93L121 94L120 93z"/>
<path style="fill:#dad3ce; stroke:none;" d="M157 93L158 94L157 93z"/>
<path style="fill:#fb9e5e; stroke:none;" d="M158 93L159 94L158 93z"/>
<path style="fill:#dad3ce; stroke:none;" d="M181 93L182 94L181 93z"/>
<path style="fill:#fb9e5e; stroke:none;" d="M213 93L214 94L213 93M223 93L221 96L221 97L225 97L223 93z"/>
<path style="fill:#fdc198; stroke:none;" d="M240 93L240 99L241 99L240 93M266 93L267 94L266 93z"/>
<path style="fill:#fb9e5e; stroke:none;" d="M268 93L269 94L268 93M68 94L69 95L68 94M157 94L158 95L157 94z"/>
<path style="fill:#dad3ce; stroke:none;" d="M173 94L174 95L173 94z"/>
<path style="fill:#fb9e5e; stroke:none;" d="M201.333 94.6667L201.667 95.3333L201.333 94.6667M221 94L222 95L221 94z"/>
<path style="fill:#fdc198; stroke:none;" d="M222 94L221 96L222 94z"/>
<path style="fill:#fb9e5e; stroke:none;" d="M232 94L233 95L232 94M270 94L271 95L270 94z"/>
<path style="fill:#fdc198; stroke:none;" d="M273 94L275 96L273 94z"/>
<path style="fill:#fb9e5e; stroke:none;" d="M274 94L275 95L274 94z"/>
<path style="fill:#dad3ce; stroke:none;" d="M51 95L52 96L51 95z"/>
<path style="fill:#fb9e5e; stroke:none;" d="M52.6667 95.3333L53.3333 95.6667L52.6667 95.3333z"/>
<path style="fill:#fdc198; stroke:none;" d="M56 95L57 96L56 95M60 95L61 96L60 95M68 95L69 96L68 95z"/>
<path style="fill:#fb9e5e; stroke:none;" d="M72 95L73 96L72 95z"/>
<path style="fill:#fdc198; stroke:none;" d="M119 95L120 96L119 95M173.333 95.6667L173.667 96.3333L173.333 95.6667z"/>
<path style="fill:#dad3ce; stroke:none;" d="M212 95L213 96L212 95z"/>
<path style="fill:#fffefe; stroke:none;" d="M222 95L223 96L222 95z"/>
<path style="fill:#fdc198; stroke:none;" d="M224 95L225 96L224 95z"/>
<path style="fill:#fb9e5e; stroke:none;" d="M229 95L228 98L229 98L229 95z"/>
<path style="fill:#fdc198; stroke:none;" d="M232 95L233 96L232 95z"/>
<path style="fill:#fb9e5e; stroke:none;" d="M253 95L254 96L253 95M267 95L268 96L267 95M273 95L274 96L273 95M271 97L271 98L277 95L271 97z"/>
<path style="fill:#f97316; stroke:none;" d="M51 96C43.5454 113.3 24.4511 131.26 22 150C41.5121 153.62 54.3757 121.373 61 106C43.4167 111.411 46.5365 147.479 25 148C34.449 131.977 48.8399 113.878 54 96L51 96z"/>
<path style="fill:#fdc198; stroke:none;" d="M54.3333 96.6667L54.6667 97.3333L54.3333 96.6667z"/>
<path style="fill:#fb9e5e; stroke:none;" d="M57 96L58 97L57 96M69 96L70 97L69 96z"/>
<path style="fill:#dad3ce; stroke:none;" d="M73 96L74 97L73 96z"/>
<path style="fill:#fb9e5e; stroke:none;" d="M119 96L120 97L119 96M158.333 96.6667L158.667 97.3333L158.333 96.6667M182 96L183 97L182 96z"/>
<path style="fill:#fdc198; stroke:none;" d="M186 96L187 97L186 96z"/>
<path style="fill:#fb9e5e; stroke:none;" d="M212 96L213 97L212 96z"/>
<path style="fill:#fdc198; stroke:none;" d="M229 96L230 97L229 96M259.333 96.6667L259.667 97.3333L259.333 96.6667M267 96L268 97L267 96z"/>
<path style="fill:#fb9e5e; stroke:none;" d="M269 96L270 97L269 96M277 96L278 97L277 96z"/>
<path style="fill:#fdc198; stroke:none;" d="M50 97L51 98L50 97M57 97L58 98L57 97z"/>
<path style="fill:#fb9e5e; stroke:none;" d="M61 97L62 98L61 97M73 97L74 98L73 97M137 97L137 99L139 99L139 97L137 97M162 97L163 98L162 97z"/>
<path style="fill:#fffefe; stroke:none;" d="M163 97L164 98L163 97z"/>
<path style="fill:#fb9e5e; stroke:none;" d="M164.333 97.6667L164.667 98.3333L164.333 97.6667M173 97L174 98L173 97z"/>
<path style="fill:#fdc198; stroke:none;" d="M182.333 97.6667L182.667 98.3333L182.333 97.6667M202 97L203 98L202 97z"/>
<path style="fill:#dad3ce; stroke:none;" d="M211 97L212 98L211 97z"/>
<path style="fill:#fb9e5e; stroke:none;" d="M231 97L232 98L231 97z"/>
<path style="fill:#fdc198; stroke:none;" d="M275 97L276 98L275 97z"/>
<path style="fill:#fb9e5e; stroke:none;" d="M53 98L54 99L53 98M58 98L59 99L58 98z"/>
<path style="fill:#dad3ce; stroke:none;" d="M62 98L63 99L62 98z"/>
<path style="fill:#fdc198; stroke:none;" d="M70 98L71 99L70 98M74 98L75 99L74 98M118 98L119 99L118 98z"/>
<path style="fill:#fb9e5e; stroke:none;" d="M133.667 98.3333L134.333 98.6667L133.667 98.3333z"/>
<path style="fill:#fdc198; stroke:none;" d="M163 98L164 99L163 98z"/>
<path style="fill:#fb9e5e; stroke:none;" d="M211 98L212 99L211 98z"/>
<path style="fill:#fdc198; stroke:none;" d="M231 98L232 99L231 98z"/>
<path style="fill:#fb9e5e; stroke:none;" d="M268 98L269 99L268 98M49 99L50 100L49 99z"/>
<path style="fill:#dad3ce; stroke:none;" d="M53 99L54 100L53 99z"/>
<path style="fill:#fb9e5e; stroke:none;" d="M62 99L63 100L62 99M118 99L119 100L118 99z"/>
<path style="fill:#fdc198; stroke:none;" d="M133 99L135 101L133 99z"/>
<path style="fill:#fffefe; stroke:none;" d="M134 99L135 100L134 99z"/>
<path style="fill:#dad3ce; stroke:none;" d="M135 99L136 100L135 99z"/>
<path style="fill:#fb9e5e; stroke:none;" d="M156.667 99.3333L157.333 99.6667L156.667 99.3333z"/>
<path style="fill:#fdc198; stroke:none;" d="M164 99L163 101L164 99z"/>
<path style="fill:#fffefe; stroke:none;" d="M165 99L165 103C162.13 105.864 167.431 110.905 169 114L170 114L165 99z"/>
<path style="fill:#fdc198; stroke:none;" d="M166 99L167 100L166 99z"/>
<path style="fill:#fb9e5e; stroke:none;" d="M203 99L204 100L203 99M210 99L211 100L210 99M228 99L226 102L228 99M240 99L240 104L241 104L240 99z"/>
<path style="fill:#dad3ce; stroke:none;" d="M268 99L269 100L268 99z"/>
<path style="fill:#fb9e5e; stroke:none;" d="M271.333 99.6667L271.667 100.333L271.333 99.6667M275 99L278 102L275 99M280.667 99.3333L281.333 99.6667L280.667 99.3333z"/>
<path style="fill:#fdc198; stroke:none;" d="M48 100L49 101L48 100z"/>
<path style="fill:#fb9e5e; stroke:none;" d="M52 100L53 101L52 100M59 100L60 101L59 100z"/>
<path style="fill:#fdc198; stroke:none;" d="M63 100L64 101L63 100M71 100L72 101L71 100M75 100L76 101L75 100z"/>
<path style="fill:#fb9e5e; stroke:none;" d="M135 100L136 101L135 100z"/>
<path style="fill:#dad3ce; stroke:none;" d="M165 100L166 101L165 100z"/>
<path style="fill:#fb9e5e; stroke:none;" d="M166.333 100.667L166.667 101.333L166.333 100.667z"/>
<path style="fill:#dad3ce; stroke:none;" d="M174 100L175 101L174 100z"/>
<path style="fill:#fb9e5e; stroke:none;" d="M183 100L184 101L183 100M205 100L206 101L205 100z"/>
<path style="fill:#fdc198; stroke:none;" d="M206.667 100.333L207.333 100.667L206.667 100.333z"/>
<path style="fill:#fb9e5e; stroke:none;" d="M208 100L209 101L208 100M230 100L231 101L230 100M269 100L270 101L269 100M48 101L49 102L48 101M72 101L73 102L72 101z"/>
<path style="fill:#dad3ce; stroke:none;" d="M117 101L118 102L117 101z"/>
<path style="fill:#fdc198; stroke:none;" d="M165 101L166 102L165 101M167 101L167 104L168 104L167 101M174 101L175 102L174 101M183 101L184 102L183 101M259 101L259 116L260 116L259 101M269 101L270 102L269 101z"/>
<path style="fill:#dad3ce; stroke:none;" d="M278 101L279 102L278 101z"/>
<path style="fill:#fb9e5e; stroke:none;" d="M279 101L280 102L279 101z"/>
<path style="fill:#fdc198; stroke:none;" d="M294 101L294 117L295 117L294 101M47 102L48 103L47 102M51 102L52 103L51 102M60 102L61 103L60 102M64 102L65 103L64 102z"/>
<path style="fill:#dad3ce; stroke:none;" d="M72 102L73 103L72 102z"/>
<path style="fill:#fb9e5e; stroke:none;" d="M76 102L77 103L76 102z"/>
<path style="fill:#fdc198; stroke:none;" d="M117 102L118 103L117 102z"/>
<path style="fill:#fb9e5e; stroke:none;" d="M163 102L164 103L163 102z"/>
<path style="fill:#dad3ce; stroke:none;" d="M164 102L165 103L164 102z"/>
<path style="fill:#fb9e5e; stroke:none;" d="M174.333 102.667L174.667 103.333L174.333 102.667M186 102L186 104L188 102L186 102M229 102L230 103L229 102M253 102L257 107L253 102z"/>
<path style="fill:#fdc198; stroke:none;" d="M277 102L277 103L280 103L277 102z"/>
<path style="fill:#fb9e5e; stroke:none;" d="M61 103L62 104L61 103M73 103L74 104L73 103z"/>
<path style="fill:#fdc198; stroke:none;" d="M77 103L78 104L77 103z"/>
<path style="fill:#fb9e5e; stroke:none;" d="M117 103L118 104L117 103M128 103L128 105L130 105L128 103M149 103L150 104L149 103z"/>
<path style="fill:#fdc198; stroke:none;" d="M150.667 103.333L151.333 103.667L150.667 103.333z"/>
<path style="fill:#dad3ce; stroke:none;" d="M152 103L153 104L152 103z"/>
<path style="fill:#fdc198; stroke:none;" d="M154 103L154 107L155 107L154 103z"/>
<path style="fill:#fb9e5e; stroke:none;" d="M161.667 103.333L162.333 103.667L161.667 103.333M184 103L185 104L184 103z"/>
<path style="fill:#fdc198; stroke:none;" d="M187 103L186 108L187 108L187 103z"/>
<path style="fill:#fb9e5e; stroke:none;" d="M198.667 103.333L199.333 103.667L198.667 103.333z"/>
<path style="fill:#fffefe; stroke:none;" d="M217 103L220 106L217 103z"/>
<path style="fill:#fdc198; stroke:none;" d="M218 103L219 104L218 103M223 103L223 105L225 105L223 103z"/>
<path style="fill:#fb9e5e; stroke:none;" d="M224 103L225 104L224 103z"/>
<path style="fill:#dad3ce; stroke:none;" d="M229 103L230 104L229 103z"/>
<path style="fill:#fb9e5e; stroke:none;" d="M270 103L271 104L270 103M275.333 103.667L275.667 104.333L275.333 103.667M277.667 103.333L278.333 103.667L277.667 103.333M46 104L47 105L46 104z"/>
<path style="fill:#fdc198; stroke:none;" d="M50 104L51 105L50 104z"/>
<path style="fill:#dad3ce; stroke:none;" d="M61 104L62 105L61 104z"/>
<path style="fill:#fb9e5e; stroke:none;" d="M65 104L66 105L65 104M77 104L78 105L77 104M144 104L145 105L144 104z"/>
<path style="fill:#fdc198; stroke:none;" d="M145.667 104.333L146.333 104.667L145.667 104.333z"/>
<path style="fill:#fb9e5e; stroke:none;" d="M156 104L157 105L156 104M168 104L169 105L168 104M196.333 104.667L196.667 105.333L196.333 104.667z"/>
<path style="fill:#fffefe; stroke:none;" d="M197 104L197 106L200 106L200 104L197 104z"/>
<path style="fill:#fdc198; stroke:none;" d="M217 104L218 105L217 104M220.333 104.667L220.667 105.333L220.333 104.667z"/>
<path style="fill:#fb9e5e; stroke:none;" d="M228 104L229 105L228 104z"/>
<path style="fill:#fdc198; stroke:none;" d="M270 104L271 105L270 104M274 104L275 105L274 104z"/>
<path style="fill:#dad3ce; stroke:none;" d="M45 105L46 106L45 105z"/>
<path style="fill:#fb9e5e; stroke:none;" d="M49 105L50 106L49 105M58.6667 105.333L59.3333 105.667L58.6667 105.333z"/>
<path style="fill:#dad3ce; stroke:none;" d="M60 105L61 106L60 105z"/>
<path style="fill:#fb9e5e; stroke:none;" d="M62 105L63 106L62 105z"/>
<path style="fill:#fdc198; stroke:none;" d="M66 105L67 106L66 105M74 105L75 106L74 105M78 105L79 106L78 105M116 105L117 106L116 105M128 105L128 107L130 105L128 105z"/>
<path style="fill:#fb9e5e; stroke:none;" d="M139 105L140 106L139 105z"/>
<path style="fill:#fdc198; stroke:none;" d="M140.667 105.333L141.333 105.667L140.667 105.333z"/>
<path style="fill:#fb9e5e; stroke:none;" d="M158 105L157 107L158 105M162.333 105.667L162.667 106.333L162.333 105.667M185.667 105.333L186.333 105.667L185.667 105.333M200 105L201 106L200 105z"/>
<path style="fill:#fdc198; stroke:none;" d="M218 105L219 106L218 105z"/>
<path style="fill:#fb9e5e; stroke:none;" d="M227 105L228 106L227 105M45 106L46 107L45 106z"/>
<path style="fill:#dad3ce; stroke:none;" d="M49 106L50 107L49 106z"/>
<path style="fill:#fb9e5e; stroke:none;" d="M57 106L58 107L57 106M66 106L67 107L66 106M116 106L117 107L116 106M127 106L128 107L127 106z"/>
<path style="fill:#fdc198; stroke:none;" d="M137 106L138 107L137 106z"/>
<path style="fill:#dad3ce; stroke:none;" d="M163 106L164 107L163 106z"/>
<path style="fill:#fb9e5e; stroke:none;" d="M168 106L169 107L168 106z"/>
<path style="fill:#fdc198; stroke:none;" d="M175.333 106.667L175.667 107.333L175.333 106.667z"/>
<path style="fill:#dad3ce; stroke:none;" d="M185 106L186 107L185 106z"/>
<path style="fill:#f97316; stroke:none;" d="M186 106L187 107L186 106z"/>
<path style="fill:#fb9e5e; stroke:none;" d="M198.667 106.333L199.333 106.667L198.667 106.333z"/>
<path style="fill:#fdc198; stroke:none;" d="M227 106L228 107L227 106z"/>
<path style="fill:#fb9e5e; stroke:none;" d="M271 106L272 107L271 106z"/>
<path style="fill:#fdc198; stroke:none;" d="M278 106L279 107L278 106M44 107L45 108L44 107z"/>
<path style="fill:#fb9e5e; stroke:none;" d="M48 107L49 108L48 107z"/>
<path style="fill:#dad3ce; stroke:none;" d="M56 107L57 108L56 107z"/>
<path style="fill:#fb9e5e; stroke:none;" d="M60 107L61 108L60 107z"/>
<path style="fill:#fdc198; stroke:none;" d="M63 107L64 108L63 107M67 107L68 108L67 107M75 107L76 108L75 107z"/>
<path style="fill:#fb9e5e; stroke:none;" d="M79 107L80 108L79 107z"/>
<path style="fill:#dad3ce; stroke:none;" d="M154 107L155 108L154 107M164 107L165 108L164 107z"/>
<path style="fill:#fdc198; stroke:none;" d="M168.333 107.667L168.667 108.333L168.333 107.667z"/>
<path style="fill:#fb9e5e; stroke:none;" d="M187 107L188 108L187 107M226 107L227 108L226 107z"/>
<path style="fill:#dad3ce; stroke:none;" d="M271 107L272 108L271 107z"/>
<path style="fill:#fb9e5e; stroke:none;" d="M56 108L57 109L56 108z"/>
<path style="fill:#dad3ce; stroke:none;" d="M60 108L61 109L60 108z"/>
<path style="fill:#fb9e5e; stroke:none;" d="M76 108L77 109L76 108z"/>
<path style="fill:#dad3ce; stroke:none;" d="M80 108L81 109L80 108M115 108L116 109L115 108z"/>
<path style="fill:#fb9e5e; stroke:none;" d="M132.667 108.333L133.333 108.667L132.667 108.333z"/>
<path style="fill:#fdc198; stroke:none;" d="M166.333 108.667L166.667 109.333L166.333 108.667z"/>
<path style="fill:#fb9e5e; stroke:none;" d="M175.333 108.667L175.667 109.333L175.333 108.667z"/>
<path style="fill:#fdc198; stroke:none;" d="M210 108L211 109L210 108z"/>
<path style="fill:#fffefe; stroke:none;" d="M211 108L212 109L211 108z"/>
<path style="fill:#fb9e5e; stroke:none;" d="M212 108L213 109L212 108M218.667 108.333L219.333 108.667L218.667 108.333M225 108L226 109L225 108M272 108L273 109L272 108z"/>
<path style="fill:#fdc198; stroke:none;" d="M43 109L44 110L43 109M47 109L48 110L47 109M55 109L56 110L55 109z"/>
<path style="fill:#fb9e5e; stroke:none;" d="M59 109L60 110L59 109z"/>
<path style="fill:#fdc198; stroke:none;" d="M64 109L65 110L64 109z"/>
<path style="fill:#fb9e5e; stroke:none;" d="M68 109L69 110L68 109z"/>
<path style="fill:#dad3ce; stroke:none;" d="M76 109L77 110L76 109z"/>
<path style="fill:#fb9e5e; stroke:none;" d="M80 109L81 110L80 109z"/>
<path style="fill:#fdc198; stroke:none;" d="M115 109L116 110L115 109z"/>
<path style="fill:#fb9e5e; stroke:none;" d="M127 109L128 110L127 109M129.667 109.333L130.333 109.667L129.667 109.333M136 109L137 110L136 109M159 109L160 110L159 109M169.333 109.667L169.667 110.333L169.333 109.667z"/>
<path style="fill:#dad3ce; stroke:none;" d="M187 109L188 110L187 109z"/>
<path style="fill:#fb9e5e; stroke:none;" d="M210 109L210 111L212 111L212 109L210 109z"/>
<path style="fill:#dad3ce; stroke:none;" d="M239.333 109.667L239.667 110.333L239.333 109.667z"/>
<path style="fill:#fdc198; stroke:none;" d="M272 109L273 110L272 109z"/>
<path style="fill:#fb9e5e; stroke:none;" d="M274 109L274 111L276 111L276 109L274 109M46 110L47 111L46 110M65 110L66 111L65 110z"/>
<path style="fill:#dad3ce; stroke:none;" d="M69 110L70 111L69 110z"/>
<path style="fill:#fb9e5e; stroke:none;" d="M77 110L78 111L77 110z"/>
<path style="fill:#fdc198; stroke:none;" d="M81 110L82 111L81 110z"/>
<path style="fill:#fb9e5e; stroke:none;" d="M115 110L116 111L115 110z"/>
<path style="fill:#fdc198; stroke:none;" d="M136 110L137 111L136 110z"/>
<path style="fill:#dad3ce; stroke:none;" d="M167 110L168 111L167 110z"/>
<path style="fill:#fdc198; stroke:none;" d="M188 110L189 111L188 110z"/>
<path style="fill:#dad3ce; stroke:none;" d="M224 110L225 111L224 110z"/>
<path style="fill:#fb9e5e; stroke:none;" d="M42 111L43 112L42 111z"/>
<path style="fill:#fdc198; stroke:none;" d="M46 111L47 112L46 111M54 111L55 112L54 111M58 111L59 112L58 111z"/>
<path style="fill:#dad3ce; stroke:none;" d="M65 111L66 112L65 111z"/>
<path style="fill:#fb9e5e; stroke:none;" d="M69 111L70 112L69 111z"/>
<path style="fill:#dad3ce; stroke:none;" d="M136 111L137 112L136 111z"/>
<path style="fill:#fb9e5e; stroke:none;" d="M155 111L155 115L156 115L155 111M167 111L168 112L167 111z"/>
<path style="fill:#fdc198; stroke:none;" d="M169.333 111.667L169.667 112.333L169.333 111.667z"/>
<path style="fill:#dad3ce; stroke:none;" d="M176 111L177 112L176 111z"/>
<path style="fill:#fb9e5e; stroke:none;" d="M189 111L190 112L189 111z"/>
<path style="fill:#fdc198; stroke:none;" d="M217 111L218 112L217 111z"/>
<path style="fill:#fb9e5e; stroke:none;" d="M218 111L219 112L218 111z"/>
<path style="fill:#dad3ce; stroke:none;" d="M223 111L224 112L223 111z"/>
<path style="fill:#fdc198; stroke:none;" d="M239 111L239 117L240 117L239 111z"/>
<path style="fill:#fb9e5e; stroke:none;" d="M273 111L274 112L273 111z"/>
<path style="fill:#dad3ce; stroke:none;" d="M41 112L42 113L41 112z"/>
<path style="fill:#fb9e5e; stroke:none;" d="M45 112L46 113L45 112M57 112L58 113L57 112M66 112L67 113L66 112z"/>
<path style="fill:#fdc198; stroke:none;" d="M70 112L71 113L70 112M78 112L79 113L78 112M82 112L83 113L82 112M114 112L115 113L114 112M176 112L177 113L176 112z"/>
<path style="fill:#fb9e5e; stroke:none;" d="M190 112L191 113L190 112z"/>
<path style="fill:#fdc198; stroke:none;" d="M210 112L211 113L210 112z"/>
<path style="fill:#fb9e5e; stroke:none;" d="M211 112L212 113L211 112z"/>
<path style="fill:#dad3ce; stroke:none;" d="M222 112L223 113L222 112z"/>
<path style="fill:#fdc198; stroke:none;" d="M273 112L274 113L273 112z"/>
<path style="fill:#fb9e5e; stroke:none;" d="M41 113L42 114L41 113M53 113L54 114L53 113z"/>
<path style="fill:#fdc198; stroke:none;" d="M57 113L58 114L57 113z"/>
<path style="fill:#fb9e5e; stroke:none;" d="M79 113L80 114L79 113M114 113L115 114L114 113M135 113L136 114L135 113z"/>
<path style="fill:#fdc198; stroke:none;" d="M168 113L169 114L168 113z"/>
<path style="fill:#fb9e5e; stroke:none;" d="M176.333 113.667L176.667 114.333L176.333 113.667z"/>
<path style="fill:#fdc198; stroke:none;" d="M191 113L192 114L191 113z"/>
<path style="fill:#fb9e5e; stroke:none;" d="M220 113L221 114L220 113z"/>
<path style="fill:#fdc198; stroke:none;" d="M40 114L41 115L40 114M44 114L45 115L44 114z"/>
<path style="fill:#dad3ce; stroke:none;" d="M52 114L53 115L52 114z"/>
<path style="fill:#fb9e5e; stroke:none;" d="M56 114L57 115L56 114z"/>
<path style="fill:#fdc198; stroke:none;" d="M67 114L68 115L67 114M71 114L72 115L71 114z"/>
<path style="fill:#dad3ce; stroke:none;" d="M79 114L80 115L79 114z"/>
<path style="fill:#fb9e5e; stroke:none;" d="M83 114L84 115L83 114z"/>
<path style="fill:#fdc198; stroke:none;" d="M135 114L136 115L135 114z"/>
<path style="fill:#dad3ce; stroke:none;" d="M160 114L161 115L160 114z"/>
<path style="fill:#fb9e5e; stroke:none;" d="M169 114L170 115L169 114z"/>
<path style="fill:#fdc198; stroke:none;" d="M192 114L193 115L192 114M219 114L220 115L219 114M274 114L275 115L274 114z"/>
<path style="fill:#fb9e5e; stroke:none;" d="M52 115L53 116L52 115M68 115L69 116L68 115M80 115L81 116L80 115z"/>
<path style="fill:#dad3ce; stroke:none;" d="M84 115L85 116L84 115M135 115L136 116L135 115z"/>
<path style="fill:#fdc198; stroke:none;" d="M155.333 115.667L155.667 116.333L155.333 115.667z"/>
<path style="fill:#fb9e5e; stroke:none;" d="M160 115L161 116L160 115M194 115L195 116L194 115M217 115L218 116L217 115z"/>
<path style="fill:#dad3ce; stroke:none;" d="M218 115L219 116L218 115M274 115L275 116L274 115z"/>
<path style="fill:#fb9e5e; stroke:none;" d="M39 116L40 117L39 116z"/>
<path style="fill:#fdc198; stroke:none;" d="M43 116L44 117L43 116M51 116L52 117L51 116M55 116L56 117L55 116M68 116L69 117L68 116z"/>
<path style="fill:#fb9e5e; stroke:none;" d="M72 116L73 117L72 116M84 116L85 117L84 116M114 116L114 117L119 118L119 117L114 116z"/>
<path style="fill:#dad3ce; stroke:none;" d="M195 116L196 117L195 116z"/>
<path style="fill:#fb9e5e; stroke:none;" d="M196 116L197 117L196 116M215 116L216 117L215 116z"/>
<path style="fill:#dad3ce; stroke:none;" d="M216 116L217 117L216 116M259 116L260 117L259 116z"/>
<path style="fill:#fb9e5e; stroke:none;" d="M275 116L276 117L275 116z"/>
<path style="fill:#dad3ce; stroke:none;" d="M38 117L39 118L38 117z"/>
<path style="fill:#fb9e5e; stroke:none;" d="M42 117L43 118L42 117M69 117L70 118L69 117z"/>
<path style="fill:#dad3ce; stroke:none;" d="M73 117L74 118L73 117z"/>
<path style="fill:#fdc198; stroke:none;" d="M81 117L82 118L81 117M85 117L86 118L85 117z"/>
<path style="fill:#dad3ce; stroke:none;" d="M114 117L115 118L114 117z"/>
<path style="fill:#fdc198; stroke:none;" d="M134 117L135 118L134 117z"/>
<path style="fill:#fb9e5e; stroke:none;" d="M176 117L177 118L176 117z"/>
<path style="fill:#fdc198; stroke:none;" d="M198 117L199 118L198 117z"/>
<path style="fill:#fb9e5e; stroke:none;" d="M199 117L200 118L199 117M212 117L213 118L212 117z"/>
<path style="fill:#fdc198; stroke:none;" d="M213 117L214 118L213 117z"/>
<path style="fill:#fb9e5e; stroke:none;" d="M258 117L259 118L258 117z"/>
<path style="fill:#dad3ce; stroke:none;" d="M275 117L276 118L275 117z"/>
<path style="fill:#fb9e5e; stroke:none;" d="M290 117L290 118L293 118L290 117z"/>
<path style="fill:#fdc198; stroke:none;" d="M293 117L294 118L293 117z"/>
<path style="fill:#fb9e5e; stroke:none;" d="M38 118L39 119L38 118z"/>
<path style="fill:#dad3ce; stroke:none;" d="M42 118L43 119L42 118z"/>
<path style="fill:#fdc198; stroke:none;" d="M50 118L51 119L50 118M54 118L55 119L54 118z"/>
<path style="fill:#fb9e5e; stroke:none;" d="M73 118L74 119L73 118z"/>
<path style="fill:#dad3ce; stroke:none;" d="M132 118L133 119L132 118z"/>
<path style="fill:#fdc198; stroke:none;" d="M157 118L157 119L176 119L157 118M202 118L202 119L209 119L202 118z"/>
<path style="fill:#dad3ce; stroke:none;" d="M209 118L210 119L209 118z"/>
<path style="fill:#fdc198; stroke:none;" d="M241 118L241 119L258 119L241 118z"/>
<path style="fill:#dad3ce; stroke:none;" d="M277 118L278 119L277 118z"/>
<path style="fill:#fdc198; stroke:none;" d="M37 119L38 120L37 119z"/>
<path style="fill:#fb9e5e; stroke:none;" d="M41 119L42 120L41 119M53 119L54 120L53 119z"/>
<path style="fill:#fdc198; stroke:none;" d="M70 119L71 120L70 119M74 119L75 120L74 119M82 119L83 120L82 119z"/>
<path style="fill:#fb9e5e; stroke:none;" d="M86 119L87 120L86 119M37 120L38 121L37 120M49 120L50 121L49 120z"/>
<path style="fill:#dad3ce; stroke:none;" d="M53 120L54 121L53 120z"/>
<path style="fill:#fb9e5e; stroke:none;" d="M83 120L84 121L83 120z"/>
<path style="fill:#dad3ce; stroke:none;" d="M87 120L88 121L87 120z"/>
<path style="fill:#fdc198; stroke:none;" d="M36 121L37 122L36 121M40 121L41 122L40 121M48 121L49 122L48 121z"/>
<path style="fill:#fb9e5e; stroke:none;" d="M52 121L53 122L52 121z"/>
<path style="fill:#fdc198; stroke:none;" d="M71 121L72 122L71 121z"/>
<path style="fill:#fb9e5e; stroke:none;" d="M75 121L76 122L75 121z"/>
<path style="fill:#dad3ce; stroke:none;" d="M83 121L84 122L83 121z"/>
<path style="fill:#fb9e5e; stroke:none;" d="M87 121L88 122L87 121M48 122L49 123L48 122M72 122L73 123L72 122M84 122L85 123L84 122z"/>
<path style="fill:#fdc198; stroke:none;" d="M88 122L89 123L88 122z"/>
<path style="fill:#fb9e5e; stroke:none;" d="M35 123L36 124L35 123z"/>
<path style="fill:#fdc198; stroke:none;" d="M39 123L40 124L39 123M47 123L48 124L47 123M51 123L52 124L51 123z"/>
<path style="fill:#dad3ce; stroke:none;" d="M72 123L73 124L72 123z"/>
<path style="fill:#fb9e5e; stroke:none;" d="M76 123L77 124L76 123z"/>
<path style="fill:#dad3ce; stroke:none;" d="M34 124L35 125L34 124z"/>
<path style="fill:#fb9e5e; stroke:none;" d="M38 124L39 125L38 124M73 124L74 125L73 124z"/>
<path style="fill:#fdc198; stroke:none;" d="M77 124L78 125L77 124M85 124L86 125L85 124M89 124L90 125L89 124M115 124L115 125L302 125L284 124L246 124L115 124z"/>
<path style="fill:#fb9e5e; stroke:none;" d="M34 125L35 126L34 125z"/>
<path style="fill:#dad3ce; stroke:none;" d="M38 125L39 126L38 125z"/>
<path style="fill:#fb9e5e; stroke:none;" d="M46 125L47 126L46 125z"/>
<path style="fill:#fdc198; stroke:none;" d="M50 125L51 126L50 125z"/>
<path style="fill:#fb9e5e; stroke:none;" d="M77 125L78 126L77 125M86 125L87 126L86 125z"/>
<path style="fill:#f97316; stroke:none;" d="M115 125L115 135L302 135L301 125L115 125z"/>
<path style="fill:#fb9e5e; stroke:none;" d="M301 125L301 134L302 134L301 125z"/>
<path style="fill:#fdc198; stroke:none;" d="M33 126L34 127L33 126z"/>
<path style="fill:#fb9e5e; stroke:none;" d="M37 126L38 127L37 126z"/>
<path style="fill:#dad3ce; stroke:none;" d="M45 126L46 127L45 126z"/>
<path style="fill:#fb9e5e; stroke:none;" d="M49 126L50 127L49 126z"/>
<path style="fill:#fdc198; stroke:none;" d="M74 126L75 127L74 126M78 126L79 127L78 126M86 126L87 127L86 126z"/>
<path style="fill:#fb9e5e; stroke:none;" d="M90 126L91 127L90 126M45 127L46 128L45 127z"/>
<path style="fill:#dad3ce; stroke:none;" d="M49 127L50 128L49 127z"/>
<path style="fill:#fb9e5e; stroke:none;" d="M87 127L88 128L87 127z"/>
<path style="fill:#dad3ce; stroke:none;" d="M91 127L92 128L91 127z"/>
<path style="fill:#fdc198; stroke:none;" d="M32 128L33 129L32 128M36 128L37 129L36 128M44 128L45 129L44 128z"/>
<path style="fill:#fb9e5e; stroke:none;" d="M48 128L49 129L48 128z"/>
<path style="fill:#fdc198; stroke:none;" d="M75 128L76 129L75 128z"/>
<path style="fill:#fb9e5e; stroke:none;" d="M79 128L80 129L79 128z"/>
<path style="fill:#dad3ce; stroke:none;" d="M87 128L88 129L87 128z"/>
<path style="fill:#fb9e5e; stroke:none;" d="M91 128L92 129L91 128M35 129L36 130L35 129M76 129L77 130L76 129z"/>
<path style="fill:#dad3ce; stroke:none;" d="M80 129L81 130L80 129z"/>
<path style="fill:#fb9e5e; stroke:none;" d="M88 129L89 130L88 129z"/>
<path style="fill:#fdc198; stroke:none;" d="M92 129L93 130L92 129z"/>
<path style="fill:#fb9e5e; stroke:none;" d="M31 130L32 131L31 130z"/>
<path style="fill:#dad3ce; stroke:none;" d="M35 130L36 131L35 130z"/>
<path style="fill:#fdc198; stroke:none;" d="M43 130L44 131L43 130M47 130L48 131L47 130z"/>
<path style="fill:#dad3ce; stroke:none;" d="M76 130L77 131L76 130z"/>
<path style="fill:#fb9e5e; stroke:none;" d="M80 130L81 131L80 130z"/>
<path style="fill:#dad3ce; stroke:none;" d="M30 131L31 132L30 131z"/>
<path style="fill:#fb9e5e; stroke:none;" d="M34 131L35 132L34 131M46 131L47 132L46 131M77 131L78 132L77 131z"/>
<path style="fill:#fdc198; stroke:none;" d="M81 131L82 132L81 131M89 131L90 132L89 131M93 131L94 132L93 131z"/>
<path style="fill:#fb9e5e; stroke:none;" d="M30 132L31 133L30 132M42 132L43 133L42 132z"/>
<path style="fill:#fdc198; stroke:none;" d="M46 132L47 133L46 132z"/>
<path style="fill:#fb9e5e; stroke:none;" d="M90 132L91 133L90 132z"/>
<path style="fill:#fdc198; stroke:none;" d="M29 133L30 134L29 133M33 133L34 134L33 133z"/>
<path style="fill:#dad3ce; stroke:none;" d="M41 133L42 134L41 133z"/>
<path style="fill:#fb9e5e; stroke:none;" d="M45 133L46 134L45 133z"/>
<path style="fill:#fdc198; stroke:none;" d="M78 133L79 134L78 133M82 133L83 134L82 133z"/>
<path style="fill:#dad3ce; stroke:none;" d="M90 133L91 134L90 133z"/>
<path style="fill:#fb9e5e; stroke:none;" d="M94 133L95 134L94 133M41 134L42 135L41 134M79 134L80 135L79 134M91 134L92 135L91 134z"/>
<path style="fill:#fdc198; stroke:none;" d="M95 134L96 135L95 134z"/>
<path style="fill:#fb9e5e; stroke:none;" d="M28 135L29 136L28 135z"/>
<path style="fill:#fdc198; stroke:none;" d="M32 135L33 136L32 135M40 135L41 136L40 135M44 135L45 136L44 135z"/>
<path style="fill:#dad3ce; stroke:none;" d="M79 135L80 136L79 135z"/>
<path style="fill:#fb9e5e; stroke:none;" d="M83 135L84 136L83 135M95 135L96 136L95 135z"/>
<path style="fill:#fdc198; stroke:none;" d="M115 135L115 136L302 136L284 135L246 135L115 135z"/>
<path style="fill:#dad3ce; stroke:none;" d="M27 136L28 137L27 136z"/>
<path style="fill:#fb9e5e; stroke:none;" d="M31 136L32 137L31 136M80 136L81 137L80 136z"/>
<path style="fill:#dad3ce; stroke:none;" d="M84 136L85 137L84 136z"/>
<path style="fill:#fdc198; stroke:none;" d="M92 136L93 137L92 136M96 136L97 137L96 136z"/>
<path style="fill:#fb9e5e; stroke:none;" d="M27 137L28 138L27 137z"/>
<path style="fill:#dad3ce; stroke:none;" d="M31 137L32 138L31 137z"/>
<path style="fill:#fb9e5e; stroke:none;" d="M39 137L40 138L39 137z"/>
<path style="fill:#fdc198; stroke:none;" d="M43 137L44 138L43 137z"/>
<path style="fill:#fb9e5e; stroke:none;" d="M84 137L85 138L84 137z"/>
<path style="fill:#fdc198; stroke:none;" d="M26 138L27 139L26 138z"/>
<path style="fill:#fb9e5e; stroke:none;" d="M30 138L31 139L30 138z"/>
<path style="fill:#dad3ce; stroke:none;" d="M38 138L39 139L38 138z"/>
<path style="fill:#fb9e5e; stroke:none;" d="M42 138L43 139L42 138z"/>
<path style="fill:#fdc198; stroke:none;" d="M81 138L82 139L81 138M85 138L86 139L85 138M93 138L94 139L93 138z"/>
<path style="fill:#fb9e5e; stroke:none;" d="M97 138L98 139L97 138M38 139L39 140L38 139z"/>
<path style="fill:#dad3ce; stroke:none;" d="M42 139L43 140L42 139z"/>
<path style="fill:#fb9e5e; stroke:none;" d="M94 139L95 140L94 139z"/>
<path style="fill:#dad3ce; stroke:none;" d="M98 139L99 140L98 139z"/>
<path style="fill:#fdc198; stroke:none;" d="M25 140L26 141L25 140M29 140L30 141L29 140M37 140L38 141L37 140z"/>
<path style="fill:#fb9e5e; stroke:none;" d="M41 140L42 141L41 140z"/>
<path style="fill:#fdc198; stroke:none;" d="M82 140L83 141L82 140z"/>
<path style="fill:#fb9e5e; stroke:none;" d="M86 140L87 141L86 140z"/>
<path style="fill:#dad3ce; stroke:none;" d="M94 140L95 141L94 140z"/>
<path style="fill:#fb9e5e; stroke:none;" d="M98 140L99 141L98 140M28 141L29 142L28 141M37 141L38 142L37 141M83 141L84 142L83 141z"/>
<path style="fill:#dad3ce; stroke:none;" d="M87 141L88 142L87 141z"/>
<path style="fill:#fb9e5e; stroke:none;" d="M95 141L96 142L95 141z"/>
<path style="fill:#fdc198; stroke:none;" d="M99 141L100 142L99 141z"/>
<path style="fill:#fb9e5e; stroke:none;" d="M24 142L25 143L24 142z"/>
<path style="fill:#fdc198; stroke:none;" d="M28 142L29 143L28 142M36 142L37 143L36 142M40 142L41 143L40 142z"/>
<path style="fill:#dad3ce; stroke:none;" d="M83 142L84 143L83 142z"/>
<path style="fill:#fb9e5e; stroke:none;" d="M87 142L88 143L87 142z"/>
<path style="fill:#dad3ce; stroke:none;" d="M23 143L24 144L23 143z"/>
<path style="fill:#fb9e5e; stroke:none;" d="M27 143L28 144L27 143M84 143L85 144L84 143z"/>
<path style="fill:#fdc198; stroke:none;" d="M88 143L89 144L88 143M96 143L97 144L96 143M100 143L101 144L100 143z"/>
<path style="fill:#fb9e5e; stroke:none;" d="M23 144L24 145L23 144M35 144L36 145L35 144z"/>
<path style="fill:#fdc198; stroke:none;" d="M39 144L40 145L39 144z"/>
<path style="fill:#fb9e5e; stroke:none;" d="M97 144L98 145L97 144z"/>
<path style="fill:#fdc198; stroke:none;" d="M22 145L23 146L22 145z"/>
<path style="fill:#fb9e5e; stroke:none;" d="M26 145L27 146L26 145M34 145L35 146L34 145M38 145L39 146L38 145z"/>
<path style="fill:#fdc198; stroke:none;" d="M85 145L86 146L85 145z"/>
<path style="fill:#fb9e5e; stroke:none;" d="M89 145L90 146L89 145z"/>
<path style="fill:#fdc198; stroke:none;" d="M97 145L98 146L97 145z"/>
<path style="fill:#fb9e5e; stroke:none;" d="M101 145L102 146L101 145z"/>
<path style="fill:#dad3ce; stroke:none;" d="M32 146L33 147L32 146z"/>
<path style="fill:#fb9e5e; stroke:none;" d="M33 146L34 147L33 146M86 146L87 147L86 146z"/>
<path style="fill:#fdc198; stroke:none;" d="M91 146L92 147L91 146z"/>
<path style="fill:#fb9e5e; stroke:none;" d="M98.3333 146.667L98.6667 147.333L98.3333 146.667z"/>
<path style="fill:#dad3ce; stroke:none;" d="M102 146L103 147L102 146z"/>
<path style="fill:#fdc198; stroke:none;" d="M21 147L22 148L21 147z"/>
<path style="fill:#fb9e5e; stroke:none;" d="M25 147L26 148L25 147z"/>
<path style="fill:#dad3ce; stroke:none;" d="M26 147L27 148L26 147M29 147L30 148L29 147z"/>
<path style="fill:#fdc198; stroke:none;" d="M30 147L31 148L30 147z"/>
<path style="fill:#fb9e5e; stroke:none;" d="M31 147L32 148L31 147z"/>
<path style="fill:#dad3ce; stroke:none;" d="M37 147L38 148L37 147z"/>
<path style="fill:#fb9e5e; stroke:none;" d="M87 147L88 148L87 147M92 147L93 148L92 147z"/>
<path style="fill:#fdc198; stroke:none;" d="M93 147L94 148L93 147z"/>
<path style="fill:#dad3ce; stroke:none;" d="M94 147L95 148L94 147z"/>
<path style="fill:#fb9e5e; stroke:none;" d="M102 147L103 148L102 147M21 148L22 149L21 148z"/>
<path style="fill:#dad3ce; stroke:none;" d="M36 148L37 149L36 148z"/>
<path style="fill:#fb9e5e; stroke:none;" d="M88 148L89 149L88 148z"/>
<path style="fill:#dad3ce; stroke:none;" d="M21 149L22 150L21 149z"/>
<path style="fill:#fb9e5e; stroke:none;" d="M34 149L35 150L34 149z"/>
<path style="fill:#fdc198; stroke:none;" d="M89 149L90 150L89 149M102 149L103 150L102 149M23 150L24 151L23 150z"/>
<path style="fill:#fb9e5e; stroke:none;" d="M24 150L25 151L24 150M32 150L33 151L32 150z"/>
<path style="fill:#dad3ce; stroke:none;" d="M33 150L34 151L33 150z"/>
<path style="fill:#fdc198; stroke:none;" d="M91 150L92 151L91 150z"/>
<path style="fill:#fb9e5e; stroke:none;" d="M92 150L93 151L92 150M99 150L100 151L99 150z"/>
<path style="fill:#fdc198; stroke:none;" d="M100 150L101 151L100 150z"/>
<path style="fill:#dad3ce; stroke:none;" d="M26 151L27 152L26 151z"/>
<path style="fill:#fdc198; stroke:none;" d="M27 151L27 152L30 152L27 151z"/>
<path style="fill:#dad3ce; stroke:none;" d="M94 151L95 152L94 151z"/>
<path style="fill:#fdc198; stroke:none;" d="M95.6667 151.333L96.3333 151.667L95.6667 151.333z"/>
<path style="fill:#dad3ce; stroke:none;" d="M97 151L98 152L97 151M50 155.424C46.7319 155.854 24.6745 156.658 28.1759 163.502C29.9528 166.976 38.6135 167.519 42 167.999C55.296 169.884 71.8706 170.825 85 167.471C92.3709 165.588 94.615 158.895 85.9992 157.1C74.6684 154.739 61.4931 153.915 50 155.424z"/>
</svg>
