<?xml version="1.0" standalone="yes"?>
<svg xmlns="http://www.w3.org/2000/svg" width="131" height="154">
<path style="fill:#fffffe; stroke:none;" d="M0 0L0 154L131 154L131 0L0 0z"/>
<path style="fill:#fba86e; stroke:none;" d="M30 4L31 5L30 4z"/>
<path style="fill:#f97419; stroke:none;" d="M48 44C36.6455 37.6037 36.6852 17.4183 25.6219 11.0471C20.1295 7.88408 19.5001 14.5721 21.1983 18C26.4733 28.6474 33.4154 38.5071 39 49C31.3825 45.0428 26.8798 32.2969 22.7191 25C20.9656 21.9246 18.8143 16.6616 14.9761 15.7516C10.0402 14.5812 10.5809 20.2304 11.909 23C15.8651 31.2503 21.1187 39.1406 25.7994 47C28.9619 52.3102 31.6052 59.3967 36.213 63.6065C40.1767 67.2279 45.7358 67.7425 49.2114 72.1049C62.4593 88.7331 71.7462 110.601 82.4244 129C88.5376 139.533 93.045 150.385 107 146C104.293 136.799 97.7612 128.284 93 120C83.0274 102.648 72.3895 85.6025 62.865 68C59.3119 61.4334 61.9247 56.6633 60.5918 50C59.6029 45.0565 55.8957 40.3161 53.4213 36C48.6411 27.662 43.9606 19.2231 38.9853 11.0008C37.5785 8.6757 34.8281 3.51936 31.3148 5.17593C26.9968 7.21199 30.7104 13.4072 32.1543 16C37.3556 25.3396 43.4753 34.3089 48 44z"/>
<path style="fill:#fba86e; stroke:none;" d="M34 4L35 5L34 4z"/>
<path style="fill:#fa8d42; stroke:none;" d="M29 5L30 6L29 5M35 5L36 6L35 5z"/>
<path style="fill:#fba86e; stroke:none;" d="M28 6L29 7L28 6M36 6L37 7L36 6z"/>
<path style="fill:#fa8d42; stroke:none;" d="M28.3333 7.66667L28.6667 8.33333L28.3333 7.66667M31 7L32 8L31 7z"/>
<path style="fill:#fdccaa; stroke:none;" d="M32 7L34 9L32 7z"/>
<path style="fill:#fa8d42; stroke:none;" d="M33 7L34 8L33 7z"/>
<path style="fill:#fdccaa; stroke:none;" d="M102 7L103 8L102 7z"/>
<path style="fill:#fa8d42; stroke:none;" d="M103 7L104 8L103 7z"/>
<path style="fill:#f97419; stroke:none;" d="M70 72C80.2741 63.2504 71.9787 45.3143 77.9815 33C84.9615 18.681 115.998 -3.68385 116 26C116 29.4006 115.896 32.6772 115.101 36C112.775 45.7202 107.177 54.3553 99 60.2114C88.4541 67.7637 77.0266 68.5056 75 84C79.9885 80.7979 80.8294 74.2747 85.3287 70.5633C90.3006 66.462 97.6521 65.1955 102.996 61.1003C114.479 52.3013 128.9 20.9474 112.956 9.70293C105.456 4.41325 96.4327 9.92209 90 14.4398C78.6832 22.3876 71.719 35.1414 71.1042 49C70.9099 53.3795 72.7421 57.6614 72.439 62C72.1881 65.5933 69.9923 68.3424 70 72z"/>
<path style="fill:#fa8d42; stroke:none;" d="M108 7L109 8L108 7z"/>
<path style="fill:#fba86e; stroke:none;" d="M109 7L110 8L109 7z"/>
<path style="fill:#fdccaa; stroke:none;" d="M110 7L111 8L110 7z"/>
<path style="fill:#fba86e; stroke:none;" d="M31 8L32 9L31 8z"/>
<path style="fill:#fffffe; stroke:none;" d="M32 8C35.1916 16.7174 41.0493 25.024 45.7994 33C47.3931 35.6761 51.3888 40.4441 50.4738 43.7855C48.9687 49.2814 43.36 45.8174 41.4645 42.9769C35.0733 33.3992 30.0146 22.8272 24 13L23 13L43 50C29.9806 55.1508 20.264 27.9942 15 18L14 18C17.7195 30.8866 28.7987 50.6695 37.9043 60.5818C41.5794 64.5824 47.6447 64.8257 51.2145 69.1327C61.8359 81.9475 69.2968 99.554 77.5787 114C83.4163 124.182 89.6649 143.678 103 144L57.4529 65L57.1312 50L49.6034 36L32 8z"/>
<path style="fill:#fba86e; stroke:none;" d="M37 8L38 9L37 8z"/>
<path style="fill:#fdccaa; stroke:none;" d="M99 8L100 9L99 8z"/>
<path style="fill:#fa8d42; stroke:none;" d="M100 8L101 9L100 8M111 8L112 9L111 8z"/>
<path style="fill:#fdccaa; stroke:none;" d="M112 8L113 9L112 8M21 9L22 10L21 9z"/>
<path style="fill:#fa8d42; stroke:none;" d="M22.6667 9.33333L23.3333 9.66667L22.6667 9.33333z"/>
<path style="fill:#fba86e; stroke:none;" d="M24 9L25 10L24 9z"/>
<path style="fill:#fdccaa; stroke:none;" d="M25 9L26 10L25 9z"/>
<path style="fill:#fba86e; stroke:none;" d="M28 9L29 10L28 9z"/>
<path style="fill:#fa8d42; stroke:none;" d="M34 9L35 10L34 9z"/>
<path style="fill:#fdccaa; stroke:none;" d="M38 9L39 10L38 9M97 9L98 10L97 9z"/>
<path style="fill:#fa8d42; stroke:none;" d="M98 9L99 10L98 9z"/>
<path style="fill:#fba86e; stroke:none;" d="M113 9L114 10L113 9z"/>
<path style="fill:#fa8d42; stroke:none;" d="M20 10L21 11L20 10z"/>
<path style="fill:#fdccaa; stroke:none;" d="M26 10L27 11L26 10M28 10L27 12L28 10z"/>
<path style="fill:#fa8d42; stroke:none;" d="M32 10L33 11L32 10M38 10L39 11L38 10z"/>
<path style="fill:#fdccaa; stroke:none;" d="M95 10L96 11L95 10z"/>
<path style="fill:#fa8d42; stroke:none;" d="M96 10L97 11L96 10M103 10L104 11L103 10z"/>
<path style="fill:#fdccaa; stroke:none;" d="M104 10L104 11L108 11L104 10z"/>
<path style="fill:#fba86e; stroke:none;" d="M108 10L109 11L108 10z"/>
<path style="fill:#fa8d42; stroke:none;" d="M114 10L115 11L114 10z"/>
<path style="fill:#fba86e; stroke:none;" d="M19 11L20 12L19 11z"/>
<path style="fill:#fffffe; stroke:none;" d="M28 11C30.8689 20.7532 39.2483 36.4038 47 43C42.74 32.8219 35.86 18.7531 28 11z"/>
<path style="fill:#fba86e; stroke:none;" d="M29 11L30 12L29 11z"/>
<path style="fill:#fdccaa; stroke:none;" d="M33 11L34 12L33 11z"/>
<path style="fill:#fba86e; stroke:none;" d="M35 11L36 12L35 11z"/>
<path style="fill:#fdccaa; stroke:none;" d="M39 11L40 12L39 11z"/>
<path style="fill:#fba86e; stroke:none;" d="M94 11L95 12L94 11z"/>
<path style="fill:#fa8d42; stroke:none;" d="M100 11L101 12L100 11z"/>
<path style="fill:#fdccaa; stroke:none;" d="M101 11L102 12L101 11M110 11L111 12L110 11z"/>
<path style="fill:#fa8d42; stroke:none;" d="M115 11L116 12L115 11M22 12L23 13L22 12z"/>
<path style="fill:#fba86e; stroke:none;" d="M23 12L24 13L23 12z"/>
<path style="fill:#fa8d42; stroke:none;" d="M27 12L28 13L27 12M33 12L34 13L33 12z"/>
<path style="fill:#fdccaa; stroke:none;" d="M92 12L93 13L92 12z"/>
<path style="fill:#fa8d42; stroke:none;" d="M98 12L99 13L98 12z"/>
<path style="fill:#fdccaa; stroke:none;" d="M99 12L100 13L99 12z"/>
<path style="fill:#fa8d42; stroke:none;" d="M112 12L113 13L112 12M116 12L117 13L116 12z"/>
<path style="fill:#fdccaa; stroke:none;" d="M22 13L23 14L22 13z"/>
<path style="fill:#fba86e; stroke:none;" d="M24 13L25 14L24 13z"/>
<path style="fill:#fdccaa; stroke:none;" d="M28 13L29 14L28 13M30 13L31 14L30 13M34 13L35 14L34 13M36 13L37 14L36 13z"/>
<path style="fill:#fba86e; stroke:none;" d="M40 13L41 14L40 13z"/>
<path style="fill:#fdccaa; stroke:none;" d="M90 13L91 14L90 13z"/>
<path style="fill:#fa8d42; stroke:none;" d="M91 13L92 14L91 13z"/>
<path style="fill:#fdccaa; stroke:none;" d="M97 13L98 14L97 13z"/>
<path style="fill:#fa8d42; stroke:none;" d="M113 13L114 14L113 13z"/>
<path style="fill:#fdccaa; stroke:none;" d="M117 13L118 14L117 13M12 14L13 15L12 14z"/>
<path style="fill:#fba86e; stroke:none;" d="M13.6667 14.3333L14.3333 14.6667L13.6667 14.3333z"/>
<path style="fill:#fdccaa; stroke:none;" d="M15 14L16 15L15 14z"/>
<path style="fill:#fa8d42; stroke:none;" d="M22 14L23 15L22 14M28 14L29 15L28 14M31 14L32 15L31 14M37 14L38 15L37 14z"/>
<path style="fill:#fdccaa; stroke:none;" d="M89 14L90 15L89 14z"/>
<path style="fill:#fba86e; stroke:none;" d="M95 14L96 15L95 14z"/>
<path style="fill:#fdccaa; stroke:none;" d="M103 14L104 15L103 14z"/>
<path style="fill:#fa8d42; stroke:none;" d="M117 14L118 15L117 14z"/>
<path style="fill:#fba86e; stroke:none;" d="M11 15L12 16L11 15z"/>
<path style="fill:#fa8d42; stroke:none;" d="M16 15L17 16L16 15z"/>
<path style="fill:#fba86e; stroke:none;" d="M19 15L20 16L19 15z"/>
<path style="fill:#fdccaa; stroke:none;" d="M23 15L24 16L23 15M25 15L26 16L25 15z"/>
<path style="fill:#fba86e; stroke:none;" d="M29 15L30 16L29 15z"/>
<path style="fill:#fdccaa; stroke:none;" d="M31 15L32 16L31 15z"/>
<path style="fill:#fba86e; stroke:none;" d="M35 15L36 16L35 15z"/>
<path style="fill:#fdccaa; stroke:none;" d="M37 15L38 16L37 15z"/>
<path style="fill:#fba86e; stroke:none;" d="M41 15L42 16L41 15z"/>
<path style="fill:#fa8d42; stroke:none;" d="M88 15L89 16L88 15M93 15L94 16L93 15z"/>
<path style="fill:#fdccaa; stroke:none;" d="M94 15L95 16L94 15M100 15L101 16L100 15z"/>
<path style="fill:#fa8d42; stroke:none;" d="M101 15L102 16L101 15z"/>
<path style="fill:#f97419; stroke:none;" d="M87 28L105 15C97.318 16.1514 89.9911 20.6109 87 28z"/>
<path style="fill:#fdccaa; stroke:none;" d="M105 15L106 16L105 15M114 15L115 16L114 15M118.333 15.6667L118.667 16.3333L118.333 15.6667z"/>
<path style="fill:#fba86e; stroke:none;" d="M10 16L11 17L10 16z"/>
<path style="fill:#fa8d42; stroke:none;" d="M17 16L18 17L17 16M20 16L21 17L20 16M26 16L27 17L26 16M32 16L33 17L32 16z"/>
<path style="fill:#fdccaa; stroke:none;" d="M36 16L37 17L36 16z"/>
<path style="fill:#fba86e; stroke:none;" d="M38 16L39 17L38 16z"/>
<path style="fill:#fdccaa; stroke:none;" d="M42 16L43 17L42 16M86 16L87 17L86 16z"/>
<path style="fill:#fa8d42; stroke:none;" d="M87 16L88 17L87 16z"/>
<path style="fill:#fba86e; stroke:none;" d="M92 16L93 17L92 16z"/>
<path style="fill:#fdccaa; stroke:none;" d="M97 16L98 17L97 16z"/>
<path style="fill:#fba86e; stroke:none;" d="M98 16L99 17L98 16M105 16L106 17L105 16z"/>
<path style="fill:#fa8d42; stroke:none;" d="M14 17L15 18L14 17z"/>
<path style="fill:#fba86e; stroke:none;" d="M18 17L19 18L18 17z"/>
<path style="fill:#fdccaa; stroke:none;" d="M20 17L21 18L20 17z"/>
<path style="fill:#fba86e; stroke:none;" d="M24 17L25 18L24 17z"/>
<path style="fill:#fdccaa; stroke:none;" d="M26 17L27 18L26 17z"/>
<path style="fill:#fba86e; stroke:none;" d="M30 17L31 18L30 17z"/>
<path style="fill:#fdccaa; stroke:none;" d="M32 17L33 18L32 17z"/>
<path style="fill:#fa8d42; stroke:none;" d="M36 17L37 18L36 17M42 17L43 18L42 17z"/>
<path style="fill:#fdccaa; stroke:none;" d="M85 17L86 18L85 17z"/>
<path style="fill:#fa8d42; stroke:none;" d="M90 17L91 18L90 17z"/>
<path style="fill:#fdccaa; stroke:none;" d="M91 17L92 18L91 17z"/>
<path style="fill:#fba86e; stroke:none;" d="M96 17L97 18L96 17z"/>
<path style="fill:#fa8d42; stroke:none;" d="M115 17L116 18L115 17z"/>
<path style="fill:#fba86e; stroke:none;" d="M118 17L119 18L118 17z"/>
<path style="fill:#fdccaa; stroke:none;" d="M13 18L14 19L13 18z"/>
<path style="fill:#fa8d42; stroke:none;" d="M15 18L16 19L15 18M21 18L22 19L21 18z"/>
<path style="fill:#fdccaa; stroke:none;" d="M25 18L26 19L25 18z"/>
<path style="fill:#fba86e; stroke:none;" d="M27 18L28 19L27 18z"/>
<path style="fill:#fdccaa; stroke:none;" d="M31 18L32 19L31 18z"/>
<path style="fill:#fba86e; stroke:none;" d="M33 18L34 19L33 18z"/>
<path style="fill:#fdccaa; stroke:none;" d="M37 18L38 19L37 18z"/>
<path style="fill:#fba86e; stroke:none;" d="M39 18L40 19L39 18z"/>
<path style="fill:#fdccaa; stroke:none;" d="M43 18L44 19L43 18M84 18L85 19L84 18z"/>
<path style="fill:#fa8d42; stroke:none;" d="M89 18L90 19L89 18z"/>
<path style="fill:#fdccaa; stroke:none;" d="M94 18L95 19L94 18z"/>
<path style="fill:#fa8d42; stroke:none;" d="M101 18L102 19L101 18z"/>
<path style="fill:#fdccaa; stroke:none;" d="M102.667 18.3333L103.333 18.6667L102.667 18.3333z"/>
<path style="fill:#fba86e; stroke:none;" d="M115 18L116 19L115 18z"/>
<path style="fill:#fa8d42; stroke:none;" d="M118 18L119 19L118 18z"/>
<path style="fill:#fba86e; stroke:none;" d="M13 19L14 20L13 19z"/>
<path style="fill:#fdccaa; stroke:none;" d="M15 19L16 20L15 19z"/>
<path style="fill:#fba86e; stroke:none;" d="M19 19L20 20L19 19z"/>
<path style="fill:#fdccaa; stroke:none;" d="M21 19L20 21L21 19z"/>
<path style="fill:#fa8d42; stroke:none;" d="M25 19L26 20L25 19M31 19L32 20L31 19M37 19L38 20L37 19M40 19L41 20L40 19z"/>
<path style="fill:#fba86e; stroke:none;" d="M83 19L84 20L83 19M88 19L89 20L88 19M93 19L94 20L93 19M99 19L100 20L99 19z"/>
<path style="fill:#fdccaa; stroke:none;" d="M115 19L115 22L116 22L115 19z"/>
<path style="fill:#fa8d42; stroke:none;" d="M10 20L11 21L10 20z"/>
<path style="fill:#fdccaa; stroke:none;" d="M14 20L15 21L14 20z"/>
<path style="fill:#fba86e; stroke:none;" d="M16 20L17 21L16 20z"/>
<path style="fill:#fffffe; stroke:none;" d="M21 20C23.3806 28.0933 30.8275 43.396 38 48L21 20z"/>
<path style="fill:#fba86e; stroke:none;" d="M22 20L23 21L22 20z"/>
<path style="fill:#fdccaa; stroke:none;" d="M26 20L27 21L26 20z"/>
<path style="fill:#fba86e; stroke:none;" d="M28 20L29 21L28 20z"/>
<path style="fill:#fdccaa; stroke:none;" d="M32 20L33 21L32 20M34 20L35 21L34 20z"/>
<path style="fill:#fba86e; stroke:none;" d="M38 20L39 21L38 20z"/>
<path style="fill:#fdccaa; stroke:none;" d="M40 20L41 21L40 20z"/>
<path style="fill:#fba86e; stroke:none;" d="M44 20L45 21L44 20z"/>
<path style="fill:#fdccaa; stroke:none;" d="M82 20L83 21L82 20M87 20L88 21L87 20z"/>
<path style="fill:#fa8d42; stroke:none;" d="M92 20L93 21L92 20z"/>
<path style="fill:#fba86e; stroke:none;" d="M97 20L98 21L97 20z"/>
<path style="fill:#fdccaa; stroke:none;" d="M10 21L11 22L10 21z"/>
<path style="fill:#fa8d42; stroke:none;" d="M14 21L15 22L14 21M20 21L21 22L20 21M26 21L27 22L26 21M29 21L30 22L29 21M35 21L36 22L35 21M41 21L42 22L41 21z"/>
<path style="fill:#fdccaa; stroke:none;" d="M45 21L46 22L45 21M81 21L82 22L81 21M86 21L87 22L86 21z"/>
<path style="fill:#fa8d42; stroke:none;" d="M91 21L92 22L91 21z"/>
<path style="fill:#fdccaa; stroke:none;" d="M96 21L97 22L96 21M119 21L119 29L120 29L119 21z"/>
<path style="fill:#fba86e; stroke:none;" d="M11 22L12 23L11 22z"/>
<path style="fill:#fdccaa; stroke:none;" d="M15 22L16 23L15 22z"/>
<path style="fill:#fba86e; stroke:none;" d="M17 22L18 23L17 22z"/>
<path style="fill:#fdccaa; stroke:none;" d="M21 22L22 23L21 22M23 22L24 23L23 22z"/>
<path style="fill:#fba86e; stroke:none;" d="M27 22L28 23L27 22z"/>
<path style="fill:#fdccaa; stroke:none;" d="M29 22L30 23L29 22z"/>
<path style="fill:#fba86e; stroke:none;" d="M33 22L34 23L33 22z"/>
<path style="fill:#fdccaa; stroke:none;" d="M35 22L36 23L35 22z"/>
<path style="fill:#fba86e; stroke:none;" d="M39 22L40 23L39 22z"/>
<path style="fill:#fdccaa; stroke:none;" d="M41 22L42 23L41 22z"/>
<path style="fill:#fa8d42; stroke:none;" d="M45 22L46 23L45 22z"/>
<path style="fill:#fdccaa; stroke:none;" d="M80 22L81 23L80 22M85 22L86 23L85 22z"/>
<path style="fill:#fa8d42; stroke:none;" d="M90 22L91 23L90 22M94 22L95 23L94 22M15 23L16 24L15 23M18 23L19 24L18 23M24 23L25 24L24 23M30 23L31 24L30 23z"/>
<path style="fill:#fdccaa; stroke:none;" d="M34 23L35 24L34 23z"/>
<path style="fill:#fba86e; stroke:none;" d="M36 23L37 24L36 23z"/>
<path style="fill:#fdccaa; stroke:none;" d="M40 23L41 24L40 23z"/>
<path style="fill:#fba86e; stroke:none;" d="M42 23L43 24L42 23z"/>
<path style="fill:#fdccaa; stroke:none;" d="M46 23L47 24L46 23z"/>
<path style="fill:#fa8d42; stroke:none;" d="M80 23L81 24L80 23z"/>
<path style="fill:#fdccaa; stroke:none;" d="M84 23L85 24L84 23M88 23L89 24L88 23z"/>
<path style="fill:#fa8d42; stroke:none;" d="M93 23L94 24L93 23z"/>
<path style="fill:#fdccaa; stroke:none;" d="M12 24L13 25L12 24M16 24L17 25L16 24M18 24L19 25L18 24z"/>
<path style="fill:#fba86e; stroke:none;" d="M22 24L23 25L22 24z"/>
<path style="fill:#fdccaa; stroke:none;" d="M24 24L25 25L24 24z"/>
<path style="fill:#fba86e; stroke:none;" d="M28 24L29 25L28 24z"/>
<path style="fill:#fdccaa; stroke:none;" d="M30 24L31 25L30 24z"/>
<path style="fill:#fa8d42; stroke:none;" d="M34 24L35 25L34 24M40 24L41 25L40 24M46 24L47 25L46 24M79 24L80 25L79 24z"/>
<path style="fill:#fba86e; stroke:none;" d="M83 24L84 25L83 24z"/>
<path style="fill:#fa8d42; stroke:none;" d="M88 24L89 25L88 24z"/>
<path style="fill:#fba86e; stroke:none;" d="M92 24L93 25L92 24z"/>
<path style="fill:#fa8d42; stroke:none;" d="M13 25L14 26L13 25M19 25L20 26L19 25z"/>
<path style="fill:#fba86e; stroke:none;" d="M25 25L26 26L25 25z"/>
<path style="fill:#fdccaa; stroke:none;" d="M29 25L30 26L29 25z"/>
<path style="fill:#fba86e; stroke:none;" d="M31 25L32 26L31 25z"/>
<path style="fill:#fdccaa; stroke:none;" d="M35 25L36 26L35 25z"/>
<path style="fill:#fba86e; stroke:none;" d="M37 25L38 26L37 25z"/>
<path style="fill:#fdccaa; stroke:none;" d="M41 25L42 26L41 25M43 25L44 26L43 25z"/>
<path style="fill:#fba86e; stroke:none;" d="M47 25L48 26L47 25M78 25L79 26L78 25z"/>
<path style="fill:#fa8d42; stroke:none;" d="M82 25L83 26L82 25M87 25L88 26L87 25z"/>
<path style="fill:#fba86e; stroke:none;" d="M91 25L92 26L91 25z"/>
<path style="fill:#fdccaa; stroke:none;" d="M13 26L14 27L13 26z"/>
<path style="fill:#fba86e; stroke:none;" d="M17 26L18 27L17 26z"/>
<path style="fill:#fdccaa; stroke:none;" d="M19 26L20 27L19 26z"/>
<path style="fill:#fa8d42; stroke:none;" d="M23 26L24 27L23 26M29 26L30 27L29 26M35 26L36 27L35 26M38 26L39 27L38 26M44 26L45 27L44 26z"/>
<path style="fill:#fdccaa; stroke:none;" d="M77 26L78 27L77 26z"/>
<path style="fill:#fa8d42; stroke:none;" d="M81 26L82 27L81 26z"/>
<path style="fill:#fba86e; stroke:none;" d="M86.3333 26.6667L86.6667 27.3333L86.3333 26.6667M90 26L91 27L90 26z"/>
<path style="fill:#fa8d42; stroke:none;" d="M14 27L15 28L14 27z"/>
<path style="fill:#fdccaa; stroke:none;" d="M18 27L19 28L18 27z"/>
<path style="fill:#fba86e; stroke:none;" d="M20 27L21 28L20 27z"/>
<path style="fill:#fdccaa; stroke:none;" d="M24 27L25 28L24 27z"/>
<path style="fill:#fba86e; stroke:none;" d="M26 27L27 28L26 27z"/>
<path style="fill:#fdccaa; stroke:none;" d="M30 27L31 28L30 27M32 27L33 28L32 27z"/>
<path style="fill:#fba86e; stroke:none;" d="M36 27L37 28L36 27z"/>
<path style="fill:#fdccaa; stroke:none;" d="M38 27L39 28L38 27z"/>
<path style="fill:#fba86e; stroke:none;" d="M42 27L43 28L42 27z"/>
<path style="fill:#fdccaa; stroke:none;" d="M44 27L45 28L44 27z"/>
<path style="fill:#fba86e; stroke:none;" d="M48 27L49 28L48 27z"/>
<path style="fill:#fa8d42; stroke:none;" d="M77 27L78 28L77 27z"/>
<path style="fill:#fdccaa; stroke:none;" d="M81 27L82 28L81 27z"/>
<path style="fill:#fa8d42; stroke:none;" d="M89 27L90 28L89 27M18 28L19 29L18 28M24 28L25 29L24 28M27 28L28 29L27 28M33 28L34 29L33 28M39 28L40 29L39 28z"/>
<path style="fill:#fba86e; stroke:none;" d="M45 28L46 29L45 28z"/>
<path style="fill:#fdccaa; stroke:none;" d="M49 28L50 29L49 28M76 28L77 29L76 28z"/>
<path style="fill:#fba86e; stroke:none;" d="M80 28L81 29L80 28M87.6667 28.3333L88.3333 28.6667L87.6667 28.3333z"/>
<path style="fill:#fdccaa; stroke:none;" d="M115 28L115 32L116 32L115 28z"/>
<path style="fill:#fba86e; stroke:none;" d="M15 29L16 30L15 29z"/>
<path style="fill:#fdccaa; stroke:none;" d="M19 29L20 30L19 29M21 29L22 30L21 29M25 29L26 30L25 29M27 29L28 30L27 29z"/>
<path style="fill:#fba86e; stroke:none;" d="M31 29L32 30L31 29z"/>
<path style="fill:#fdccaa; stroke:none;" d="M33 29L34 30L33 29z"/>
<path style="fill:#fba86e; stroke:none;" d="M37 29L38 30L37 29z"/>
<path style="fill:#fdccaa; stroke:none;" d="M39 29L40 30L39 29z"/>
<path style="fill:#fa8d42; stroke:none;" d="M43 29L44 30L43 29M49 29L50 30L49 29M76 29L77 30L76 29M19 30L20 31L19 30M22 30L23 31L22 30M28 30L29 31L28 30z"/>
<path style="fill:#fba86e; stroke:none;" d="M34 30L35 31L34 30z"/>
<path style="fill:#fdccaa; stroke:none;" d="M38 30L39 31L38 30z"/>
<path style="fill:#fba86e; stroke:none;" d="M40 30L41 31L40 30z"/>
<path style="fill:#fdccaa; stroke:none;" d="M44 30L45 31L44 30z"/>
<path style="fill:#fba86e; stroke:none;" d="M46 30L47 31L46 30z"/>
<path style="fill:#fdccaa; stroke:none;" d="M50 30L51 31L50 30z"/>
<path style="fill:#fba86e; stroke:none;" d="M75 30L76 31L75 30z"/>
<path style="fill:#fdccaa; stroke:none;" d="M79 30L80 31L79 30M16 31L17 32L16 31z"/>
<path style="fill:#fba86e; stroke:none;" d="M20 31L21 32L20 31z"/>
<path style="fill:#fdccaa; stroke:none;" d="M22 31L23 32L22 31z"/>
<path style="fill:#fba86e; stroke:none;" d="M26 31L27 32L26 31z"/>
<path style="fill:#fdccaa; stroke:none;" d="M28 31L29 32L28 31z"/>
<path style="fill:#fa8d42; stroke:none;" d="M32 31L33 32L32 31M38 31L39 32L38 31M44 31L45 32L44 31M47 31L48 32L47 31M75 31L76 32L75 31M78 31L79 32L78 31M17 32L18 33L17 32M23 32L24 33L23 32z"/>
<path style="fill:#fdccaa; stroke:none;" d="M27 32L28 33L27 32z"/>
<path style="fill:#fba86e; stroke:none;" d="M29 32L30 33L29 32z"/>
<path style="fill:#fdccaa; stroke:none;" d="M33 32L34 33L33 32z"/>
<path style="fill:#fba86e; stroke:none;" d="M35 32L36 33L35 32z"/>
<path style="fill:#fdccaa; stroke:none;" d="M39 32L40 33L39 32M41 32L42 33L41 32M45 32L46 33L45 32M47 32L48 33L47 32z"/>
<path style="fill:#fba86e; stroke:none;" d="M51 32L52 33L51 32z"/>
<path style="fill:#fdccaa; stroke:none;" d="M74 32L75 33L74 32M78 32L79 33L78 32z"/>
<path style="fill:#fba86e; stroke:none;" d="M115.333 32.6667L115.667 33.3333L115.333 32.6667z"/>
<path style="fill:#fa8d42; stroke:none;" d="M118.333 32.6667L118.667 33.3333L118.333 32.6667z"/>
<path style="fill:#fdccaa; stroke:none;" d="M17 33L18 34L17 33z"/>
<path style="fill:#fba86e; stroke:none;" d="M21 33L22 34L21 33z"/>
<path style="fill:#fa8d42; stroke:none;" d="M27 33L28 34L27 33M33 33L34 34L33 33M42 33L43 34L42 33M48 33L49 34L48 33M74 33L75 34L74 33M77 33L78 34L77 33z"/>
<path style="fill:#fba86e; stroke:none;" d="M18 34L19 35L18 34z"/>
<path style="fill:#fdccaa; stroke:none;" d="M22 34L23 35L22 34z"/>
<path style="fill:#fba86e; stroke:none;" d="M24 34L25 35L24 34z"/>
<path style="fill:#fdccaa; stroke:none;" d="M28 34L29 35L28 34M30 34L31 35L30 34M34 34L35 35L34 34M36 34L37 35L36 34z"/>
<path style="fill:#fba86e; stroke:none;" d="M40 34L41 35L40 34z"/>
<path style="fill:#fdccaa; stroke:none;" d="M42 34L43 35L42 34z"/>
<path style="fill:#fba86e; stroke:none;" d="M46 34L47 35L46 34z"/>
<path style="fill:#fdccaa; stroke:none;" d="M48 34L49 35L48 34z"/>
<path style="fill:#fa8d42; stroke:none;" d="M52 34L53 35L52 34z"/>
<path style="fill:#fdccaa; stroke:none;" d="M73 34L74 35L73 34M77 34L78 35L77 34z"/>
<path style="fill:#fa8d42; stroke:none;" d="M115 34L116 35L115 34z"/>
<path style="fill:#fba86e; stroke:none;" d="M118 34L119 35L118 34z"/>
<path style="fill:#fa8d42; stroke:none;" d="M22 35L23 36L22 35M28 35L29 36L28 35M31 35L32 36L31 35M37 35L38 36L37 35M43 35L44 36L43 35z"/>
<path style="fill:#fdccaa; stroke:none;" d="M47 35L48 36L47 35z"/>
<path style="fill:#fba86e; stroke:none;" d="M49 35L50 36L49 35z"/>
<path style="fill:#fdccaa; stroke:none;" d="M53 35L54 36L53 35z"/>
<path style="fill:#fba86e; stroke:none;" d="M73 35L74 36L73 35z"/>
<path style="fill:#fdccaa; stroke:none;" d="M118.333 35.6667L118.667 36.3333L118.333 35.6667z"/>
<path style="fill:#fba86e; stroke:none;" d="M19 36L20 37L19 36z"/>
<path style="fill:#fdccaa; stroke:none;" d="M23 36L24 37L23 36M25 36L26 37L25 36z"/>
<path style="fill:#fba86e; stroke:none;" d="M29 36L30 37L29 36z"/>
<path style="fill:#fdccaa; stroke:none;" d="M31 36L32 37L31 36z"/>
<path style="fill:#fba86e; stroke:none;" d="M35 36L36 37L35 36z"/>
<path style="fill:#fdccaa; stroke:none;" d="M37 36L38 37L37 36z"/>
<path style="fill:#fba86e; stroke:none;" d="M41 36L42 37L41 36z"/>
<path style="fill:#fa8d42; stroke:none;" d="M47 36L48 37L47 36M53 36L54 37L53 36z"/>
<path style="fill:#fba86e; stroke:none;" d="M76 36L77 37L76 36z"/>
<path style="fill:#fdccaa; stroke:none;" d="M114.333 36.6667L114.667 37.3333L114.333 36.6667z"/>
<path style="fill:#fa8d42; stroke:none;" d="M20 37L21 38L20 37M26 37L27 38L26 37M32 37L33 38L32 37z"/>
<path style="fill:#fdccaa; stroke:none;" d="M36 37L37 38L36 37z"/>
<path style="fill:#fba86e; stroke:none;" d="M38 37L39 38L38 37z"/>
<path style="fill:#fdccaa; stroke:none;" d="M42 37L43 38L42 37z"/>
<path style="fill:#fba86e; stroke:none;" d="M44 37L45 38L44 37z"/>
<path style="fill:#fdccaa; stroke:none;" d="M48 37L49 38L48 37M50 37L51 38L50 37M54 37L55 38L54 37M72 37L73 38L72 37M76 37L77 38L76 37M20 38L21 39L20 38z"/>
<path style="fill:#fba86e; stroke:none;" d="M24 38L25 39L24 38z"/>
<path style="fill:#fdccaa; stroke:none;" d="M26 38L27 39L26 38z"/>
<path style="fill:#fba86e; stroke:none;" d="M30 38L31 39L30 38z"/>
<path style="fill:#fa8d42; stroke:none;" d="M36 38L37 39L36 38M42 38L43 39L42 38M48 38L49 39L48 38M51 38L52 39L51 38z"/>
<path style="fill:#fba86e; stroke:none;" d="M72 38L73 39L72 38z"/>
<path style="fill:#fa8d42; stroke:none;" d="M114 38L115 39L114 38M117 38L118 39L117 38M21 39L22 40L21 39z"/>
<path style="fill:#fdccaa; stroke:none;" d="M25 39L26 40L25 39z"/>
<path style="fill:#fba86e; stroke:none;" d="M27 39L28 40L27 39z"/>
<path style="fill:#fdccaa; stroke:none;" d="M31 39L32 40L31 39z"/>
<path style="fill:#fba86e; stroke:none;" d="M33 39L34 40L33 39z"/>
<path style="fill:#fdccaa; stroke:none;" d="M37 39L38 40L37 39z"/>
<path style="fill:#fba86e; stroke:none;" d="M39 39L40 40L39 39z"/>
<path style="fill:#fdccaa; stroke:none;" d="M43 39L44 40L43 39M45 39L46 40L45 39z"/>
<path style="fill:#fba86e; stroke:none;" d="M49 39L50 40L49 39z"/>
<path style="fill:#fdccaa; stroke:none;" d="M51 39L52 40L51 39z"/>
<path style="fill:#fba86e; stroke:none;" d="M55 39L56 40L55 39z"/>
<path style="fill:#fa8d42; stroke:none;" d="M72 39L73 40L72 39z"/>
<path style="fill:#fba86e; stroke:none;" d="M75 39L76 40L75 39M117 39L118 40L117 39z"/>
<path style="fill:#fdccaa; stroke:none;" d="M21 40L22 41L21 40z"/>
<path style="fill:#fa8d42; stroke:none;" d="M25 40L26 41L25 40M31 40L32 41L31 40M37 40L38 41L37 40M40 40L41 41L40 40M46 40L47 41L46 40M52 40L53 41L52 40z"/>
<path style="fill:#fdccaa; stroke:none;" d="M56 40L57 41L56 40M75.3333 40.6667L75.6667 41.3333L75.3333 40.6667M113 40L114 41L113 40M117 40L118 41L117 40z"/>
<path style="fill:#fba86e; stroke:none;" d="M22 41L23 42L22 41z"/>
<path style="fill:#fdccaa; stroke:none;" d="M26 41L27 42L26 41z"/>
<path style="fill:#fba86e; stroke:none;" d="M28 41L29 42L28 41z"/>
<path style="fill:#fdccaa; stroke:none;" d="M32 41L33 42L32 41M34 41L35 42L34 41z"/>
<path style="fill:#fba86e; stroke:none;" d="M38 41L39 42L38 41z"/>
<path style="fill:#fdccaa; stroke:none;" d="M40 41L41 42L40 41z"/>
<path style="fill:#fba86e; stroke:none;" d="M44 41L45 42L44 41z"/>
<path style="fill:#fdccaa; stroke:none;" d="M46 41L47 42L46 41z"/>
<path style="fill:#fba86e; stroke:none;" d="M50 41L51 42L50 41z"/>
<path style="fill:#fa8d42; stroke:none;" d="M56 41L57 42L56 41z"/>
<path style="fill:#fdccaa; stroke:none;" d="M71.3333 41.6667L71.6667 42.3333L71.3333 41.6667z"/>
<path style="fill:#fba86e; stroke:none;" d="M113 41L114 42L113 41z"/>
<path style="fill:#fa8d42; stroke:none;" d="M26 42L27 43L26 42M29 42L30 43L29 42M35 42L36 43L35 42M41 42L42 43L41 42z"/>
<path style="fill:#fdccaa; stroke:none;" d="M45 42L47 44L45 42z"/>
<path style="fill:#fba86e; stroke:none;" d="M47 42L48 43L47 42z"/>
<path style="fill:#fdccaa; stroke:none;" d="M51 42L52 43L51 42z"/>
<path style="fill:#fba86e; stroke:none;" d="M53 42L54 43L53 42z"/>
<path style="fill:#fdccaa; stroke:none;" d="M57 42L58 43L57 42z"/>
<path style="fill:#fba86e; stroke:none;" d="M116 42L117 43L116 42z"/>
<path style="fill:#fdccaa; stroke:none;" d="M23 43L24 44L23 43z"/>
<path style="fill:#fba86e; stroke:none;" d="M27 43L28 44L27 43z"/>
<path style="fill:#fdccaa; stroke:none;" d="M29 43L30 44L29 43z"/>
<path style="fill:#fba86e; stroke:none;" d="M33 43L34 44L33 43z"/>
<path style="fill:#fdccaa; stroke:none;" d="M35 43L36 44L35 43z"/>
<path style="fill:#fba86e; stroke:none;" d="M39 43L40 44L39 43z"/>
<path style="fill:#fdccaa; stroke:none;" d="M41 43L42 44L41 43z"/>
<path style="fill:#fa8d42; stroke:none;" d="M45 43L46 44L45 43M47 43L48 44L47 43z"/>
<path style="fill:#fba86e; stroke:none;" d="M51 43L52 44L51 43z"/>
<path style="fill:#fa8d42; stroke:none;" d="M57 43L58 44L57 43z"/>
<path style="fill:#fba86e; stroke:none;" d="M71 43L72 44L71 43z"/>
<path style="fill:#fa8d42; stroke:none;" d="M74 43L75 44L74 43z"/>
<path style="fill:#fdccaa; stroke:none;" d="M112 43L113 44L112 43M116 43L117 44L116 43z"/>
<path style="fill:#fa8d42; stroke:none;" d="M24 44L25 45L24 44M30 44L31 45L30 44z"/>
<path style="fill:#fdccaa; stroke:none;" d="M34 44L35 45L34 44z"/>
<path style="fill:#fba86e; stroke:none;" d="M36 44L37 45L36 44z"/>
<path style="fill:#fdccaa; stroke:none;" d="M40 44L41 45L40 44z"/>
<path style="fill:#fba86e; stroke:none;" d="M42 44L43 45L42 44z"/>
<path style="fill:#fdccaa; stroke:none;" d="M51 44L52 45L51 44M54 44L55 45L54 44z"/>
<path style="fill:#fba86e; stroke:none;" d="M58 44L59 45L58 44z"/>
<path style="fill:#fa8d42; stroke:none;" d="M71.3333 44.6667L71.6667 45.3333L71.3333 44.6667z"/>
<path style="fill:#fba86e; stroke:none;" d="M74.3333 44.6667L74.6667 45.3333L74.3333 44.6667z"/>
<path style="fill:#fa8d42; stroke:none;" d="M112 44L113 45L112 44M115 44L116 45L115 44z"/>
<path style="fill:#fdccaa; stroke:none;" d="M24 45L25 46L24 45z"/>
<path style="fill:#fba86e; stroke:none;" d="M28 45L29 46L28 45z"/>
<path style="fill:#fdccaa; stroke:none;" d="M30 45L31 46L30 45z"/>
<path style="fill:#fa8d42; stroke:none;" d="M34 45L35 46L34 45M40 45L41 46L40 45M49 45L50 46L49 45z"/>
<path style="fill:#fdccaa; stroke:none;" d="M50 45L51 46L50 45z"/>
<path style="fill:#fa8d42; stroke:none;" d="M55 45L56 46L55 45z"/>
<path style="fill:#fdccaa; stroke:none;" d="M111 45L112 46L111 45M115 45L116 46L115 45z"/>
<path style="fill:#fba86e; stroke:none;" d="M25 46L26 47L25 46z"/>
<path style="fill:#fdccaa; stroke:none;" d="M29 46L30 47L29 46z"/>
<path style="fill:#fba86e; stroke:none;" d="M31 46L32 47L31 46z"/>
<path style="fill:#fdccaa; stroke:none;" d="M35 46L36 47L35 46z"/>
<path style="fill:#fba86e; stroke:none;" d="M37 46L38 47L37 46z"/>
<path style="fill:#fdccaa; stroke:none;" d="M41 46L42 47L41 46M43 46L44 47L43 46M48 46L49 47L48 46M55 46L56 47L55 46z"/>
<path style="fill:#fba86e; stroke:none;" d="M59 46L60 47L59 46z"/>
<path style="fill:#fdccaa; stroke:none;" d="M74 46L74 53L75 53L74 46z"/>
<path style="fill:#fa8d42; stroke:none;" d="M111 46L112 47L111 46M114 46L115 47L114 46M29 47L30 48L29 47M35 47L36 48L35 47M38.3333 47.6667L38.6667 48.3333L38.3333 47.6667z"/>
<path style="fill:#fba86e; stroke:none;" d="M44 47L45 48L44 47z"/>
<path style="fill:#fa8d42; stroke:none;" d="M45 47L46 48L45 47z"/>
<path style="fill:#fba86e; stroke:none;" d="M46 47L47 48L46 47M56 47L57 48L56 47z"/>
<path style="fill:#fdccaa; stroke:none;" d="M60 47L61 48L60 47z"/>
<path style="fill:#fba86e; stroke:none;" d="M110 47L111 48L110 47z"/>
<path style="fill:#fdccaa; stroke:none;" d="M114 47L115 48L114 47z"/>
<path style="fill:#fba86e; stroke:none;" d="M26 48L27 49L26 48z"/>
<path style="fill:#fdccaa; stroke:none;" d="M30 48L31 49L30 48M32 48L33 49L32 48z"/>
<path style="fill:#fba86e; stroke:none;" d="M36 48L37 49L36 48z"/>
<path style="fill:#fdccaa; stroke:none;" d="M37 48L38 49L37 48M42.3333 48.6667L42.6667 49.3333L42.3333 48.6667z"/>
<path style="fill:#fa8d42; stroke:none;" d="M60 48L61 49L60 48M113 48L114 49L113 48M27 49L28 50L27 49M33 49L34 50L33 49z"/>
<path style="fill:#fba86e; stroke:none;" d="M57 49L58 50L57 49z"/>
<path style="fill:#fdccaa; stroke:none;" d="M61 49L61 53L62 53L61 49z"/>
<path style="fill:#fba86e; stroke:none;" d="M109 49L110 50L109 49z"/>
<path style="fill:#fdccaa; stroke:none;" d="M113 49L114 50L113 49M27 50L28 51L27 50z"/>
<path style="fill:#fba86e; stroke:none;" d="M31 50L32 51L31 50z"/>
<path style="fill:#fdccaa; stroke:none;" d="M33 50L34 51L33 50M41 50L42 51L41 50M108 50L109 51L108 50z"/>
<path style="fill:#fba86e; stroke:none;" d="M112 50L113 51L112 50z"/>
<path style="fill:#fa8d42; stroke:none;" d="M28 51L29 52L28 51z"/>
<path style="fill:#fba86e; stroke:none;" d="M34 51L35 52L34 51M39 51L40 52L39 51z"/>
<path style="fill:#fdccaa; stroke:none;" d="M28 52L29 53L28 52z"/>
<path style="fill:#fa8d42; stroke:none;" d="M32 52L33 53L32 52M37 52L38 53L37 52z"/>
<path style="fill:#fdccaa; stroke:none;" d="M57 52L57 55L58 55L57 52z"/>
<path style="fill:#fa8d42; stroke:none;" d="M107 52L108 53L107 52z"/>
<path style="fill:#fdccaa; stroke:none;" d="M111 52L112 53L111 52z"/>
<path style="fill:#fba86e; stroke:none;" d="M29 53L30 54L29 53z"/>
<path style="fill:#fdccaa; stroke:none;" d="M33 53L34 54L33 53z"/>
<path style="fill:#fba86e; stroke:none;" d="M74.3333 53.6667L74.6667 54.3333L74.3333 53.6667M106 53L107 54L106 53M110 53L111 54L110 53z"/>
<path style="fill:#fa8d42; stroke:none;" d="M33 54L34 55L33 54M71 54L72 55L71 54z"/>
<path style="fill:#fba86e; stroke:none;" d="M105 54L106 55L105 54z"/>
<path style="fill:#fa8d42; stroke:none;" d="M109 54L110 55L109 54z"/>
<path style="fill:#fdccaa; stroke:none;" d="M30 55L31 56L30 55M34 55L35 56L34 55z"/>
<path style="fill:#fba86e; stroke:none;" d="M57.3333 55.6667L57.6667 56.3333L57.3333 55.6667z"/>
<path style="fill:#fa8d42; stroke:none;" d="M60.3333 55.6667L60.6667 56.3333L60.3333 55.6667z"/>
<path style="fill:#fba86e; stroke:none;" d="M71.3333 55.6667L71.6667 56.3333L71.3333 55.6667z"/>
<path style="fill:#fa8d42; stroke:none;" d="M74 55L75 56L74 55z"/>
<path style="fill:#fba86e; stroke:none;" d="M104 55L105 56L104 55z"/>
<path style="fill:#fa8d42; stroke:none;" d="M31 56L32 57L31 56z"/>
<path style="fill:#fba86e; stroke:none;" d="M103 56L104 57L103 56z"/>
<path style="fill:#fdccaa; stroke:none;" d="M108 56L109 57L108 56M31 57L32 58L31 57z"/>
<path style="fill:#fba86e; stroke:none;" d="M35 57L36 58L35 57z"/>
<path style="fill:#fa8d42; stroke:none;" d="M57 57L58 58L57 57z"/>
<path style="fill:#fba86e; stroke:none;" d="M60.3333 57.6667L60.6667 58.3333L60.3333 57.6667z"/>
<path style="fill:#fdccaa; stroke:none;" d="M71.3333 57.6667L71.6667 58.3333L71.3333 57.6667z"/>
<path style="fill:#fba86e; stroke:none;" d="M102 57L103 58L102 57z"/>
<path style="fill:#fdccaa; stroke:none;" d="M107 57L108 58L107 57z"/>
<path style="fill:#fa8d42; stroke:none;" d="M32 58L33 59L32 58z"/>
<path style="fill:#fdccaa; stroke:none;" d="M36 58L37 59L36 58M75 58L76 59L75 58z"/>
<path style="fill:#fa8d42; stroke:none;" d="M101 58L102 59L101 58z"/>
<path style="fill:#fdccaa; stroke:none;" d="M106 58L107 59L106 58M32 59L33 60L32 59z"/>
<path style="fill:#fa8d42; stroke:none;" d="M36 59L37 60L36 59z"/>
<path style="fill:#fdccaa; stroke:none;" d="M60.3333 59.6667L60.6667 60.3333L60.3333 59.6667z"/>
<path style="fill:#fba86e; stroke:none;" d="M75 59L76 60L75 59z"/>
<path style="fill:#fdccaa; stroke:none;" d="M99 59L100 60L99 59z"/>
<path style="fill:#fa8d42; stroke:none;" d="M100 59L101 60L100 59z"/>
<path style="fill:#fdccaa; stroke:none;" d="M105 59L106 60L105 59z"/>
<path style="fill:#fba86e; stroke:none;" d="M33 60L34 61L33 60z"/>
<path style="fill:#fdccaa; stroke:none;" d="M37 60L38 61L37 60M56 60L56 64L57 64L56 60z"/>
<path style="fill:#fba86e; stroke:none;" d="M72 60L73 61L72 60z"/>
<path style="fill:#fa8d42; stroke:none;" d="M75 60L76 61L75 60z"/>
<path style="fill:#fba86e; stroke:none;" d="M98 60L99 61L98 60z"/>
<path style="fill:#fa8d42; stroke:none;" d="M103 60L104 61L103 60M37 61L38 62L37 61z"/>
<path style="fill:#fdccaa; stroke:none;" d="M72 61L73 62L72 61M96 61L97 62L96 61z"/>
<path style="fill:#fa8d42; stroke:none;" d="M97 61L98 62L97 61M102 61L103 62L102 61z"/>
<path style="fill:#fdccaa; stroke:none;" d="M34 62L35 63L34 62z"/>
<path style="fill:#fba86e; stroke:none;" d="M39 62L40 63L39 62z"/>
<path style="fill:#fdccaa; stroke:none;" d="M76.3333 62.6667L76.6667 63.3333L76.3333 62.6667z"/>
<path style="fill:#fba86e; stroke:none;" d="M95 62L96 63L95 62M101 62L102 63L101 62z"/>
<path style="fill:#fa8d42; stroke:none;" d="M35 63L37 65L35 63z"/>
<path style="fill:#fba86e; stroke:none;" d="M41 63L42 64L41 63z"/>
<path style="fill:#fdccaa; stroke:none;" d="M42 63L43 64L42 63M60 63L61 64L60 63M72 63L73 64L72 63z"/>
<path style="fill:#fba86e; stroke:none;" d="M93 63L94 64L93 63z"/>
<path style="fill:#fa8d42; stroke:none;" d="M99 63L100 64L99 63z"/>
<path style="fill:#fdccaa; stroke:none;" d="M100 63L101 64L100 63M35 64L36 65L35 64z"/>
<path style="fill:#fa8d42; stroke:none;" d="M43 64L44 65L43 64z"/>
<path style="fill:#fdccaa; stroke:none;" d="M44 64L45 65L44 64z"/>
<path style="fill:#fa8d42; stroke:none;" d="M57 64L58 65L57 64M72 64L73 65L72 64z"/>
<path style="fill:#fdccaa; stroke:none;" d="M90 64L91 65L90 64z"/>
<path style="fill:#fba86e; stroke:none;" d="M91 64L92 65L91 64M98 64L99 65L98 64z"/>
<path style="fill:#fdccaa; stroke:none;" d="M37 65L38 66L37 65z"/>
<path style="fill:#fba86e; stroke:none;" d="M38 65L39 66L38 65M46 65L47 66L46 65z"/>
<path style="fill:#fdccaa; stroke:none;" d="M57 65L58 66L57 65z"/>
<path style="fill:#fba86e; stroke:none;" d="M61 65L62 66L61 65M71 65L72 66L71 65z"/>
<path style="fill:#fdccaa; stroke:none;" d="M75 65L76 66L75 65M87 65L88 66L87 65z"/>
<path style="fill:#fba86e; stroke:none;" d="M88 65L89 66L88 65M96 65L97 66L96 65M40 66L41 67L40 66z"/>
<path style="fill:#fa8d42; stroke:none;" d="M48 66L49 67L48 66z"/>
<path style="fill:#fdccaa; stroke:none;" d="M49 66L50 67L49 66z"/>
<path style="fill:#fa8d42; stroke:none;" d="M58 66L59 67L58 66M74 66L75 67L74 66z"/>
<path style="fill:#fba86e; stroke:none;" d="M84 66L85 67L84 66z"/>
<path style="fill:#fa8d42; stroke:none;" d="M85 66L86 67L85 66z"/>
<path style="fill:#fba86e; stroke:none;" d="M94 66L95 67L94 66z"/>
<path style="fill:#fdccaa; stroke:none;" d="M95 66L96 67L95 66M42 67L43 68L42 67z"/>
<path style="fill:#fa8d42; stroke:none;" d="M43 67L44 68L43 67z"/>
<path style="fill:#fba86e; stroke:none;" d="M50 67L51 68L50 67z"/>
<path style="fill:#fdccaa; stroke:none;" d="M58 67L59 68L58 67z"/>
<path style="fill:#fa8d42; stroke:none;" d="M62 67L63 68L62 67z"/>
<path style="fill:#fba86e; stroke:none;" d="M70 67L71 68L70 67z"/>
<path style="fill:#fdccaa; stroke:none;" d="M74 67L75 68L74 67M82 67L83 68L82 67z"/>
<path style="fill:#fba86e; stroke:none;" d="M92 67L93 68L92 67z"/>
<path style="fill:#fdccaa; stroke:none;" d="M44 68L45 69L44 68z"/>
<path style="fill:#fba86e; stroke:none;" d="M45 68L46 69L45 68M59 68L60 69L59 68z"/>
<path style="fill:#fdccaa; stroke:none;" d="M63 68L64 69L63 68M69 68L70 69L69 68z"/>
<path style="fill:#fba86e; stroke:none;" d="M73 68L74 69L73 68M89 68L90 69L89 68z"/>
<path style="fill:#fdccaa; stroke:none;" d="M90 68L91 69L90 68z"/>
<path style="fill:#fba86e; stroke:none;" d="M47 69L48 70L47 69M51 69L52 70L51 69z"/>
<path style="fill:#fa8d42; stroke:none;" d="M63 69L64 70L63 69M69 69L70 70L69 69z"/>
<path style="fill:#fba86e; stroke:none;" d="M81 69L82 70L81 69z"/>
<path style="fill:#fa8d42; stroke:none;" d="M85 69L86 70L85 69z"/>
<path style="fill:#fba86e; stroke:none;" d="M86 69L87 70L86 69z"/>
<path style="fill:#fdccaa; stroke:none;" d="M87 69L88 70L87 69z"/>
<path style="fill:#fba86e; stroke:none;" d="M48 70L49 71L48 70z"/>
<path style="fill:#fdccaa; stroke:none;" d="M52 70L53 71L52 70M60 70L61 71L60 70M64 70L65 71L64 70M68 70L69 71L68 70z"/>
<path style="fill:#fba86e; stroke:none;" d="M72 70L73 71L72 70z"/>
<path style="fill:#fdccaa; stroke:none;" d="M80 70L81 71L80 70z"/>
<path style="fill:#fba86e; stroke:none;" d="M84 70L85 71L84 70z"/>
<path style="fill:#fa8d42; stroke:none;" d="M52 71L53 72L52 71M61 71L62 72L61 71M69 71L70 72L69 71M71 71L72 72L71 71M80 71L81 72L80 71z"/>
<path style="fill:#fba86e; stroke:none;" d="M49 72L50 73L49 72z"/>
<path style="fill:#fdccaa; stroke:none;" d="M53 72L54 73L53 72M61 72L62 73L61 72z"/>
<path style="fill:#fba86e; stroke:none;" d="M65 72L66 73L65 72z"/>
<path style="fill:#fdccaa; stroke:none;" d="M70 72L71 73L70 72M79 72L80 73L79 72z"/>
<path style="fill:#fba86e; stroke:none;" d="M83 72L84 73L83 72z"/>
<path style="fill:#fa8d42; stroke:none;" d="M50 73L51 74L50 73M62 73L63 74L62 73z"/>
<path style="fill:#fdccaa; stroke:none;" d="M66 73L67 74L66 73z"/>
<path style="fill:#fa8d42; stroke:none;" d="M82 73L83 74L82 73z"/>
<path style="fill:#fdccaa; stroke:none;" d="M50 74L51 75L50 74z"/>
<path style="fill:#fba86e; stroke:none;" d="M54 74L55 75L54 74z"/>
<path style="fill:#fa8d42; stroke:none;" d="M66 74L67 75L66 74z"/>
<path style="fill:#fba86e; stroke:none;" d="M78 74L79 75L78 74z"/>
<path style="fill:#fdccaa; stroke:none;" d="M82 74L83 75L82 74z"/>
<path style="fill:#fa8d42; stroke:none;" d="M51 75L52 76L51 75z"/>
<path style="fill:#fdccaa; stroke:none;" d="M55 75L56 76L55 75z"/>
<path style="fill:#fba86e; stroke:none;" d="M63 75L64 76L63 75z"/>
<path style="fill:#fdccaa; stroke:none;" d="M67 75L68 76L67 75z"/>
<path style="fill:#fa8d42; stroke:none;" d="M81 75L82 76L81 75z"/>
<path style="fill:#fdccaa; stroke:none;" d="M51 76L52 77L51 76z"/>
<path style="fill:#fa8d42; stroke:none;" d="M55 76L56 77L55 76M67 76L68 77L67 76M77 76L78 77L77 76z"/>
<path style="fill:#fdccaa; stroke:none;" d="M81 76L82 77L81 76z"/>
<path style="fill:#fba86e; stroke:none;" d="M52 77L53 78L52 77z"/>
<path style="fill:#fdccaa; stroke:none;" d="M56 77L57 78L56 77M64 77L65 78L64 77z"/>
<path style="fill:#fba86e; stroke:none;" d="M68 77L69 78L68 77z"/>
<path style="fill:#fdccaa; stroke:none;" d="M76 77L77 78L76 77z"/>
<path style="fill:#fba86e; stroke:none;" d="M80 77L81 78L80 77z"/>
<path style="fill:#fa8d42; stroke:none;" d="M56 78L57 79L56 78M65 78L66 79L65 78M76 78L77 79L76 78z"/>
<path style="fill:#fdccaa; stroke:none;" d="M53 79L54 80L53 79z"/>
<path style="fill:#fba86e; stroke:none;" d="M57 79L58 80L57 79z"/>
<path style="fill:#fdccaa; stroke:none;" d="M65 79L66 80L65 79z"/>
<path style="fill:#fba86e; stroke:none;" d="M69 79L70 80L69 79z"/>
<path style="fill:#fdccaa; stroke:none;" d="M75 79L76 80L75 79M79 79L80 80L79 79z"/>
<path style="fill:#fa8d42; stroke:none;" d="M54 80L55 81L54 80z"/>
<path style="fill:#fba86e; stroke:none;" d="M66 80L67 81L66 80z"/>
<path style="fill:#fdccaa; stroke:none;" d="M70 80L71 81L70 80z"/>
<path style="fill:#fa8d42; stroke:none;" d="M78 80L79 81L78 80z"/>
<path style="fill:#fdccaa; stroke:none;" d="M54 81L55 82L54 81z"/>
<path style="fill:#fba86e; stroke:none;" d="M58 81L59 82L58 81z"/>
<path style="fill:#fa8d42; stroke:none;" d="M70 81L71 82L70 81z"/>
<path style="fill:#fba86e; stroke:none;" d="M74 81L75 82L74 81z"/>
<path style="fill:#fdccaa; stroke:none;" d="M78 81L79 82L78 81z"/>
<path style="fill:#fba86e; stroke:none;" d="M55 82L56 83L55 82z"/>
<path style="fill:#fdccaa; stroke:none;" d="M59 82L60 83L59 82z"/>
<path style="fill:#fba86e; stroke:none;" d="M67 82L68 83L67 82z"/>
<path style="fill:#fdccaa; stroke:none;" d="M71 82L72 83L71 82z"/>
<path style="fill:#fa8d42; stroke:none;" d="M74 82L75 83L74 82M77 82L78 83L77 82M59 83L60 84L59 83M68 83L69 84L68 83z"/>
<path style="fill:#fba86e; stroke:none;" d="M74 83L75 84L74 83M56 84L57 85L56 84z"/>
<path style="fill:#fdccaa; stroke:none;" d="M60 84L61 85L60 84M68 84L69 85L68 84z"/>
<path style="fill:#fba86e; stroke:none;" d="M72 84L73 85L72 84z"/>
<path style="fill:#fa8d42; stroke:none;" d="M57 85L58 86L57 85M69 85L70 86L69 85z"/>
<path style="fill:#fdccaa; stroke:none;" d="M57 86L58 87L57 86z"/>
<path style="fill:#fba86e; stroke:none;" d="M61 86L62 87L61 86z"/>
<path style="fill:#fdccaa; stroke:none;" d="M69 86L70 87L69 86z"/>
<path style="fill:#fa8d42; stroke:none;" d="M73 86L74 87L73 86M58 87L59 88L58 87z"/>
<path style="fill:#fba86e; stroke:none;" d="M70 87L71 88L70 87z"/>
<path style="fill:#fdccaa; stroke:none;" d="M74 87L75 88L74 87M58 88L59 89L58 88z"/>
<path style="fill:#fa8d42; stroke:none;" d="M62 88L63 89L62 88M74 88L75 89L74 88z"/>
<path style="fill:#fba86e; stroke:none;" d="M59 89L60 90L59 89z"/>
<path style="fill:#fdccaa; stroke:none;" d="M63 89L64 90L63 89M71 89L72 90L71 89M75 89L76 90L75 89z"/>
<path style="fill:#fa8d42; stroke:none;" d="M63 90L64 91L63 90M72 90L73 91L72 90z"/>
<path style="fill:#fdccaa; stroke:none;" d="M60 91L61 92L60 91M64 91L65 92L64 91M72 91L73 92L72 91z"/>
<path style="fill:#fba86e; stroke:none;" d="M76 91L77 92L76 91z"/>
<path style="fill:#fdccaa; stroke:none;" d="M55 92L56 93L55 92z"/>
<path style="fill:#f97419; stroke:none;" d="M56 92L26 146C43.0832 151.404 48.6387 132.024 55.7994 120C58.9221 114.757 64.4121 108.223 64 102L63 102C55.3128 113.617 45.5072 144.151 30 145C35.7731 126.763 55.507 111.044 58 92L56 92z"/>
<path style="fill:#fdccaa; stroke:none;" d="M58 92L59 93L58 92z"/>
<path style="fill:#fa8d42; stroke:none;" d="M61 92L62 93L61 92M73 92L74 93L73 92z"/>
<path style="fill:#fdccaa; stroke:none;" d="M77 92L78 93L77 92z"/>
<path style="fill:#fa8d42; stroke:none;" d="M55 93L56 94L55 93M58 93L59 94L58 93z"/>
<path style="fill:#fdccaa; stroke:none;" d="M61 93L62 94L61 93z"/>
<path style="fill:#fba86e; stroke:none;" d="M65 93L66 94L65 93z"/>
<path style="fill:#fa8d42; stroke:none;" d="M77 93L78 94L77 93z"/>
<path style="fill:#fdccaa; stroke:none;" d="M54 94L55 95L54 94z"/>
<path style="fill:#fba86e; stroke:none;" d="M58 94L59 95L58 94z"/>
<path style="fill:#fa8d42; stroke:none;" d="M62 94L63 95L62 94z"/>
<path style="fill:#fdccaa; stroke:none;" d="M66 94L67 95L66 94z"/>
<path style="fill:#fba86e; stroke:none;" d="M74 94L75 95L74 94z"/>
<path style="fill:#fdccaa; stroke:none;" d="M78 94L79 95L78 94z"/>
<path style="fill:#fa8d42; stroke:none;" d="M54 95L55 96L54 95M66 95L67 96L66 95M78 95L79 96L78 95z"/>
<path style="fill:#fba86e; stroke:none;" d="M53 96L54 97L53 96z"/>
<path style="fill:#fdccaa; stroke:none;" d="M57 96L58 97L57 96z"/>
<path style="fill:#fba86e; stroke:none;" d="M63 96L64 97L63 96z"/>
<path style="fill:#fdccaa; stroke:none;" d="M67 96L68 97L67 96M75 96L76 97L75 96z"/>
<path style="fill:#fba86e; stroke:none;" d="M79 96L80 97L79 96z"/>
<path style="fill:#fa8d42; stroke:none;" d="M56 97L57 98L56 97M67 97L68 98L67 97M76 97L77 98L76 97z"/>
<path style="fill:#fba86e; stroke:none;" d="M52 98L53 99L52 98z"/>
<path style="fill:#fdccaa; stroke:none;" d="M56 98L57 99L56 98M64 98L65 99L64 98z"/>
<path style="fill:#fba86e; stroke:none;" d="M68 98L69 99L68 98z"/>
<path style="fill:#fdccaa; stroke:none;" d="M76 98L77 99L76 98z"/>
<path style="fill:#fba86e; stroke:none;" d="M80 98L81 99L80 98z"/>
<path style="fill:#fdccaa; stroke:none;" d="M51 99L52 100L51 99z"/>
<path style="fill:#fba86e; stroke:none;" d="M55 99L56 100L55 99z"/>
<path style="fill:#fa8d42; stroke:none;" d="M65 99L66 100L65 99z"/>
<path style="fill:#fba86e; stroke:none;" d="M77 99L78 100L77 99z"/>
<path style="fill:#fdccaa; stroke:none;" d="M81 99L82 100L81 99z"/>
<path style="fill:#fa8d42; stroke:none;" d="M51 100L52 101L51 100z"/>
<path style="fill:#fdccaa; stroke:none;" d="M65 100L66 101L65 100z"/>
<path style="fill:#fba86e; stroke:none;" d="M69 100L70 101L69 100z"/>
<path style="fill:#fa8d42; stroke:none;" d="M81 100L82 101L81 100z"/>
<path style="fill:#fdccaa; stroke:none;" d="M50 101L51 102L50 101z"/>
<path style="fill:#fba86e; stroke:none;" d="M54 101L55 102L54 101M66 101L67 102L66 101z"/>
<path style="fill:#fdccaa; stroke:none;" d="M70 101L71 102L70 101z"/>
<path style="fill:#fba86e; stroke:none;" d="M78 101L79 102L78 101z"/>
<path style="fill:#fdccaa; stroke:none;" d="M82 101L83 102L82 101z"/>
<path style="fill:#fa8d42; stroke:none;" d="M53 102L54 103L53 102M62 102L63 103L62 102M64 102L65 103L64 102M70 102L71 103L70 102M79 102L80 103L79 102z"/>
<path style="fill:#fba86e; stroke:none;" d="M49 103L50 104L49 103z"/>
<path style="fill:#fdccaa; stroke:none;" d="M53 103L54 104L53 103M61 103L62 104L61 103M65 103L66 104L65 103z"/>
<path style="fill:#fba86e; stroke:none;" d="M67 103L68 104L67 103z"/>
<path style="fill:#fdccaa; stroke:none;" d="M71 103L72 104L71 103M79 103L80 104L79 103z"/>
<path style="fill:#fba86e; stroke:none;" d="M83 103L84 104L83 103z"/>
<path style="fill:#fa8d42; stroke:none;" d="M52 104L53 105L52 104M61 104L62 105L61 104M68 104L69 105L68 104M80 104L81 105L80 104z"/>
<path style="fill:#fdccaa; stroke:none;" d="M84 104L85 105L84 104z"/>
<path style="fill:#fa8d42; stroke:none;" d="M48 105L49 106L48 105z"/>
<path style="fill:#fdccaa; stroke:none;" d="M52 105L53 106L52 105z"/>
<path style="fill:#fba86e; stroke:none;" d="M60 105L61 106L60 105z"/>
<path style="fill:#fdccaa; stroke:none;" d="M64 105L65 106L64 105M68 105L69 106L68 105z"/>
<path style="fill:#fba86e; stroke:none;" d="M72 105L73 106L72 105z"/>
<path style="fill:#fdccaa; stroke:none;" d="M80 105L81 106L80 105z"/>
<path style="fill:#fa8d42; stroke:none;" d="M84 105L85 106L84 105z"/>
<path style="fill:#fdccaa; stroke:none;" d="M47 106L48 107L47 106z"/>
<path style="fill:#fba86e; stroke:none;" d="M51 106L52 107L51 106z"/>
<path style="fill:#fa8d42; stroke:none;" d="M63 106L64 107L63 106M69 106L70 107L69 106z"/>
<path style="fill:#fdccaa; stroke:none;" d="M73 106L74 107L73 106z"/>
<path style="fill:#fba86e; stroke:none;" d="M81 106L82 107L81 106z"/>
<path style="fill:#fdccaa; stroke:none;" d="M85 106L86 107L85 106z"/>
<path style="fill:#fa8d42; stroke:none;" d="M47 107L48 108L47 107z"/>
<path style="fill:#fba86e; stroke:none;" d="M59 107L60 108L59 107z"/>
<path style="fill:#fdccaa; stroke:none;" d="M63 107L64 108L63 107M69 107L70 108L69 107z"/>
<path style="fill:#fa8d42; stroke:none;" d="M73 107L74 108L73 107M85 107L86 108L85 107z"/>
<path style="fill:#fdccaa; stroke:none;" d="M46 108L47 109L46 108z"/>
<path style="fill:#fba86e; stroke:none;" d="M50 108L51 109L50 108z"/>
<path style="fill:#fdccaa; stroke:none;" d="M58 108L59 109L58 108z"/>
<path style="fill:#fba86e; stroke:none;" d="M62 108L63 109L62 108M70 108L71 109L70 108z"/>
<path style="fill:#fdccaa; stroke:none;" d="M74 108L75 109L74 108M82 108L83 109L82 108z"/>
<path style="fill:#fba86e; stroke:none;" d="M86 108L87 109L86 108z"/>
<path style="fill:#fa8d42; stroke:none;" d="M49 109L50 110L49 109M58 109L59 110L58 109M74 109L75 110L74 109M83 109L84 110L83 109z"/>
<path style="fill:#fba86e; stroke:none;" d="M45 110L46 111L45 110z"/>
<path style="fill:#fdccaa; stroke:none;" d="M49 110L50 111L49 110M57 110L58 111L57 110z"/>
<path style="fill:#fba86e; stroke:none;" d="M61 110L62 111L61 110z"/>
<path style="fill:#fdccaa; stroke:none;" d="M71 110L72 111L71 110M75 110L76 111L75 110M83 110L84 111L83 110z"/>
<path style="fill:#fba86e; stroke:none;" d="M87 110L88 111L87 110z"/>
<path style="fill:#fdccaa; stroke:none;" d="M44 111L45 112L44 111z"/>
<path style="fill:#fa8d42; stroke:none;" d="M48 111L49 112L48 111M60 111L61 112L60 111M72 111L73 112L72 111z"/>
<path style="fill:#fba86e; stroke:none;" d="M84 111L85 112L84 111z"/>
<path style="fill:#fdccaa; stroke:none;" d="M88 111L89 112L88 111z"/>
<path style="fill:#fa8d42; stroke:none;" d="M44 112L45 113L44 112z"/>
<path style="fill:#fdccaa; stroke:none;" d="M48 112L49 113L48 112z"/>
<path style="fill:#fba86e; stroke:none;" d="M56 112L57 113L56 112z"/>
<path style="fill:#fdccaa; stroke:none;" d="M60 112L61 113L60 112M72 112L73 113L72 112z"/>
<path style="fill:#fba86e; stroke:none;" d="M76 112L77 113L76 112z"/>
<path style="fill:#fa8d42; stroke:none;" d="M88 112L89 113L88 112z"/>
<path style="fill:#fdccaa; stroke:none;" d="M43 113L44 114L43 113z"/>
<path style="fill:#fba86e; stroke:none;" d="M47 113L48 114L47 113z"/>
<path style="fill:#fdccaa; stroke:none;" d="M55 113L56 114L55 113z"/>
<path style="fill:#fa8d42; stroke:none;" d="M59 113L60 114L59 113M73 113L74 114L73 113z"/>
<path style="fill:#fdccaa; stroke:none;" d="M77 113L78 114L77 113z"/>
<path style="fill:#fba86e; stroke:none;" d="M85 113L86 114L85 113z"/>
<path style="fill:#fdccaa; stroke:none;" d="M89 113L90 114L89 113z"/>
<path style="fill:#fa8d42; stroke:none;" d="M43 114L44 115L43 114M55 114L56 115L55 114z"/>
<path style="fill:#fdccaa; stroke:none;" d="M59 114L60 115L59 114z"/>
<path style="fill:#fa8d42; stroke:none;" d="M77 114L78 115L77 114M86 114L87 115L86 114z"/>
<path style="fill:#fba86e; stroke:none;" d="M42 115L43 116L42 115z"/>
<path style="fill:#fdccaa; stroke:none;" d="M46 115L47 116L46 115M54 115L55 116L54 115z"/>
<path style="fill:#fba86e; stroke:none;" d="M58 115L59 116L58 115M74 115L75 116L74 115z"/>
<path style="fill:#fdccaa; stroke:none;" d="M78 115L79 116L78 115M86 115L87 116L86 115z"/>
<path style="fill:#fba86e; stroke:none;" d="M90 115L91 116L90 115z"/>
<path style="fill:#fa8d42; stroke:none;" d="M45 116L46 117L45 116M54 116L55 117L54 116M78 116L79 117L78 116M87 116L88 117L87 116z"/>
<path style="fill:#fba86e; stroke:none;" d="M41 117L42 118L41 117z"/>
<path style="fill:#fdccaa; stroke:none;" d="M45 117L46 118L45 117z"/>
<path style="fill:#fba86e; stroke:none;" d="M53 117L54 118L53 117z"/>
<path style="fill:#fdccaa; stroke:none;" d="M57 117L58 118L57 117M75 117L76 118L75 117z"/>
<path style="fill:#fba86e; stroke:none;" d="M79 117L80 118L79 117z"/>
<path style="fill:#fdccaa; stroke:none;" d="M87 117L88 118L87 117z"/>
<path style="fill:#fa8d42; stroke:none;" d="M91 117L92 118L91 117z"/>
<path style="fill:#fdccaa; stroke:none;" d="M40 118L41 119L40 118z"/>
<path style="fill:#fba86e; stroke:none;" d="M44 118L45 119L44 118z"/>
<path style="fill:#fa8d42; stroke:none;" d="M56 118L57 119L56 118M76 118L77 119L76 118z"/>
<path style="fill:#fba86e; stroke:none;" d="M88 118L89 119L88 118z"/>
<path style="fill:#fdccaa; stroke:none;" d="M92 118L93 119L92 118z"/>
<path style="fill:#fa8d42; stroke:none;" d="M40 119L41 120L40 119z"/>
<path style="fill:#fba86e; stroke:none;" d="M52 119L53 120L52 119z"/>
<path style="fill:#fdccaa; stroke:none;" d="M56 119L57 120L56 119M76 119L77 120L76 119z"/>
<path style="fill:#fba86e; stroke:none;" d="M80 119L81 120L80 119z"/>
<path style="fill:#fa8d42; stroke:none;" d="M92 119L93 120L92 119z"/>
<path style="fill:#fdccaa; stroke:none;" d="M39 120L40 121L39 120z"/>
<path style="fill:#fba86e; stroke:none;" d="M43 120L44 121L43 120z"/>
<path style="fill:#fdccaa; stroke:none;" d="M51 120L52 121L51 120z"/>
<path style="fill:#fba86e; stroke:none;" d="M55 120L56 121L55 120M77 120L78 121L77 120z"/>
<path style="fill:#fdccaa; stroke:none;" d="M81 120L82 121L81 120M89 120L90 121L89 120M93 120L94 121L93 120z"/>
<path style="fill:#fa8d42; stroke:none;" d="M42 121L43 122L42 121M51 121L52 122L51 121M81 121L82 122L81 121M90 121L91 122L90 121z"/>
<path style="fill:#fba86e; stroke:none;" d="M38 122L39 123L38 122z"/>
<path style="fill:#fdccaa; stroke:none;" d="M42 122L43 123L42 122M50 122L51 123L50 122z"/>
<path style="fill:#fba86e; stroke:none;" d="M54 122L55 123L54 122M78 122L79 123L78 122z"/>
<path style="fill:#fdccaa; stroke:none;" d="M82 122L83 123L82 122M90 122L91 123L90 122z"/>
<path style="fill:#fba86e; stroke:none;" d="M94 122L95 123L94 122z"/>
<path style="fill:#fa8d42; stroke:none;" d="M41 123L42 124L41 123M53 123L54 124L53 123M79 123L80 124L79 123M91 123L92 124L91 123z"/>
<path style="fill:#fdccaa; stroke:none;" d="M95 123L96 124L95 123z"/>
<path style="fill:#fa8d42; stroke:none;" d="M37 124L38 125L37 124z"/>
<path style="fill:#fdccaa; stroke:none;" d="M41 124L42 125L41 124z"/>
<path style="fill:#fba86e; stroke:none;" d="M49 124L50 125L49 124z"/>
<path style="fill:#fdccaa; stroke:none;" d="M53 124L54 125L53 124M79 124L80 125L79 124z"/>
<path style="fill:#fba86e; stroke:none;" d="M83 124L84 125L83 124z"/>
<path style="fill:#fdccaa; stroke:none;" d="M91 124L92 125L91 124z"/>
<path style="fill:#fa8d42; stroke:none;" d="M95 124L96 125L95 124z"/>
<path style="fill:#fdccaa; stroke:none;" d="M36 125L37 126L36 125z"/>
<path style="fill:#fba86e; stroke:none;" d="M40 125L41 126L40 125z"/>
<path style="fill:#fa8d42; stroke:none;" d="M52 125L53 126L52 125M80 125L81 126L80 125z"/>
<path style="fill:#fdccaa; stroke:none;" d="M84 125L85 126L84 125z"/>
<path style="fill:#fba86e; stroke:none;" d="M92 125L93 126L92 125z"/>
<path style="fill:#fdccaa; stroke:none;" d="M96 125L97 126L96 125z"/>
<path style="fill:#fa8d42; stroke:none;" d="M36 126L37 127L36 126M48 126L49 127L48 126z"/>
<path style="fill:#fdccaa; stroke:none;" d="M52 126L53 127L52 126M80 126L81 127L80 126z"/>
<path style="fill:#fa8d42; stroke:none;" d="M84 126L85 127L84 126M96 126L97 127L96 126z"/>
<path style="fill:#fdccaa; stroke:none;" d="M35 127L36 128L35 127M39 127L40 128L39 127M47 127L48 128L47 127z"/>
<path style="fill:#fba86e; stroke:none;" d="M51 127L52 128L51 127M81 127L82 128L81 127z"/>
<path style="fill:#fdccaa; stroke:none;" d="M85 127L86 128L85 127M93 127L94 128L93 127z"/>
<path style="fill:#fba86e; stroke:none;" d="M97 127L98 128L97 127z"/>
<path style="fill:#fa8d42; stroke:none;" d="M38 128L39 129L38 128M47 128L48 129L47 128M85 128L86 129L85 128M94 128L95 129L94 128z"/>
<path style="fill:#fba86e; stroke:none;" d="M34 129L35 130L34 129z"/>
<path style="fill:#fdccaa; stroke:none;" d="M38 129L39 130L38 129M46 129L47 130L46 129M50 129L51 130L50 129M82 129L83 130L82 129z"/>
<path style="fill:#fba86e; stroke:none;" d="M86 129L87 130L86 129z"/>
<path style="fill:#fdccaa; stroke:none;" d="M94 129L95 130L94 129z"/>
<path style="fill:#fba86e; stroke:none;" d="M98 129L99 130L98 129z"/>
<path style="fill:#fdccaa; stroke:none;" d="M33 130L34 131L33 130z"/>
<path style="fill:#fa8d42; stroke:none;" d="M37 130L38 131L37 130M49 130L50 131L49 130M83 130L84 131L83 130z"/>
<path style="fill:#fba86e; stroke:none;" d="M95 130L96 131L95 130z"/>
<path style="fill:#fdccaa; stroke:none;" d="M99 130L100 131L99 130z"/>
<path style="fill:#fa8d42; stroke:none;" d="M33 131L34 132L33 131z"/>
<path style="fill:#fba86e; stroke:none;" d="M45 131L46 132L45 131z"/>
<path style="fill:#fdccaa; stroke:none;" d="M49 131L50 132L49 131M83 131L84 132L83 131z"/>
<path style="fill:#fba86e; stroke:none;" d="M87 131L88 132L87 131z"/>
<path style="fill:#fa8d42; stroke:none;" d="M99 131L100 132L99 131z"/>
<path style="fill:#fdccaa; stroke:none;" d="M32 132L33 133L32 132z"/>
<path style="fill:#fba86e; stroke:none;" d="M36 132L37 133L36 132z"/>
<path style="fill:#fdccaa; stroke:none;" d="M44 132L45 133L44 132z"/>
<path style="fill:#fa8d42; stroke:none;" d="M48 132L49 133L48 132z"/>
<path style="fill:#fba86e; stroke:none;" d="M84 132L85 133L84 132z"/>
<path style="fill:#fdccaa; stroke:none;" d="M88 132L89 133L88 132z"/>
<path style="fill:#fba86e; stroke:none;" d="M96 132L97 133L96 132z"/>
<path style="fill:#fdccaa; stroke:none;" d="M100 132L101 133L100 132z"/>
<path style="fill:#fa8d42; stroke:none;" d="M32 133L33 134L32 133M44 133L45 134L44 133M88 133L89 134L88 133M97 133L98 134L97 133z"/>
<path style="fill:#fba86e; stroke:none;" d="M31 134L32 135L31 134z"/>
<path style="fill:#fdccaa; stroke:none;" d="M35 134L36 135L35 134M43 134L44 135L43 134z"/>
<path style="fill:#fba86e; stroke:none;" d="M47 134L48 135L47 134M85 134L86 135L85 134z"/>
<path style="fill:#fdccaa; stroke:none;" d="M89 134L90 135L89 134M97 134L98 135L97 134z"/>
<path style="fill:#fba86e; stroke:none;" d="M101 134L102 135L101 134z"/>
<path style="fill:#fa8d42; stroke:none;" d="M34 135L35 136L34 135M43 135L44 136L43 135M86 135L87 136L86 135M98 135L99 136L98 135z"/>
<path style="fill:#fba86e; stroke:none;" d="M30 136L31 137L30 136z"/>
<path style="fill:#fdccaa; stroke:none;" d="M34 136L35 137L34 136z"/>
<path style="fill:#fba86e; stroke:none;" d="M42 136L43 137L42 136z"/>
<path style="fill:#fdccaa; stroke:none;" d="M46 136L47 137L46 136M86 136L87 137L86 136z"/>
<path style="fill:#fba86e; stroke:none;" d="M90 136L91 137L90 136z"/>
<path style="fill:#fdccaa; stroke:none;" d="M98 136L99 137L98 136z"/>
<path style="fill:#fa8d42; stroke:none;" d="M102 136L103 137L102 136z"/>
<path style="fill:#fdccaa; stroke:none;" d="M29 137L30 138L29 137z"/>
<path style="fill:#fba86e; stroke:none;" d="M33 137L34 138L33 137z"/>
<path style="fill:#fa8d42; stroke:none;" d="M45 137L46 138L45 137M87 137L88 138L87 137z"/>
<path style="fill:#fba86e; stroke:none;" d="M99 137L100 138L99 137z"/>
<path style="fill:#fdccaa; stroke:none;" d="M103 137L104 138L103 137z"/>
<path style="fill:#fa8d42; stroke:none;" d="M29 138L30 139L29 138z"/>
<path style="fill:#fba86e; stroke:none;" d="M41 138L42 139L41 138z"/>
<path style="fill:#fdccaa; stroke:none;" d="M45 138L46 139L45 138M87 138L88 139L87 138z"/>
<path style="fill:#fa8d42; stroke:none;" d="M91 138L92 139L91 138M103 138L104 139L103 138z"/>
<path style="fill:#fdccaa; stroke:none;" d="M28 139L29 140L28 139z"/>
<path style="fill:#fba86e; stroke:none;" d="M32 139L33 140L32 139z"/>
<path style="fill:#fdccaa; stroke:none;" d="M40 139L41 140L40 139z"/>
<path style="fill:#fba86e; stroke:none;" d="M44 139L45 140L44 139M88 139L89 140L88 139z"/>
<path style="fill:#fdccaa; stroke:none;" d="M92 139L93 140L92 139M100 139L101 140L100 139M104 139L105 140L104 139z"/>
<path style="fill:#fa8d42; stroke:none;" d="M31 140L32 141L31 140M40 140L41 141L40 140M92 140L93 141L92 140M101 140L102 141L101 140z"/>
<path style="fill:#fba86e; stroke:none;" d="M27 141L28 142L27 141z"/>
<path style="fill:#fdccaa; stroke:none;" d="M31 141L32 142L31 141z"/>
<path style="fill:#fba86e; stroke:none;" d="M39 141L40 142L39 141M43 141L44 142L43 141z"/>
<path style="fill:#fdccaa; stroke:none;" d="M89 141L90 142L89 141z"/>
<path style="fill:#fba86e; stroke:none;" d="M93 141L94 142L93 141z"/>
<path style="fill:#fdccaa; stroke:none;" d="M101 141L102 142L101 141z"/>
<path style="fill:#fba86e; stroke:none;" d="M105 141L106 142L105 141z"/>
<path style="fill:#fdccaa; stroke:none;" d="M26 142L27 143L26 142z"/>
<path style="fill:#fa8d42; stroke:none;" d="M30 142L31 143L30 142z"/>
<path style="fill:#fba86e; stroke:none;" d="M38 142L39 143L38 142z"/>
<path style="fill:#fa8d42; stroke:none;" d="M42 142L43 143L42 142M90 142L91 143L90 142z"/>
<path style="fill:#fba86e; stroke:none;" d="M94 142L95 143L94 142z"/>
<path style="fill:#fa8d42; stroke:none;" d="M102 142L103 143L102 142z"/>
<path style="fill:#fdccaa; stroke:none;" d="M106 142L107 143L106 142z"/>
<path style="fill:#fa8d42; stroke:none;" d="M26 143L27 144L26 143z"/>
<path style="fill:#fdccaa; stroke:none;" d="M30 143L30 144L34 145L34 144L30 143M36 143L37 144L36 143z"/>
<path style="fill:#fa8d42; stroke:none;" d="M37 143L38 144L37 143z"/>
<path style="fill:#fdccaa; stroke:none;" d="M42 143L43 144L42 143M90 143L91 144L90 143z"/>
<path style="fill:#fa8d42; stroke:none;" d="M95 143L96 144L95 143z"/>
<path style="fill:#fdccaa; stroke:none;" d="M96 143L97 144L96 143z"/>
<path style="fill:#fa8d42; stroke:none;" d="M106 143L107 144L106 143z"/>
<path style="fill:#fdccaa; stroke:none;" d="M25.3333 144.667L25.6667 145.333L25.3333 144.667z"/>
<path style="fill:#fba86e; stroke:none;" d="M30 144L31 145L30 144M34 144L35 145L34 144z"/>
<path style="fill:#fa8d42; stroke:none;" d="M35 144L36 145L35 144z"/>
<path style="fill:#fdccaa; stroke:none;" d="M41 144L42 145L41 144M91 144L92 145L91 144z"/>
<path style="fill:#fa8d42; stroke:none;" d="M97 144L98 145L97 144z"/>
<path style="fill:#fba86e; stroke:none;" d="M98 144L99 145L98 144z"/>
<path style="fill:#fdccaa; stroke:none;" d="M99 144L99 145L102 145L99 144z"/>
<path style="fill:#fba86e; stroke:none;" d="M102 144L103 145L102 144z"/>
<path style="fill:#fdccaa; stroke:none;" d="M107.333 144.667L107.667 145.333L107.333 144.667z"/>
<path style="fill:#fa8d42; stroke:none;" d="M39 145L40 146L39 145z"/>
<path style="fill:#fdccaa; stroke:none;" d="M40 145L41 146L40 145M92 145L93 146L92 145z"/>
<path style="fill:#fa8d42; stroke:none;" d="M93 145L94 146L93 145z"/>
<path style="fill:#fdccaa; stroke:none;" d="M26 146L27 147L26 146z"/>
<path style="fill:#fa8d42; stroke:none;" d="M27 146L28 147L27 146z"/>
<path style="fill:#fba86e; stroke:none;" d="M38 146L39 147L38 146M94 146L95 147L94 146z"/>
<path style="fill:#fa8d42; stroke:none;" d="M105 146L106 147L105 146z"/>
<path style="fill:#fdccaa; stroke:none;" d="M106 146L107 147L106 146M28 147L29 148L28 147z"/>
<path style="fill:#fba86e; stroke:none;" d="M29 147L30 148L29 147z"/>
<path style="fill:#fa8d42; stroke:none;" d="M30 147L31 148L30 147z"/>
<path style="fill:#fba86e; stroke:none;" d="M35 147L36 148L35 147z"/>
<path style="fill:#fdccaa; stroke:none;" d="M36 147L37 148L36 147M96 147L97 148L96 147z"/>
<path style="fill:#fba86e; stroke:none;" d="M97 147L98 148L97 147z"/>
<path style="fill:#fa8d42; stroke:none;" d="M98 147L99 148L98 147M102 147L103 148L102 147z"/>
<path style="fill:#fba86e; stroke:none;" d="M103 147L104 148L103 147z"/>
<path style="fill:#fdccaa; stroke:none;" d="M104 147L105 148L104 147z"/>
</svg>
